<?xml version="1.0" encoding="utf-8"?>
<!-- Generator: Adobe Illustrator 23.0.3, SVG Export Plug-In . SVG Version: 6.00 Build 0)  -->
<svg version="1.1" id="chloe_x5F_svg" xmlns="http://www.w3.org/2000/svg" xmlns:xlink="http://www.w3.org/1999/xlink" x="0px"
	 y="0px" width="800px" height="500px" viewBox="0 0 800 500" style="enable-background:new 0 0 800 500;" xml:space="preserve">
<path id="doodle" style="fill:none;stroke:#00BEAA;stroke-width:12;stroke-linecap:round;stroke-linejoin:round;stroke-miterlimit:10;" d="
	M359,287c-14.1-3.1-7.7-16.7-6.8-32.2c0.5-8.9,1.5-17.8,3.2-26.5c0.9-4.4,2.5-8.7,4.4-12.7c0.5-1.1,1.6-2.4,2.8-2.5
	c28.1-1.8,65,20.1,87.3,30"/>
<path id="waves" d="M268.1,359.8h13.7l6.3,31.9l7.5-31.9h14.5l7.6,31.8l6.2-31.8h12.9l-12.1,44.6h-15.1l-7-29l-7.3,29h-15
	L268.1,359.8z M359,359.1c6.6,0,11.4,3,13.8,7v-6.3h13.7v44.6h-13.7v-6.3c-2.5,3.9-7.2,7-13.8,7c-10.9,0-19.6-9-19.6-23
	C339.3,367.9,348,359.1,359,359.1z M363,371c-5.1,0-9.8,3.8-9.8,11c0,7.1,4.6,11.1,9.8,11.1c5.2,0,9.8-3.9,9.8-11
	C372.7,375,368.2,371,363,371z M406.7,359.8l9.7,31.8l9.7-31.8h14.6l-15.8,44.6h-16.9l-15.8-44.6H406.7z M466.2,405
	c-13.1,0-22.6-8.8-22.6-23s9.3-23,22.6-23c13,0,22.2,8.6,22.2,22.2c0,1.3-0.1,2.6-0.2,4h-31c0.5,5.8,4.1,8.6,8.5,8.6
	c3.8,0,6-1.9,7.1-4.3h14.6C485.3,398.3,477.4,405,466.2,405z M457.4,377.8h17.1c0-4.9-3.8-7.7-8.4-7.7
	C461.6,370.1,458.2,372.8,457.4,377.8z M513.8,405c-11.9,0-19.9-6.6-20.6-15.3h13.5c0.3,3.1,3.1,5.2,6.9,5.2c3.5,0,5.4-1.6,5.4-3.6
	c0-7.2-24.3-2-24.3-18.4c0-7.6,6.5-13.8,18.2-13.8c11.5,0,17.9,6.4,18.8,15.2H519c-0.4-3-2.7-5-6.6-5c-3.2,0-5,1.3-5,3.4
	c0,7.1,24.2,2.1,24.4,18.7C531.9,399.2,525,405,513.8,405z"/>
<path id="makes" d="M324.5,258.5c0-5.8-3.4-9-8.6-9c-5.2,0-8.6,3.2-8.6,9v24.2h-13.6v-24.2c0-5.8-3.4-9-8.6-9c-5.2,0-8.6,3.2-8.6,9
	v24.2H263v-44.6h13.7v5.6c2.6-3.6,7.2-6.1,13-6.1c6.7,0,12.2,3,15.2,8.3c3-4.7,8.6-8.3,15-8.3c11,0,18.2,7,18.2,19v26.1h-13.6V258.5
	z M364.7,237.5c6.6,0,11.4,3,13.8,7v-6.3h13.7v44.6h-13.7v-6.3c-2.5,3.9-7.2,7-13.8,7c-10.9,0-19.6-9-19.6-23
	C345,246.3,353.7,237.5,364.7,237.5z M368.7,249.4c-5.1,0-9.8,3.8-9.8,11c0,7.1,4.6,11.1,9.8,11.1c5.2,0,9.8-3.9,9.8-11
	C378.4,253.3,373.9,249.4,368.7,249.4z M402,223.6h13.7v32.7l13.5-18.2h16.9l-18.6,22.4l18.7,22.2h-17L415.7,264v18.7H402V223.6z
	 M471.3,283.4c-13.1,0-22.6-8.8-22.6-23c0-14.2,9.3-23,22.6-23c13,0,22.2,8.6,22.2,22.2c0,1.3-0.1,2.6-0.2,4h-31
	c0.5,5.8,4.1,8.6,8.5,8.6c3.8,0,6-1.9,7.1-4.3h14.6C490.4,276.7,482.4,283.4,471.3,283.4z M462.4,256.1h17.1c0-4.9-3.8-7.7-8.4-7.7
	C466.7,248.4,463.2,251.2,462.4,256.1z M518.9,283.4c-11.9,0-19.9-6.6-20.6-15.3h13.5c0.3,3.1,3.1,5.2,6.9,5.2
	c3.5,0,5.4-1.6,5.4-3.6c0-7.2-24.3-2-24.3-18.4c0-7.6,6.5-13.8,18.2-13.8c11.5,0,17.9,6.4,18.8,15.2h-12.6c-0.4-3-2.7-5-6.6-5
	c-3.2,0-5,1.3-5,3.4c0,7.1,24.2,2.1,24.4,18.7C537,277.6,530.1,283.4,518.9,283.4z"/>
<path id="chloe_1_" d="M311.3,97.4c13.4,0,23.4,7.5,26.6,19.7h-15c-2.3-4.8-6.6-7.2-11.8-7.2c-8.4,0-14.2,6.2-14.2,16.2
	s5.8,16.2,14.2,16.2c5.2,0,9.4-2.4,11.8-7.2h15c-3.2,12.2-13.3,19.6-26.6,19.6c-16.6,0-28.2-11.8-28.2-28.6S294.8,97.4,311.3,97.4z
	 M346.4,95H360v20.6c2.7-3.8,7.6-6.5,13.8-6.5c10.2,0,17,7,17,19v26.1h-13.6v-24.2c0-6.1-3.4-9.4-8.6-9.4c-5.2,0-8.6,3.4-8.6,9.4
	v24.2h-13.7V95z M400.3,95H414v59.2h-13.7V95z M444.2,154.8c-13.1,0-23-8.8-23-23s10.2-23,23.2-23c13.1,0,23.2,8.8,23.2,23
	S457.3,154.8,444.2,154.8z M444.2,143c4.9,0,9.4-3.6,9.4-11.1c0-7.6-4.5-11.1-9.3-11.1c-5,0-9.3,3.5-9.3,11.1
	C435.1,139.4,439.2,143,444.2,143z M494.7,154.8c-13.1,0-22.6-8.8-22.6-23s9.3-23,22.6-23c13,0,22.2,8.6,22.2,22.2
	c0,1.3-0.1,2.6-0.2,4h-31c0.5,5.8,4.1,8.6,8.5,8.6c3.8,0,6-1.9,7.1-4.3h14.6C513.7,148.1,505.8,154.8,494.7,154.8z M485.8,127.5
	h17.1c0-4.9-3.8-7.7-8.4-7.7C490,119.8,486.6,122.6,485.8,127.5z"/>
</svg>
