<?xml version="1.0" encoding="utf-8"?>
<!-- Generator: Adobe Illustrator 23.0.3, SVG Export Plug-In . SVG Version: 6.00 Build 0)  -->
<svg version="1.1" id="wemade_x5F_svg" xmlns="http://www.w3.org/2000/svg" xmlns:xlink="http://www.w3.org/1999/xlink" x="0px"
	 y="0px" width="800px" height="500px" viewBox="0 0 800 500" style="enable-background:new 0 0 800 500;" xml:space="preserve">
<path id="face" style="fill:none;stroke:#FFD400;stroke-width:12;stroke-linecap:round;stroke-linejoin:round;stroke-miterlimit:10;" d="
	M460,170c0,33.1-26.9,60-60,60s-60-26.9-60-60s26.9-60,60-60S460,136.9,460,170z M376.3,150.6c5.8,10,14.7-5.8,6.6-9.3
	c-5.1-2.2-6.6,5.6-2.3,7.5 M426.3,149.5c-2.3,0-5-1.3-6.8,0c-1.5,1.1-1.6,3.8-0.9,5.5c0.5,1.1,2.5,1.5,3.6,0.9c0.9-0.5-0.4-2.1,0-3
	 M383.8,174.9c-4.2,6.8-2.1,17,4.8,22c1.5,1.1,13.4,10.1,16.4,4.3c5.1-9.7,9.3-19.9,14-29.8"/>
<path id="dollar" style="fill:#FFD400;" d="M396.8,358.1c-12.6-1.1-21.5-7.8-21.8-19.5h14.6c0.4,4.5,2.7,7.5,7.2,8.5v-18.6
	c-10-2.5-21.8-5.4-21.8-19.7c0-11.5,9.1-19,21.8-19.9V281h6.2v7.9c12.2,1,20.3,7.5,21.2,19.1h-14.7c-0.4-3.8-2.7-6.7-6.5-7.9v18.4
	c10.1,2.6,22,5.3,22,19.7c0,9.9-7.8,19.2-22,20.1v7.9h-6.2V358.1z M396.8,316.6v-16.8c-4.5,0.7-7.6,3.4-7.6,8.4
	C389.2,312.7,392.3,315,396.8,316.6z M403,330.3v17c5-0.9,7.9-4.3,7.9-8.7C410.9,334.1,407.6,331.9,403,330.3z"/>
<text transform="matrix(1 0 0 1 309.2998 -68.6208)" style="font-family:'Poppins-Bold'; font-size:60px;">Chloe</text>
<path d="M308.3,130.5h10.3l4.7,23.9l5.6-23.9h10.9l5.7,23.8l4.7-23.8h9.7l-9.1,33.5h-11.3l-5.3-21.7l-5.5,21.7h-11.3L308.3,130.5z
	 M363.8,119.6H374V135c2-2.9,5.7-4.9,10.3-4.9c7.6,0,12.7,5.3,12.7,14.3V164h-10.2v-18.2c0-4.6-2.5-7.1-6.4-7.1s-6.4,2.5-6.4,7.1
	V164h-10.3V119.6z M419.4,164.4c-9.8,0-17.3-6.6-17.3-17.2c0-10.6,7.6-17.2,17.4-17.2c9.8,0,17.4,6.6,17.4,17.2
	C437,157.8,429.3,164.4,419.4,164.4z M419.4,155.6c3.7,0,7.1-2.7,7.1-8.3c0-5.7-3.4-8.3-7-8.3c-3.7,0-7,2.6-7,8.3
	C412.6,152.9,415.7,155.6,419.4,155.6z M442.4,119.6h10.3V164h-10.3V119.6z M475,164.4c-9.8,0-16.9-6.6-16.9-17.2
	c0-10.6,7-17.2,16.9-17.2c9.8,0,16.7,6.5,16.7,16.7c0,1-0.1,2-0.2,3h-23.2c0.4,4.4,3.1,6.4,6.4,6.4c2.9,0,4.5-1.4,5.3-3.2h10.9
	C489.3,159.4,483.3,164.4,475,164.4z M468.3,144h12.8c0-3.7-2.9-5.8-6.3-5.8C471.5,138.2,468.9,140.3,468.3,144z"/>
<path d="M360.4,253.8c0-4.6-2.5-7.1-6.4-7.1c-3.9,0-6.4,2.5-6.4,7.1V272h-10.3v-33.5h10.3v4.4c2-2.8,5.6-4.8,10.1-4.8
	c7.7,0,12.9,5.3,12.9,14.3V272h-10.2V253.8z M392.6,272.4c-9.8,0-16.9-6.6-16.9-17.2c0-10.6,7-17.2,16.9-17.2
	c9.8,0,16.7,6.5,16.7,16.7c0,1-0.1,2-0.2,3h-23.2c0.4,4.4,3.1,6.4,6.4,6.4c2.9,0,4.5-1.4,5.3-3.2h10.9
	C406.9,267.4,400.9,272.4,392.6,272.4z M385.9,252h12.8c0-3.7-2.9-5.8-6.3-5.8C389.1,246.2,386.5,248.3,385.9,252z M411.2,238.5
	h10.3l4.7,23.9l5.6-23.9h10.9l5.7,23.8l4.7-23.8h9.7l-9.1,33.5h-11.3l-5.3-21.7l-5.5,21.7h-11.3L411.2,238.5z"/>
<path d="M319.8,380.4c-8.9,0-14.9-5-15.4-11.5h10.1c0.2,2.3,2.3,3.9,5.2,3.9c2.6,0,4-1.2,4-2.7c0-5.4-18.2-1.5-18.2-13.8
	c0-5.7,4.9-10.4,13.6-10.4c8.6,0,13.4,4.8,14.1,11.4h-9.5c-0.3-2.3-2-3.8-4.9-3.8c-2.4,0-3.7,1-3.7,2.6c0,5.3,18.1,1.6,18.3,14
	C333.3,376.1,328.2,380.4,319.8,380.4z M341.3,355h-4.1v-8.5h4.1v-8.2h10.3v8.2h6.7v8.5h-6.7v13.4c0,2,0.8,2.8,3.1,2.8h3.7v8.7h-5.2
	c-7,0-11.8-2.9-11.8-11.6V355z M397.1,380h-10.3v-4.6c-2,2.9-5.6,4.9-10.1,4.9c-7.7,0-13-5.3-13-14.3v-19.6h10.2v18.2
	c0,4.6,2.6,7.1,6.4,7.1c4,0,6.5-2.5,6.5-7.1v-18.2h10.3V380z M417.2,346c4.4,0,8.3,2,10.3,5.1v-15.5h10.3V380h-10.3v-4.8
	c-1.9,3.1-5.4,5.3-10.3,5.3c-8.2,0-14.8-6.7-14.8-17.3C402.4,352.6,408.9,346,417.2,346z M420.2,354.9c-3.8,0-7.3,2.9-7.3,8.2
	c0,5.3,3.5,8.3,7.3,8.3c3.9,0,7.3-2.9,7.3-8.3S424.1,354.9,420.2,354.9z M444.2,337.5c0-3.1,2.5-5.6,6.1-5.6c3.6,0,6.1,2.5,6.1,5.6
	c0,3.1-2.5,5.5-6.1,5.5C446.7,343,444.2,340.5,444.2,337.5z M445.2,346.5h10.3V380h-10.3V346.5z M478.1,380.4
	c-9.8,0-17.3-6.6-17.3-17.2c0-10.6,7.6-17.2,17.4-17.2c9.8,0,17.4,6.6,17.4,17.2C495.6,373.8,488,380.4,478.1,380.4z M478.1,371.6
	c3.7,0,7.1-2.7,7.1-8.3c0-5.7-3.4-8.3-7-8.3c-3.7,0-7,2.6-7,8.3C471.3,368.9,474.4,371.6,478.1,371.6z"/>
</svg>
