<?xml version="1.0" encoding="utf-8"?>
<!-- Generator: Adobe Illustrator 23.0.3, SVG Export Plug-In . SVG Version: 6.00 Build 0)  -->
<svg version="1.1" id="wemade" xmlns="http://www.w3.org/2000/svg" xmlns:xlink="http://www.w3.org/1999/xlink" x="0px" y="0px"
	 width="800px" height="500px" viewBox="0 0 800 500" style="enable-background:new 0 0 800 500;" xml:space="preserve">
<path id="face" style="fill:none;stroke:#FFD400;stroke-width:12;stroke-linecap:round;stroke-linejoin:round;stroke-miterlimit:10;" d="
	M460,170c0,33.1-26.9,60-60,60s-60-26.9-60-60s26.9-60,60-60S460,136.9,460,170z M376.3,150.6c5.8,10,14.7-5.8,6.6-9.3
	c-5.1-2.2-6.6,5.6-2.3,7.5 M426.3,149.5c-2.3,0-5-1.3-6.8,0c-1.5,1.1-1.6,3.8-0.9,5.5c0.5,1.1,2.5,1.5,3.6,0.9c0.9-0.5-0.4-2.1,0-3
	 M383.8,174.9c-4.2,6.8-2.1,17,4.8,22c1.5,1.1,13.4,10.1,16.4,4.3c5.1-9.7,9.3-19.9,14-29.8"/>
<path id="dollar" style="fill:#FFD400;" d="M398.4,321.8c-6.3-0.5-10.7-3.9-10.9-9.7h7.3c0.2,2.2,1.4,3.7,3.6,4.2V307
	c-5-1.3-10.9-2.7-10.9-9.9c0-5.7,4.6-9.5,10.9-10v-3.9h3.1v3.9c6.1,0.5,10.2,3.7,10.6,9.5h-7.3c-0.2-1.9-1.4-3.4-3.3-3.9v9.2
	c5.1,1.3,11,2.6,11,9.8c0,5-3.9,9.6-11,10.1v3.9h-3.1V321.8z M398.4,301.1v-8.4c-2.2,0.3-3.8,1.7-3.8,4.2
	C394.6,299.1,396.2,300.3,398.4,301.1z M401.5,307.9v8.5c2.5-0.4,3.9-2.1,3.9-4.3C405.4,309.8,403.8,308.7,401.5,307.9z"/>
<path id="dollar_1_" style="fill:#FFD400;" d="M398.4,321.8c-6.3-0.5-10.7-3.9-10.9-9.7h7.3c0.2,2.2,1.4,3.7,3.6,4.2V307
	c-5-1.3-10.9-2.7-10.9-9.9c0-5.7,4.6-9.5,10.9-10v-3.9h3.1v3.9c6.1,0.5,10.2,3.7,10.6,9.5h-7.3c-0.2-1.9-1.4-3.4-3.3-3.9v9.2
	c5.1,1.3,11,2.6,11,9.8c0,5-3.9,9.6-11,10.1v3.9h-3.1V321.8z M398.4,301.1v-8.4c-2.2,0.3-3.8,1.7-3.8,4.2
	C394.6,299.1,396.2,300.3,398.4,301.1z M401.5,307.9v8.5c2.5-0.4,3.9-2.1,3.9-4.3C405.4,309.8,403.8,308.7,401.5,307.9z"/>
<path id="dollar_2_" style="fill:#FFD400;" d="M398.4,321.8c-6.3-0.5-10.7-3.9-10.9-9.7h7.3c0.2,2.2,1.4,3.7,3.6,4.2V307
	c-5-1.3-10.9-2.7-10.9-9.9c0-5.7,4.6-9.5,10.9-10v-3.9h3.1v3.9c6.1,0.5,10.2,3.7,10.6,9.5h-7.3c-0.2-1.9-1.4-3.4-3.3-3.9v9.2
	c5.1,1.3,11,2.6,11,9.8c0,5-3.9,9.6-11,10.1v3.9h-3.1V321.8z M398.4,301.1v-8.4c-2.2,0.3-3.8,1.7-3.8,4.2
	C394.6,299.1,396.2,300.3,398.4,301.1z M401.5,307.9v8.5c2.5-0.4,3.9-2.1,3.9-4.3C405.4,309.8,403.8,308.7,401.5,307.9z"/>
<path id="dollar_3_" style="fill:#FFD400;" d="M398.4,321.8c-6.3-0.5-10.7-3.9-10.9-9.7h7.3c0.2,2.2,1.4,3.7,3.6,4.2V307
	c-5-1.3-10.9-2.7-10.9-9.9c0-5.7,4.6-9.5,10.9-10v-3.9h3.1v3.9c6.1,0.5,10.2,3.7,10.6,9.5h-7.3c-0.2-1.9-1.4-3.4-3.3-3.9v9.2
	c5.1,1.3,11,2.6,11,9.8c0,5-3.9,9.6-11,10.1v3.9h-3.1V321.8z M398.4,301.1v-8.4c-2.2,0.3-3.8,1.7-3.8,4.2
	C394.6,299.1,396.2,300.3,398.4,301.1z M401.5,307.9v8.5c2.5-0.4,3.9-2.1,3.9-4.3C405.4,309.8,403.8,308.7,401.5,307.9z"/>
</svg>
