<?xml version="1.0" encoding="utf-8"?>
<!-- Generator: Adobe Illustrator 23.0.3, SVG Export Plug-In . SVG Version: 6.00 Build 0)  -->
<svg version="1.1" id="wemade_x5F_svg" xmlns="http://www.w3.org/2000/svg" xmlns:xlink="http://www.w3.org/1999/xlink" x="0px"
	 y="0px" width="800px" height="500px" viewBox="0 0 800 500" style="enable-background:new 0 0 800 500;" xml:space="preserve">
<path id="face" style="fill:none;stroke:#FFD400;stroke-width:12;stroke-linecap:round;stroke-linejoin:round;stroke-miterlimit:10;" d="
	M460,170c0,33.1-26.9,60-60,60s-60-26.9-60-60s26.9-60,60-60S460,136.9,460,170z M376.3,150.6c5.8,10,14.7-5.8,6.6-9.3
	c-5.1-2.2-6.6,5.6-2.3,7.5 M426.3,149.5c-2.3,0-5-1.3-6.8,0c-1.5,1.1-1.6,3.8-0.9,5.5c0.5,1.1,2.5,1.5,3.6,0.9c0.9-0.5-0.4-2.1,0-3
	 M383.8,174.9c-4.2,6.8-2.1,17,4.8,22c1.5,1.1,13.4,10.1,16.4,4.3c5.1-9.7,9.3-19.9,14-29.8"/>
<path id="dollar" style="fill:#FFD400;" d="M396.8,358.1c-12.6-1.1-21.5-7.8-21.8-19.5h14.6c0.4,4.5,2.7,7.5,7.2,8.5v-18.6
	c-10-2.5-21.8-5.4-21.8-19.7c0-11.5,9.1-19,21.8-19.9V281h6.2v7.9c12.2,1,20.3,7.5,21.2,19.1h-14.7c-0.4-3.8-2.7-6.7-6.5-7.9v18.4
	c10.1,2.6,22,5.3,22,19.7c0,9.9-7.8,19.2-22,20.1v7.9h-6.2V358.1z M396.8,316.6v-16.8c-4.5,0.7-7.6,3.4-7.6,8.4
	C389.2,312.7,392.3,315,396.8,316.6z M403,330.3v17c5-0.9,7.9-4.3,7.9-8.7C410.9,334.1,407.6,331.9,403,330.3z"/>
<path d="M278.4,150.5h-21l-3.4,9.9h-14.3l20.3-56.2H276l20.3,56.2h-14.5L278.4,150.5z M268,119.3l-6.9,20.6h13.8L268,119.3z
	 M314.8,115.7h13.7l6.3,31.9l7.5-31.9h14.5l7.6,31.8l6.2-31.8h12.9l-12.1,44.6h-15.1l-7-29l-7.3,29h-15L314.8,115.7z M388.7,101.2
	h13.7v20.6c2.7-3.8,7.6-6.5,13.8-6.5c10.2,0,17,7,17,19v26.1h-13.6v-24.2c0-6.1-3.4-9.4-8.6-9.4s-8.6,3.4-8.6,9.4v24.2h-13.7V101.2z
	 M462.9,161c-13.1,0-23-8.8-23-23s10.2-23,23.2-23c13.1,0,23.2,8.8,23.2,23S476,161,462.9,161z M462.9,149.2c4.9,0,9.4-3.6,9.4-11.1
	c0-7.6-4.5-11.1-9.3-11.1c-5,0-9.3,3.5-9.3,11.1C453.8,145.6,458,149.2,462.9,149.2z M493.6,101.2h13.7v59.2h-13.7V101.2z M537,161
	c-13.1,0-22.6-8.8-22.6-23s9.3-23,22.6-23c13,0,22.2,8.6,22.2,22.2c0,1.3-0.1,2.6-0.2,4h-31c0.5,5.8,4.1,8.6,8.5,8.6
	c3.8,0,6-1.9,7.1-4.3h14.6C556,154.3,548.1,161,537,161z M528.1,133.7h17.1c0-4.9-3.8-7.7-8.4-7.7
	C532.4,126.1,528.9,128.8,528.1,133.7z"/>
<path d="M349.5,258.1c0-6.1-3.4-9.4-8.6-9.4s-8.6,3.4-8.6,9.4v24.2h-13.7v-44.6h13.7v5.9c2.7-3.8,7.5-6.4,13.5-6.4
	c10.3,0,17.2,7,17.2,19v26.1h-13.6V258.1z M392.5,283c-13.1,0-22.6-8.8-22.6-23s9.3-23,22.6-23c13,0,22.2,8.6,22.2,22.2
	c0,1.3-0.1,2.6-0.2,4h-31c0.5,5.8,4.1,8.6,8.5,8.6c3.8,0,6-1.9,7.1-4.3h14.6C411.5,276.3,403.6,283,392.5,283z M383.6,255.7h17.1
	c0-4.9-3.8-7.7-8.4-7.7C387.8,248.1,384.4,250.8,383.6,255.7z M417.3,237.7H431l6.3,31.9l7.5-31.9h14.5l7.6,31.8l6.2-31.8H486
	l-12.1,44.6h-15.1l-7-29l-7.3,29h-15L417.3,237.7z"/>
<path d="M293.2,405c-11.9,0-19.9-6.6-20.6-15.3h13.5c0.3,3.1,3.1,5.2,6.9,5.2c3.5,0,5.4-1.6,5.4-3.6c0-7.2-24.3-2-24.3-18.4
	c0-7.6,6.5-13.8,18.2-13.8c11.5,0,17.9,6.4,18.8,15.2h-12.6c-0.4-3-2.7-5-6.6-5c-3.2,0-5,1.3-5,3.4c0,7.1,24.2,2.1,24.4,18.7
	C311.2,399.2,304.4,405,293.2,405z M321.8,371.1h-5.4v-11.4h5.4v-10.9h13.7v10.9h9v11.4h-9V389c0,2.6,1.1,3.8,4.2,3.8h4.9v11.6h-7
	c-9.3,0-15.8-3.9-15.8-15.5V371.1z M396.2,404.4h-13.7v-6.1c-2.7,3.8-7.5,6.6-13.5,6.6c-10.3,0-17.3-7.1-17.3-19v-26.1h13.6V384
	c0,6.1,3.4,9.4,8.6,9.4c5.3,0,8.6-3.4,8.6-9.4v-24.2h13.7V404.4z M423,359.1c5.9,0,11,2.7,13.8,6.8v-20.7h13.7v59.2h-13.7V398
	c-2.5,4.1-7.2,7-13.8,7c-11,0-19.7-9-19.7-23S412,359.1,423,359.1z M427,371c-5.1,0-9.8,3.8-9.8,11s4.6,11.1,9.8,11.1
	c5.2,0,9.8-3.9,9.8-11S432.2,371,427,371z M459.1,347.7c0-4.2,3.3-7.4,8.2-7.4c4.8,0,8.1,3.3,8.1,7.4c0,4.1-3.3,7.4-8.1,7.4
	C462.4,355.1,459.1,351.8,459.1,347.7z M460.4,359.7H474v44.6h-13.7V359.7z M504.3,405c-13.1,0-23-8.8-23-23s10.2-23,23.2-23
	c13.1,0,23.2,8.8,23.2,23S517.4,405,504.3,405z M504.3,393.2c4.9,0,9.4-3.6,9.4-11.1c0-7.6-4.5-11.1-9.3-11.1c-5,0-9.3,3.5-9.3,11.1
	C495.2,389.6,499.3,393.2,504.3,393.2z"/>
<text transform="matrix(1 0 0 1 583.2998 -80.6208)" style="font-family:'Poppins-Bold'; font-size:80px;">Chloe</text>
</svg>
