<?xml version="1.0" encoding="utf-8"?>
<!-- Generator: Adobe Illustrator 23.0.4, SVG Export Plug-In . SVG Version: 6.00 Build 0)  -->
<svg version="1.1" id="makes" xmlns="http://www.w3.org/2000/svg" xmlns:xlink="http://www.w3.org/1999/xlink" x="0px" y="0px"
	 width="342.5px" height="74.8px" viewBox="0 0 342.5 74.8" style="enable-background:new 0 0 342.5 74.8;" xml:space="preserve">
<path d="M76.9,43.7c0-7.3-4.2-11.3-10.7-11.3s-10.7,4-10.7,11.3V74h-17V43.7c0-7.3-4.2-11.3-10.7-11.3s-10.7,4-10.7,11.3V74H0V18.2
	h17.1v7c3.3-4.5,9-7.6,16.3-7.6c8.4,0,15.2,3.7,19,10.4c3.7-5.9,10.7-10.4,18.8-10.4c13.8,0,22.7,8.8,22.7,23.8V74h-17V43.7z
	 M127.1,17.4c8.3,0,14.2,3.8,17.2,8.7v-7.9h17.1V74h-17.1v-7.9c-3.1,4.9-9,8.7-17.3,8.7c-13.6,0-24.5-11.2-24.5-28.8
	C102.5,28.4,113.4,17.4,127.1,17.4z M132.1,32.3c-6.4,0-12.2,4.8-12.2,13.7s5.8,13.9,12.2,13.9c6.5,0,12.2-4.9,12.2-13.8
	C144.3,37.2,138.6,32.3,132.1,32.3z M173.8,0h17.1v40.9l16.9-22.7h21.1l-23.2,28L229.1,74h-21.2l-17-23.4V74h-17.1V0z M260.4,74.8
	c-16.4,0-28.2-11-28.2-28.7s11.6-28.7,28.2-28.7c16.3,0,27.8,10.8,27.8,27.8c0,1.6-0.1,3.3-0.3,5h-38.7c0.6,7.3,5.1,10.7,10.6,10.7
	c4.8,0,7.5-2.4,8.9-5.4h18.2C284.2,66.4,274.3,74.8,260.4,74.8z M249.3,40.7h21.4c0-6.1-4.8-9.6-10.5-9.6
	C254.6,31.1,250.3,34.5,249.3,40.7z M319.9,74.8c-14.9,0-24.9-8.3-25.7-19.1h16.9c0.4,3.9,3.9,6.5,8.6,6.5c4.4,0,6.7-2,6.7-4.5
	c0-9-30.4-2.5-30.4-23c0-9.5,8.1-17.3,22.7-17.3c14.4,0,22.4,8,23.5,19h-15.8c-0.5-3.8-3.4-6.3-8.2-6.3c-4,0-6.2,1.6-6.2,4.3
	c0,8.9,30.2,2.6,30.5,23.4C342.5,67.5,333.9,74.8,319.9,74.8z"/>
</svg>
