<?xml version="1.0" encoding="utf-8"?>
<!-- Generator: Adobe Illustrator 23.0.4, SVG Export Plug-In . SVG Version: 6.00 Build 0)  -->
<svg version="1.1" id="hand" xmlns="http://www.w3.org/2000/svg" xmlns:xlink="http://www.w3.org/1999/xlink" x="0px" y="0px"
	 width="91.7px" height="100px" viewBox="0 0 91.7 100" style="enable-background:new 0 0 91.7 100;" xml:space="preserve">
<path d="M91.7,22.9v60.4c0,9.2-7.5,16.7-16.7,16.7H44.6c-4.5,0-8.8-1.8-11.9-5L0,61.8c0,0,5.2-5.1,5.4-5.2c0.9-0.8,2-1.2,3.3-1.2
	c0.9,0,1.8,0.2,2.5,0.7c0.2,0,18,10.2,18,10.2V16.7c0-3.5,2.8-6.2,6.2-6.2c3.5,0,6.2,2.8,6.2,6.2v29.2h4.2V6.2
	c0-3.5,2.8-6.2,6.2-6.2s6.2,2.8,6.2,6.2v39.6h4.2V10.4c0-3.5,2.8-6.2,6.3-6.2c3.5,0,6.2,2.8,6.2,6.2v35.4h4.2V22.9
	c0-3.5,2.8-6.2,6.2-6.2C88.9,16.7,91.7,19.5,91.7,22.9z"/>
</svg>
