<?xml version="1.0" encoding="utf-8"?>
<!-- Generator: Adobe Illustrator 23.0.4, SVG Export Plug-In . SVG Version: 6.00 Build 0)  -->
<svg version="1.1" id="makes" xmlns="http://www.w3.org/2000/svg" xmlns:xlink="http://www.w3.org/1999/xlink" x="0px" y="0px"
	 width="239.7px" height="52.4px" viewBox="0 0 239.7 52.4" style="enable-background:new 0 0 239.7 52.4;" xml:space="preserve">
<path d="M53.8,30.6c0-5.1-2.9-7.9-7.5-7.9s-7.5,2.8-7.5,7.9v21.2H27V30.6c0-5.1-2.9-7.9-7.5-7.9S12,25.5,12,30.6v21.2H0V12.7h12v4.9
	c2.3-3.1,6.3-5.3,11.4-5.3c5.9,0,10.6,2.6,13.3,7.3c2.6-4.1,7.5-7.3,13.2-7.3c9.7,0,15.9,6.2,15.9,16.7v22.8H53.8
	C53.8,51.8,53.8,30.6,53.8,30.6z M89,12.2c5.8,0,9.9,2.7,12,6.1v-5.5h12v39.1h-12v-5.5c-2.2,3.4-6.3,6.1-12.1,6.1
	c-9.5,0-17.1-7.8-17.1-20.2S79.4,12.2,89,12.2z M92.5,22.6c-4.5,0-8.5,3.4-8.5,9.6s4.1,9.7,8.5,9.7c4.5,0,8.5-3.4,8.5-9.7
	S97,22.6,92.5,22.6z M121.7,0h12v28.6l11.8-15.9h14.8L144,32.3l16.4,19.5h-14.8l-11.9-16.4v16.4h-12V0z M182.3,52.4
	c-11.5,0-19.7-7.7-19.7-20.1s8.1-20.1,19.7-20.1c11.4,0,19.5,7.6,19.5,19.5c0,1.1-0.1,2.3-0.2,3.5h-27.1c0.4,5.1,3.6,7.5,7.4,7.5
	c3.4,0,5.2-1.7,6.2-3.8h12.7C198.9,46.5,192,52.4,182.3,52.4z M174.5,28.5h15c0-4.3-3.4-6.7-7.4-6.7
	C178.2,21.8,175.2,24.1,174.5,28.5z M223.9,52.4c-10.4,0-17.4-5.8-18-13.4h11.8c0.3,2.7,2.7,4.5,6,4.5c3.1,0,4.7-1.4,4.7-3.1
	c0-6.3-21.3-1.8-21.3-16.1c0-6.6,5.7-12.1,15.9-12.1c10.1,0,15.7,5.6,16.4,13.3h-11.1c-0.4-2.7-2.4-4.4-5.7-4.4
	c-2.8,0-4.3,1.1-4.3,3c0,6.2,21.1,1.8,21.3,16.4C239.7,47.2,233.7,52.4,223.9,52.4z"/>
</svg>
