<?xml version="1.0" encoding="utf-8"?>
<!-- Generator: Adobe Illustrator 23.0.4, SVG Export Plug-In . SVG Version: 6.00 Build 0)  -->
<svg version="1.1" id="paul" xmlns="http://www.w3.org/2000/svg" xmlns:xlink="http://www.w3.org/1999/xlink" x="0px" y="0px"
	 width="220.3px" height="100.6px" viewBox="0 0 220.3 100.6" style="enable-background:new 0 0 220.3 100.6;" xml:space="preserve"
	>
<path d="M34.3,17.4c13.7,0,24.6,11,24.6,28.6c0,17.6-10.9,28.8-24.6,28.8c-8.2,0-14.1-3.9-17.2-8.6v34.4H0V18.2h17.1v7.9
	C20.2,21.2,26.1,17.4,34.3,17.4z M29.2,32.3c-6.4,0-12.2,4.9-12.2,13.8c0,8.9,5.8,13.8,12.2,13.8c6.5,0,12.3-5,12.3-13.9
	S35.7,32.3,29.2,32.3z M89.1,17.4c8.3,0,14.2,3.8,17.2,8.7v-7.9h17.1V74h-17.1v-7.9c-3.1,4.9-9,8.7-17.3,8.7
	c-13.6,0-24.5-11.2-24.5-28.8C64.5,28.4,75.4,17.4,89.1,17.4z M94.1,32.3c-6.4,0-12.2,4.8-12.2,13.7s5.8,13.9,12.2,13.9
	c6.5,0,12.2-4.9,12.2-13.8C106.3,37.2,100.6,32.3,94.1,32.3z M190.9,74h-17.1v-7.6c-3.4,4.8-9.4,8.2-16.9,8.2
	c-12.9,0-21.6-8.9-21.6-23.8V18.2h17v30.3c0,7.6,4.3,11.8,10.7,11.8c6.6,0,10.8-4.2,10.8-11.8V18.2h17.1V74z M203.2,0h17.1v74h-17.1
	V0z"/>
</svg>
