<?xml version="1.0" encoding="utf-8"?>
<!-- Generator: Adobe Illustrator 23.0.4, SVG Export Plug-In . SVG Version: 6.00 Build 0)  -->
<svg version="1.1" id="paul" xmlns="http://www.w3.org/2000/svg" xmlns:xlink="http://www.w3.org/1999/xlink" x="0px" y="0px"
	 width="154.2px" height="70.4px" viewBox="0 0 154.2 70.4" style="enable-background:new 0 0 154.2 70.4;" xml:space="preserve">
<path d="M24,12.2c9.6,0,17.2,7.7,17.2,20S33.6,52.4,24,52.4c-5.7,0-9.9-2.7-12-6v24.1H0V12.7h12v5.5C14.1,14.8,18.3,12.2,24,12.2z
	 M20.4,22.6c-4.5,0-8.5,3.4-8.5,9.7s4.1,9.7,8.5,9.7c4.6,0,8.6-3.5,8.6-9.7S25,22.6,20.4,22.6z M62.4,12.2c5.8,0,9.9,2.7,12,6.1
	v-5.5h12v39.1h-12v-5.5c-2.2,3.4-6.3,6.1-12.1,6.1c-9.5,0-17.1-7.8-17.1-20.2S52.8,12.2,62.4,12.2z M65.9,22.6
	c-4.5,0-8.5,3.4-8.5,9.6s4.1,9.7,8.5,9.7c4.6,0,8.5-3.4,8.5-9.7S70.4,22.6,65.9,22.6z M133.6,51.8h-12v-5.3
	c-2.4,3.4-6.6,5.7-11.8,5.7c-9,0-15.1-6.2-15.1-16.7V12.7h11.9v21.2c0,5.3,3,8.3,7.5,8.3c4.6,0,7.6-2.9,7.6-8.3V12.7h12V51.8z
	 M142.2,0h12v51.8h-12V0z"/>
</svg>
