<?xml version="1.0" encoding="utf-8"?>
<!-- Generator: Adobe Illustrator 23.0.4, SVG Export Plug-In . SVG Version: 6.00 Build 0)  -->
<svg version="1.1" id="shapes" xmlns="http://www.w3.org/2000/svg" xmlns:xlink="http://www.w3.org/1999/xlink" x="0px" y="0px"
	 width="258.2px" height="70.4px" viewBox="0 0 258.2 70.4" style="enable-background:new 0 0 258.2 70.4;" xml:space="preserve">
<path d="M18,52.4C7.6,52.4,0.6,46.5,0,39h11.8c0.3,2.7,2.7,4.5,6,4.5c3.1,0,4.7-1.4,4.7-3.1c0-6.3-21.3-1.8-21.3-16.1
	c0-6.6,5.7-12.1,15.9-12.1c10.1,0,15.7,5.6,16.4,13.3H22.5c-0.4-2.7-2.4-4.4-5.7-4.4c-2.8,0-4.3,1.1-4.3,3c0,6.2,21.1,1.8,21.3,16.4
	C33.8,47.2,27.8,52.4,18,52.4z M41.2,0h12v18c2.4-3.4,6.7-5.7,12-5.7C74.1,12.3,80,18.5,80,29v22.8H68.1V30.6c0-5.3-2.9-8.3-7.5-8.3
	s-7.5,2.9-7.5,8.3v21.2h-12V0z M103.2,12.2c5.8,0,9.9,2.7,12,6.1v-5.5h12v39.1h-12v-5.5c-2.2,3.4-6.3,6.1-12.1,6.1
	c-9.5,0-17.2-7.8-17.2-20.2C86,19.9,93.6,12.2,103.2,12.2z M106.7,22.6c-4.5,0-8.5,3.4-8.5,9.6s4.1,9.7,8.5,9.7
	c4.5,0,8.5-3.4,8.5-9.7C115.2,26,111.2,22.6,106.7,22.6z M159.9,12.2c9.6,0,17.2,7.7,17.2,20s-7.6,20.2-17.2,20.2
	c-5.7,0-9.9-2.7-12-6v24.1h-12V12.7h12v5.5C150,14.8,154.1,12.2,159.9,12.2z M156.3,22.6c-4.5,0-8.5,3.4-8.5,9.7s4.1,9.7,8.5,9.7
	c4.5,0,8.6-3.5,8.6-9.7S160.9,22.6,156.3,22.6z M200.8,52.4c-11.5,0-19.7-7.7-19.7-20.1s8.1-20.1,19.7-20.1
	c11.4,0,19.5,7.6,19.5,19.5c0,1.1-0.1,2.3-0.2,3.5h-27.1c0.4,5.1,3.6,7.5,7.4,7.5c3.4,0,5.2-1.7,6.2-3.8h12.7
	C217.4,46.5,210.5,52.4,200.8,52.4z M193,28.5h15c0-4.3-3.4-6.7-7.3-6.7C196.7,21.8,193.7,24.1,193,28.5z M242.4,52.4
	c-10.4,0-17.4-5.8-18-13.4h11.8c0.3,2.7,2.7,4.5,6,4.5c3.1,0,4.7-1.4,4.7-3.2c0-6.3-21.3-1.8-21.3-16.1c0-6.6,5.7-12.1,15.9-12.1
	c10.1,0,15.7,5.6,16.4,13.3H247c-0.3-2.7-2.4-4.4-5.7-4.4c-2.8,0-4.3,1.1-4.3,3c0,6.2,21.1,1.8,21.4,16.4
	C258.2,47.2,252.2,52.4,242.4,52.4z"/>
</svg>
