<?xml version="1.0" encoding="utf-8"?>
<!-- Generator: Adobe Illustrator 23.0.4, SVG Export Plug-In . SVG Version: 6.00 Build 0)  -->
<svg version="1.1" id="shapes" xmlns="http://www.w3.org/2000/svg" xmlns:xlink="http://www.w3.org/1999/xlink" x="0px" y="0px"
	 width="368.9px" height="100.6px" viewBox="0 0 368.9 100.6" style="enable-background:new 0 0 368.9 100.6;" xml:space="preserve"
	>
<path d="M25.7,74.8C10.8,74.8,0.8,66.5,0,55.7h16.9c0.4,3.9,3.9,6.5,8.6,6.5c4.4,0,6.7-2,6.7-4.5c0-9-30.4-2.5-30.4-23
	c0-9.5,8.1-17.3,22.7-17.3c14.4,0,22.4,8,23.5,19H32.2c-0.5-3.8-3.4-6.3-8.2-6.3c-4,0-6.2,1.6-6.2,4.3c0,8.9,30.2,2.6,30.5,23.4
	C48.3,67.5,39.7,74.8,25.7,74.8z M58.8,0h17.1v25.7c3.4-4.8,9.5-8.1,17.2-8.1c12.7,0,21.2,8.8,21.2,23.8V74h-17V43.7
	c0-7.6-4.2-11.8-10.7-11.8s-10.7,4.2-10.7,11.8V74H58.8V0z M147.4,17.4c8.3,0,14.2,3.8,17.2,8.7v-7.9h17.1V74h-17.1v-7.9
	c-3.1,4.9-9,8.7-17.3,8.7c-13.6,0-24.5-11.2-24.5-28.8C122.8,28.4,133.7,17.4,147.4,17.4z M152.4,32.3c-6.4,0-12.2,4.8-12.2,13.7
	s5.8,13.9,12.2,13.9c6.5,0,12.2-4.9,12.2-13.8C164.6,37.2,158.9,32.3,152.4,32.3z M228.4,17.4c13.7,0,24.6,11,24.6,28.6
	c0,17.6-10.9,28.8-24.6,28.8c-8.2,0-14.1-3.9-17.2-8.6v34.4h-17.1V18.2h17.1v7.9C214.3,21.2,220.2,17.4,228.4,17.4z M223.3,32.3
	c-6.4,0-12.2,4.9-12.2,13.8c0,8.9,5.8,13.8,12.2,13.8c6.5,0,12.3-5,12.3-13.9S229.8,32.3,223.3,32.3z M286.8,74.8
	c-16.4,0-28.2-11-28.2-28.7s11.6-28.7,28.2-28.7c16.3,0,27.8,10.8,27.8,27.8c0,1.6-0.1,3.3-0.3,5h-38.7c0.6,7.3,5.1,10.7,10.6,10.7
	c4.8,0,7.5-2.4,8.9-5.4h18.2C310.6,66.4,300.7,74.8,286.8,74.8z M275.7,40.7h21.4c0-6.1-4.8-9.6-10.5-9.6
	C281,31.1,276.7,34.5,275.7,40.7z M346.3,74.8c-14.9,0-24.9-8.3-25.7-19.1h16.9c0.4,3.9,3.9,6.5,8.6,6.5c4.4,0,6.7-2,6.7-4.5
	c0-9-30.4-2.5-30.4-23c0-9.5,8.1-17.3,22.7-17.3c14.4,0,22.4,8,23.5,19h-15.8c-0.5-3.8-3.4-6.3-8.2-6.3c-4,0-6.2,1.6-6.2,4.3
	c0,8.9,30.2,2.6,30.5,23.4C368.9,67.5,360.3,74.8,346.3,74.8z"/>
</svg>
