<svg version="1.1" id="Layer_1" xmlns="http://www.w3.org/2000/svg" xmlns:xlink="http://www.w3.org/1999/xlink" x="0" y="0" viewBox="0 0 480 480" xml:space="preserve" enable-background="new 0 0 480 480"><path d="M204.7,420v-15.9h26.1c-3.3-3.7-4.6-7.3-4.6-12.6c0-13.4,10.4-23,24.8-23c7,0,13.6,2.6,18,6.9c4,3.9,6,9.1,6,15.6	c0,6.5-1.6,10.3-5.5,13.8h3.8V420H204.7z M250.5,405.2c6.8,0,11.4-4.1,11.4-10.2c0-6.1-4.1-9.8-10.9-9.8c-6.9,0-11.2,3.8-11.2,10	C239.8,401.2,244.1,405.2,250.5,405.2z M270.2,330.2c3.7,4.1,4.8,7,4.8,13.3c0,7.2-2,12.3-6.2,16.3c-4.5,4.3-10.8,6.6-18.1,6.6	c-14.2,0-24.3-9.4-24.3-22.7c0-5.8,1.3-9,5.4-13.5h-3.9V315h45.4v15.2H270.2z M251.2,349.9c6.8,0,10.8-3.7,10.8-10	c0-6.1-4.4-10-11.3-10c-6.5,0-10.9,3.9-10.9,9.8C239.8,345.5,244.6,349.9,251.2,349.9z M227.9,310.6v-15.2h5.7	c-5.2-3.3-7.1-6.7-7.1-12.2c0-1.1,0.1-1.8,0.5-5.5h14.5c-0.5,1.9-0.6,2.9-0.6,4.1c0,8.4,4.5,12.9,13.2,12.9h19.2v15.9L227.9,310.6	L227.9,310.6z M204.7,274.9V259h26.1c-3.3-3.7-4.6-7.3-4.6-12.6c0-13.4,10.4-23,24.8-23c7,0,13.6,2.6,18,6.9c4,3.9,6,9.1,6,15.6	c0,6.5-1.6,10.3-5.5,13.8h3.8v15.2H204.7z M250.5,260.1c6.8,0,11.4-4.1,11.4-10.2c0-6.1-4.1-9.8-10.9-9.8c-6.9,0-11.2,3.8-11.2,10	C239.8,256.2,244.1,260.1,250.5,260.1z M214.8,203.6c4.9,0,8.8,3.9,8.8,8.8c0,4.8-3.9,8.7-8.8,8.7c-4.8,0-8.7-3.9-8.7-8.7	C206,207.5,209.9,203.6,214.8,203.6z M227.9,220.3v-15.9h45.4v15.9H227.9z M271.3,164.9c3.2,6.6,3.8,8.9,3.8,14.4	c0,6.3-1.7,11.2-5.1,14.6c-4.3,4.5-11.1,7.1-18.8,7.1c-14.9,0-25.1-9.1-25.1-22.4c0-5.1,1-8.5,4.1-13.8h15.9	c-4.4,3.7-5.8,6.1-5.8,9.9c0,5.8,3.9,9.3,10.3,9.3c6.3,0,10.2-3.5,10.2-9.2c0-3.6-1.4-6.3-5.1-10L271.3,164.9L271.3,164.9z M270.2,127.1c3.7,4.1,4.8,7,4.8,13.3c0,7.2-2,12.3-6.2,16.3c-4.5,4.3-10.8,6.6-18.1,6.6c-14.2,0-24.3-9.4-24.3-22.7	c0-5.8,1.3-9,5.4-13.5h-3.9v-15.2h45.4v15.2H270.2z M251.2,146.7c6.8,0,10.8-3.7,10.8-10c0-6.1-4.4-10-11.3-10	c-6.5,0-10.9,3.9-10.9,9.8S244.6,146.7,251.2,146.7z M227.9,107.4V91.7h5.2c-5.2-4-6.9-7.6-6.9-14c0-7.1,2.9-13,7.6-15.6	c2.5-1.4,5.3-2.1,8.8-2.1h30.6v15.9h-24.9c-6.1,0-8.9,2.3-8.9,7.1c0,5.1,3.5,8.5,8.9,8.5h24.9v15.9L227.9,107.4L227.9,107.4z"/></svg>