<?xml version="1.0" encoding="utf-8"?>
<!-- Generator: Adobe Illustrator 23.0.1, SVG Export Plug-In . SVG Version: 6.00 Build 0)  -->
<svg version="1.1" id="blob" xmlns="http://www.w3.org/2000/svg" xmlns:xlink="http://www.w3.org/1999/xlink" x="0px" y="0px"
	 width="415.6px" height="138px" viewBox="0 0 415.6 138" style="enable-background:new 0 0 415.6 138;" xml:space="preserve">
<path id="one" d="M175.9,53.6c21.2-9,49.9-10.3,69,2.5c10.1,6.7-9.1,24.1-19,31c-7,4.9-25.6,0.2-25.6,0.2
	s-11.1,3.8-16.9,3.9c-4.6,0.1-12.5,1.4-13.4-3.1C167.6,76.6,165.1,58.1,175.9,53.6z"/>
<defs>
	<path id="two" d="M149.8,36.6c63.6,12.9,92.1-33.1,138,5c40.1,33.3,25.2,83.2-38,62c-21.4-7.2-37-4-51.2,0.4
		c-11.3,3.5-21.9,7.6-33.9,7.9c-8.1,0.2-16.8-1.5-26.9-6.3C93.8,84.6,91.9,24.9,149.8,36.6z"/>
	<path id="three" d="M136.6,32.5c98.7,24,121.5-33.1,167.4,5c40.1,33.3,21.6,82.3-41.1,68.3
		c-21.1-4.8-42.1-1.4-62.8,2.3c-16.4,3-32.6,6.3-48.3,5.9c-10.5-0.3-20.9-2.2-31-7.1C76.9,85.9,79,18.5,136.6,32.5z"/>
	<path id="four" d="M105.9,32.9c98,16.8,209.2-33.3,255.1,4.8c40.1,33.3,16.6,81.2-45.5,77.1
		c-34.1-7.6-76.7-6.2-117.7-3.7c-32.6,2-64.1,4.6-89.6,3.9c-17.1-0.5-31.5-2.6-41.6-7.4C22.5,86.5,14.7,17,105.9,32.9z"/>
	<path id="five" d="M67.1,26.8c73.4,15.4,283.3-30.7,326.7,10.3C446,87,356,119.4,306.1,118.4
		c-44-2.2-29.3-12.1-84.9-11.7c-38.5,0.3-73.7,7.7-102.6,7.2c-28.9-0.5-56.1,5.6-83.8-6.5C-9.8,87.7-5.1,11.6,67.1,26.8z"/>
	<path id="six" d="M62.6,6c91,21,289.8-29.4,333.7,10.8c49.2,45.8-30.4,83.8-82.6,94.5
		c-35.9,2.9-43.7,26.4-100.1,26c-40.6-0.4-69.4-30-103.5-36c-29-5.2-50.5,2.3-73.8-7.9C-8.1,73.4-13.9-11.5,62.6,6z"/>
	<path id="seven" d="M61.1,4.5C166.7,29.3,353.5-24,398.3,15.4c45.4,40.6-17.7,84.4-73.2,102.6
		c-28.9,5.5-55.4,20.5-112.1,19.7c-42.6-0.6-77.9-27-113.2-32.7c-27.3-4.6-44.6-1.1-62.4-9.1C-6.9,75.4-21.1-14.8,61.1,4.5z"/>
	<path id="eight" d="M59.8,3.2c117.3,27.9,294.5-27.7,339.9,11c42.4,36.4-7.5,84.9-65.7,109.1
		c-23.4,7.6-64.7,15.7-121.6,14.6c-44.2-0.9-84.7-24.5-120.9-30.1c-25.8-4-39.9-3.9-53.3-10.1C-5.9,77.1-26.8-17.4,59.8,3.2z"/>
</defs>
</svg>
