<?xml version="1.0" encoding="utf-8"?>
<!-- Generator: Adobe Illustrator 23.0.3, SVG Export Plug-In . SVG Version: 6.00 Build 0)  -->
<svg version="1.1" id="chloe_svg" xmlns="http://www.w3.org/2000/svg" xmlns:xlink="http://www.w3.org/1999/xlink" x="0px" y="0px"
	 width="800px" height="500px" viewBox="0 0 800 500" style="enable-background:new 0 0 800 500;" xml:space="preserve">
<style type="text/css">
	.st0{display:none;opacity:0.15;fill:#00BEAA;}
	.st1{fill:none;stroke:#FFFFFF;stroke-width:12;stroke-linecap:round;stroke-linejoin:round;stroke-miterlimit:10;}
	.st2{fill:none;stroke:#00BEAA;stroke-width:12;stroke-linecap:round;stroke-linejoin:round;stroke-miterlimit:10;}
	.st3{fill:none;stroke:#00BEAA;stroke-width:12;stroke-miterlimit:10;}
</style>
<path id="bg" class="st0" d="M800,500H0V0h800V500z"/>
<path class="st1" d="M722.3,265.9c0-30.4,0.6-74.3-3.2-101.7c-1.3-9.5-6.1-18.3-9.7-27.2c-21.1-52.4-35.2-59.7-85.8-81.3
	c-10.2-4.3-22.6-5.3-33.4-3.9c-19,2.4-34.2,16.3-47.8,28.6"/>
<path class="st2" d="M698.3,255.9c0-30.4,0.6-74.3-3.2-101.7c-1.3-9.5-6.1-18.3-9.7-27.2c-21.1-52.4-35.2-59.7-85.8-81.3
	c-10.2-4.3-22.6-5.3-33.4-3.9c-19,2.4-34.2,16.3-47.8,28.6"/>
<path class="st3" d="M209,168.7H109v-100h100V168.7z"/>
<path id="waves" d="M151.4,368.8h17.1l7.9,39.9l9.4-39.9h18.1l9.5,39.7l7.8-39.7h16.1l-15.1,55.8h-18.9l-8.8-36.2l-9.1,36.2h-18.8
	L151.4,368.8z M265,368c8.3,0,14.2,3.8,17.2,8.7v-7.9h17.1v55.8h-17.1v-7.9c-3.1,4.9-9,8.7-17.3,8.7c-13.6,0-24.5-11.2-24.5-28.8
	C240.4,379,251.3,368,265,368z M270,382.9c-6.4,0-12.2,4.8-12.2,13.7c0,8.9,5.8,13.9,12.2,13.9c6.5,0,12.2-4.9,12.2-13.8
	S276.5,382.9,270,382.9z M324.7,368.8l12.1,39.8l12.1-39.8h18.2l-19.8,55.8h-21.1l-19.8-55.8H324.7z M399.1,425.4
	c-16.4,0-28.2-11-28.2-28.7s11.6-28.7,28.2-28.7c16.3,0,27.8,10.8,27.8,27.8c0,1.6-0.1,3.3-0.3,5h-38.7c0.6,7.3,5.1,10.7,10.6,10.7
	c4.8,0,7.5-2.4,8.9-5.4h18.2C422.9,417,413,425.4,399.1,425.4z M388,391.3h21.4c0-6.1-4.8-9.6-10.5-9.6
	C393.3,381.7,389,385.1,388,391.3z M458.6,425.4c-14.9,0-24.9-8.3-25.7-19.1h16.9c0.4,3.9,3.9,6.5,8.6,6.5c4.4,0,6.7-2,6.7-4.5
	c0-9-30.4-2.5-30.4-23c0-9.5,8.1-17.3,22.7-17.3c14.4,0,22.4,8,23.5,19h-15.8c-0.5-3.8-3.4-6.3-8.2-6.3c-4,0-6.2,1.6-6.2,4.3
	c0,8.9,30.2,2.6,30.5,23.4C481.2,418.1,472.6,425.4,458.6,425.4z"/>
<path id="makes" d="M395.1,260.7c0-7.3-4.2-11.3-10.7-11.3s-10.7,4-10.7,11.3V291h-17v-30.3c0-7.3-4.2-11.3-10.7-11.3
	s-10.7,4-10.7,11.3V291h-17.1v-55.8h17.1v7c3.3-4.5,9-7.6,16.3-7.6c8.4,0,15.2,3.7,19,10.4c3.7-5.9,10.7-10.4,18.8-10.4
	c13.8,0,22.7,8.8,22.7,23.8V291h-17V260.7z M445.3,234.3c8.3,0,14.2,3.8,17.2,8.7v-7.9h17.1V291h-17.1v-7.9c-3.1,4.9-9,8.7-17.3,8.7
	c-13.6,0-24.5-11.2-24.5-28.8C420.7,245.3,431.6,234.3,445.3,234.3z M450.3,249.3c-6.4,0-12.2,4.8-12.2,13.7
	c0,8.9,5.8,13.9,12.2,13.9c6.5,0,12.2-4.9,12.2-13.8S456.8,249.3,450.3,249.3z M492,216.9h17.1v40.9l16.9-22.7h21.1l-23.2,28
	l23.4,27.8h-21.2l-17-23.4V291H492V216.9z M578.6,291.8c-16.4,0-28.2-11-28.2-28.7s11.6-28.7,28.2-28.7c16.3,0,27.8,10.8,27.8,27.8
	c0,1.6-0.1,3.3-0.3,5h-38.7c0.6,7.3,5.1,10.7,10.6,10.7c4.8,0,7.5-2.4,8.9-5.4h18.2C602.4,283.4,592.5,291.8,578.6,291.8z
	 M567.5,257.7h21.4c0-6.1-4.8-9.6-10.5-9.6C572.8,248,568.5,251.4,567.5,257.7z M638.1,291.8c-14.9,0-24.9-8.3-25.7-19.1h16.9
	c0.4,3.9,3.9,6.5,8.6,6.5c4.4,0,6.7-2,6.7-4.5c0-9-30.4-2.5-30.4-23c0-9.5,8.1-17.3,22.7-17.3c14.4,0,22.4,8,23.5,19h-15.8
	c-0.5-3.8-3.4-6.3-8.2-6.3c-4,0-6.2,1.6-6.2,4.3c0,8.9,30.2,2.6,30.5,23.4C660.7,284.5,652.1,291.8,638.1,291.8z"/>
<path id="chloe" d="M208.8,92c14,0,23.9,7.7,26.8,21h-18.2c-1.4-3.9-4.2-6.4-8.9-6.4c-6.1,0-10.3,4.8-10.3,14.1
	c0,9.3,4.2,14.1,10.3,14.1c4.7,0,7.4-2.3,8.9-6.4h18.2c-2.9,12.9-12.8,21-26.8,21c-16.4,0-28-11-28-28.7
	C180.8,103.1,192.4,92,208.8,92z M244.7,74.6h17.1v25.7c3.4-4.8,9.5-8.1,17.2-8.1c12.7,0,21.2,8.8,21.2,23.8v32.6h-17v-30.3
	c0-7.6-4.2-11.8-10.7-11.8s-10.7,4.2-10.7,11.8v30.3h-17.1V74.6z M312.1,74.6h17.1v74h-17.1V74.6z M367,149.4
	c-16.4,0-28.8-11-28.8-28.7c0-17.7,12.7-28.7,29-28.7c16.4,0,29,11,29,28.7C396.2,138.4,383.4,149.4,367,149.4z M367,134.6
	c6.1,0,11.8-4.5,11.8-13.9c0-9.5-5.6-13.9-11.6-13.9c-6.2,0-11.6,4.4-11.6,13.9C355.6,130.1,360.8,134.6,367,134.6z M430.1,149.4
	c-16.4,0-28.2-11-28.2-28.7c0-17.7,11.6-28.7,28.2-28.7c16.3,0,27.8,10.8,27.8,27.8c0,1.6-0.1,3.3-0.3,5h-38.7
	c0.6,7.3,5.1,10.7,10.6,10.7c4.8,0,7.5-2.4,8.9-5.4h18.2C453.9,141,444,149.4,430.1,149.4z M419,115.3h21.4c0-6.1-4.8-9.6-10.5-9.6
	C424.3,105.7,420,109.1,419,115.3z"/>
<path id="doodle_1_" class="st1" d="M180.1,313c-14.1-3.1-7.7-16.7-6.8-32.2c0.5-8.9,1.5-17.8,3.2-26.5c0.9-4.4,2.5-8.7,4.4-12.7
	c0.5-1.1,1.6-2.4,2.8-2.5c28.1-1.8,65,20.1,87.3,30"/>
<path id="doodle" class="st2" d="M206.1,302c-14.1-3.1-7.7-16.7-6.8-32.2c0.5-8.9,1.5-17.8,3.2-26.5c0.9-4.4,2.5-8.7,4.4-12.7
	c0.5-1.1,1.6-2.4,2.8-2.5c28.1-1.8,65,20.1,87.3,30"/>
</svg>
