<?xml version="1.0" encoding="utf-8"?>
<!-- Generator: Adobe Illustrator 23.0.3, SVG Export Plug-In . SVG Version: 6.00 Build 0)  -->
<svg version="1.1" id="chloe_svg" xmlns="http://www.w3.org/2000/svg" xmlns:xlink="http://www.w3.org/1999/xlink" x="0px"
	 y="0px" width="800px" height="500px" viewBox="0 0 800 500" style="enable-background:new 0 0 800 500;" xml:space="preserve">
<path id="doodle" style="display:none;fill:none;stroke:#00BEAA;stroke-width:12;stroke-linecap:round;stroke-linejoin:round;stroke-miterlimit:10;" d="
	M359,287c-14.1-3.1-7.7-16.7-6.8-32.2c0.5-8.9,1.5-17.8,3.2-26.5c0.9-4.4,2.5-8.7,4.4-12.7c0.5-1.1,1.6-2.4,2.8-2.5
	c28.1-1.8,65,20.1,87.3,30"/>
<path id="waves" style="display:none;fill:#FFFFFF;" d="M202.2,334.9h10.3l4.7,23.9l5.6-23.9h10.9l5.7,23.8l4.7-23.8h9.7l-9.1,33.5
	h-11.3l-5.3-21.7l-5.5,21.7h-11.3L202.2,334.9z M270.4,334.4c5,0,8.5,2.3,10.3,5.2v-4.7H291v33.5h-10.3v-4.7
	c-1.9,2.9-5.4,5.2-10.4,5.2c-8.2,0-14.7-6.7-14.7-17.3C255.6,341,262.2,334.4,270.4,334.4z M273.4,343.4c-3.8,0-7.3,2.9-7.3,8.2
	s3.5,8.3,7.3,8.3c3.9,0,7.3-2.9,7.3-8.3S277.3,343.4,273.4,343.4z M306.2,334.9l7.3,23.9l7.3-23.9h10.9l-11.9,33.5h-12.7l-11.9-33.5
	H306.2z M350.9,368.9c-9.8,0-16.9-6.6-16.9-17.2s7-17.2,16.9-17.2c9.8,0,16.7,6.5,16.7,16.7c0,1-0.1,2-0.2,3h-23.2
	c0.4,4.4,3.1,6.4,6.4,6.4c2.9,0,4.5-1.4,5.3-3.2h10.9C365.1,363.8,359.2,368.9,350.9,368.9z M344.2,348.4H357c0-3.7-2.9-5.8-6.3-5.8
	C347.4,342.7,344.8,344.7,344.2,348.4z M386.6,368.9c-8.9,0-14.9-5-15.4-11.5h10.1c0.2,2.3,2.3,3.9,5.2,3.9c2.6,0,4-1.2,4-2.7
	c0-5.4-18.2-1.5-18.2-13.8c0-5.7,4.9-10.4,13.6-10.4c8.6,0,13.4,4.8,14.1,11.4h-9.5c-0.3-2.3-2-3.8-4.9-3.8c-2.4,0-3.7,1-3.7,2.6
	c0,5.3,18.1,1.6,18.3,14C400.1,364.5,395,368.9,386.6,368.9z"/>
<path id="makes" style="display:none;fill:#FFFFFF;" d="M431.9,242.2c0-4.4-2.5-6.8-6.4-6.8s-6.4,2.4-6.4,6.8v18.2h-10.2v-18.2
	c0-4.4-2.5-6.8-6.4-6.8c-3.9,0-6.4,2.4-6.4,6.8v18.2h-10.3v-33.5H396v4.2c2-2.7,5.4-4.6,9.8-4.6c5,0,9.1,2.2,11.4,6.2
	c2.2-3.5,6.4-6.2,11.3-6.2c8.3,0,13.6,5.3,13.6,14.3v19.6h-10.2V242.2z M462,226.4c5,0,8.5,2.3,10.3,5.2v-4.7h10.3v33.5h-10.3v-4.7
	c-1.9,2.9-5.4,5.2-10.4,5.2c-8.2,0-14.7-6.7-14.7-17.3C447.2,233,453.8,226.4,462,226.4z M465,235.4c-3.8,0-7.3,2.9-7.3,8.2
	s3.5,8.3,7.3,8.3c3.9,0,7.3-2.9,7.3-8.3S468.9,235.4,465,235.4z M490,216h10.3v24.5l10.1-13.6h12.7l-13.9,16.8l14,16.7h-12.7
	l-10.2-14v14H490V216z M542,260.9c-9.8,0-16.9-6.6-16.9-17.2c0-10.6,7-17.2,16.9-17.2c9.8,0,16.7,6.5,16.7,16.7c0,1-0.1,2-0.2,3
	h-23.2c0.4,4.4,3.1,6.4,6.4,6.4c2.9,0,4.5-1.4,5.3-3.2h10.9C556.2,255.8,550.3,260.9,542,260.9z M535.3,240.4h12.8
	c0-3.7-2.9-5.8-6.3-5.8C538.5,234.7,535.9,236.7,535.3,240.4z M577.7,260.9c-8.9,0-14.9-5-15.4-11.5h10.1c0.2,2.3,2.3,3.9,5.2,3.9
	c2.6,0,4-1.2,4-2.7c0-5.4-18.2-1.5-18.2-13.8c0-5.7,4.9-10.4,13.6-10.4c8.6,0,13.4,4.8,14.1,11.4h-9.5c-0.3-2.3-2-3.8-4.9-3.8
	c-2.4,0-3.7,1-3.7,2.6c0,5.3,18.1,1.6,18.3,14C591.2,256.5,586.1,260.9,577.7,260.9z"/>
<path id="chloe" d="M333.7,238c8.4,0,14.3,4.6,16.1,12.6h-10.9c-0.8-2.3-2.5-3.8-5.3-3.8c-3.7,0-6.2,2.9-6.2,8.5
	c0,5.6,2.5,8.5,6.2,8.5c2.8,0,4.4-1.4,5.3-3.8h10.9c-1.7,7.7-7.7,12.6-16.1,12.6c-9.8,0-16.8-6.6-16.8-17.2
	C316.9,244.7,323.8,238,333.7,238z M355.2,227.6h10.3V243c2-2.9,5.7-4.9,10.3-4.9c7.6,0,12.7,5.3,12.7,14.3V272h-10.2v-18.2
	c0-4.6-2.5-7.1-6.4-7.1c-3.9,0-6.4,2.5-6.4,7.1V272h-10.3V227.6z M395.7,227.6h10.3V272h-10.3V227.6z M428.6,272.4
	c-9.8,0-17.3-6.6-17.3-17.2s7.6-17.2,17.4-17.2c9.8,0,17.4,6.6,17.4,17.2S438.4,272.4,428.6,272.4z M428.6,263.6
	c3.7,0,7.1-2.7,7.1-8.3c0-5.7-3.4-8.3-7-8.3c-3.7,0-7,2.6-7,8.3C421.8,260.9,424.9,263.6,428.6,263.6z M466.4,272.4
	c-9.8,0-16.9-6.6-16.9-17.2s7-17.2,16.9-17.2c9.8,0,16.7,6.5,16.7,16.7c0,1-0.1,2-0.2,3h-23.2c0.4,4.4,3.1,6.4,6.4,6.4
	c2.9,0,4.5-1.4,5.3-3.2h10.9C480.7,267.4,474.8,272.4,466.4,272.4z M459.8,252h12.8c0-3.7-2.9-5.8-6.3-5.8
	C463,246.2,460.4,248.3,459.8,252z"/>
</svg>
