<?xml version="1.0" encoding="utf-8"?>
<!-- Generator: Adobe Illustrator 23.0.3, SVG Export Plug-In . SVG Version: 6.00 Build 0)  -->
<svg version="1.1" id="chloe_svg" xmlns="http://www.w3.org/2000/svg" xmlns:xlink="http://www.w3.org/1999/xlink" x="0px" y="0px"
	 width="800px" height="600px" viewBox="0 0 800 600" style="enable-background:new 0 0 800 600;" xml:space="preserve">
<g>
	
		<path id="greenShade" style="fill:none;stroke:#000000;stroke-width:16;stroke-linecap:round;stroke-linejoin:round;stroke-miterlimit:10;" d="
		M644.6,438.3c0-40.1,0.8-98.1-4.2-134.2c-1.7-12.5-8.1-24.2-12.8-35.9c-27.9-69.2-46.5-78.8-113.3-107.3c-13.5-5.7-29.8-7-44.1-5.1
		c-25.1,3.2-45.1,21.5-63.1,37.8"/>
	
		<path id="greenLine" style="fill:none;stroke:#00BFAC;stroke-width:16;stroke-linecap:round;stroke-linejoin:round;stroke-miterlimit:10;" d="
		M612.9,415.1c0-40.1,0.8-98.1-4.2-134.2c-1.7-12.5-8.1-24.2-12.8-35.9c-27.9-69.2-46.5-78.8-113.3-107.3c-13.5-5.7-29.8-7-44.1-5.1
		c-25.1,3.2-45.1,21.5-63.1,37.8"/>
</g>
<g>
	
		<path id="pinkShade" style="fill:none;stroke:#000000;stroke-width:16;stroke-linecap:round;stroke-linejoin:round;stroke-miterlimit:10;" d="
		M190.1,570.9c-23.5-5.2-12.8-27.8-11.3-53.7c0.8-14.8,2.5-29.7,5.3-44.2c1.5-7.3,4.2-14.5,7.3-21.2c0.8-1.8,2.7-4,4.7-4.2
		c46.9-3,108.4,33.5,145.6,50"/>
	
		<path id="pinkLine" style="fill:none;stroke:#CA14BA;stroke-width:16;stroke-linecap:round;stroke-linejoin:round;stroke-miterlimit:10;" d="
		M233.4,552.5c-23.5-5.2-12.8-27.8-11.3-53.7c0.8-14.8,2.5-29.7,5.3-44.2c1.5-7.3,4.2-14.5,7.3-21.2c0.8-1.8,2.7-4,4.7-4.2
		c46.9-3,108.4,33.5,145.6,50"/>
</g>
<path style="fill:#BF3D00;" d="M195.7,55.9l112.5,88.2c0,0-31.1,117.6-111.2,97s-46.6-71-92.4-88.5S24.9,80.6,24.9,80.6L195.7,55.9z
	"/>
<rect x="52.5" y="-171.2" style="fill:none;" width="145.6" height="134.2"/>
<text transform="matrix(1 0 0 1 52.5434 -158.3772)" style="display:none;"><tspan x="0" y="0" style="display:inline; font-family:'Courier-Bold'; font-size:20px; letter-spacing:8;">chloe </tspan><tspan x="0" y="30" style="display:inline; font-family:'Courier-Bold'; font-size:20px; letter-spacing:8;">makes </tspan><tspan x="0" y="60" style="display:inline; font-family:'Courier-Bold'; font-size:20px; letter-spacing:8;">waves </tspan><tspan x="0" y="90" style="display:inline; font-family:'Courier-Bold'; font-size:20px; letter-spacing:8;">in </tspan><tspan x="0" y="120" style="display:inline; font-family:'Courier-Bold'; font-size:20px; letter-spacing:8;">toronto</tspan></text>
<g id="words" style="display:none;">
	<path style="display:inline;" d="M320.6,229.6c0.2-0.6,0.4-1,0.8-1.2c0.4-0.3,0.8-0.4,1.4-0.4c0.8,0,1.3,0.2,1.6,0.7
		c0.3,0.5,0.5,1.3,0.5,2.4v3.5c0,0.9-0.2,1.5-0.5,1.9c-0.4,0.4-0.9,0.6-1.6,0.6c-0.5,0-1-0.1-1.3-0.4c-0.4-0.2-0.7-0.7-1.1-1.4
		c-0.6-1-1.3-1.7-2.2-2.1c-0.9-0.5-2.1-0.7-3.4-0.7c-1.7,0-3,0.5-4.1,1.6c-1.1,1.1-1.6,2.5-1.6,4.2c0,1.8,0.5,3.2,1.6,4.3
		c1.1,1.1,2.6,1.6,4.4,1.6c1.7,0,3.3-0.5,5-1.4c1.7-0.9,2.7-1.4,3-1.4c0.5,0,1,0.2,1.3,0.6c0.3,0.4,0.5,0.9,0.5,1.5
		c0,1.3-1,2.5-3,3.6s-4.4,1.6-7.2,1.6c-3.4,0-6.2-1-8.4-2.9s-3.2-4.4-3.2-7.5c0-3,1.1-5.4,3.2-7.4c2.1-2,4.8-3,8.1-3
		c1.1,0,2.2,0.1,3.2,0.4C318.5,228.6,319.6,229.1,320.6,229.6z"/>
	<path style="display:inline;" d="M354.5,230.6c0.5-0.9,1.2-1.5,2.1-2c0.9-0.5,2-0.7,3.3-0.7c2.2,0,4,0.7,5.2,2
		c1.2,1.3,1.8,3.2,1.8,5.6v8h0.4c0.8,0,1.3,0.2,1.7,0.6c0.4,0.4,0.6,1,0.6,1.7c0,0.8-0.2,1.4-0.6,1.8c-0.4,0.4-1.1,0.6-2.1,0.6h-5.3
		c-1,0-1.6-0.2-2-0.6c-0.4-0.4-0.6-1-0.6-1.8c0-0.8,0.2-1.3,0.6-1.7s1-0.6,1.7-0.6h0.3v-6.2c0-1.8-0.2-3.1-0.7-3.8
		c-0.4-0.7-1.2-1.1-2.3-1.1c-1.1,0-2.1,0.5-2.9,1.4c-0.8,0.9-1.2,2.1-1.2,3.5v6.2h0.3c0.8,0,1.3,0.2,1.7,0.6c0.4,0.4,0.6,1,0.6,1.7
		c0,0.8-0.2,1.4-0.6,1.8c-0.4,0.4-1.1,0.6-2,0.6h-5.3c-1,0-1.7-0.2-2.1-0.5c-0.4-0.4-0.6-1-0.6-1.8c0-0.8,0.2-1.3,0.6-1.7
		c0.4-0.4,1-0.6,1.7-0.6h0.4V225h-0.4c-0.8,0-1.3-0.2-1.7-0.6c-0.4-0.4-0.6-1-0.6-1.8c0-0.8,0.2-1.4,0.6-1.8
		c0.4-0.4,1.1-0.6,2.1-0.6h4c0.5,0,0.8,0.1,1,0.3c0.2,0.2,0.3,0.6,0.3,1.1V230.6z"/>
	<path style="display:inline;" d="M404.2,243.5h4.6c1,0,1.7,0.2,2.1,0.5c0.4,0.4,0.6,0.9,0.6,1.8c0,0.8-0.2,1.4-0.6,1.8
		c-0.4,0.4-1.1,0.6-2.1,0.6h-14.5c-1,0-1.6-0.2-2-0.6c-0.4-0.4-0.6-1-0.6-1.8c0-0.8,0.2-1.4,0.6-1.8c0.4-0.3,1.1-0.5,2.1-0.5h4.6
		V225h-2.3c-1,0-1.7-0.2-2.1-0.6c-0.4-0.4-0.6-1-0.6-1.8c0-0.8,0.2-1.4,0.6-1.8c0.4-0.4,1.1-0.6,2.1-0.6h6.4c0.4,0,0.7,0.1,0.9,0.2
		c0.2,0.2,0.3,0.4,0.3,0.7V243.5z"/>
	<path style="display:inline;" d="M445.3,228c3.5,0,6.3,1,8.4,2.9c2.1,1.9,3.2,4.4,3.2,7.4c0,3-1.1,5.5-3.2,7.5
		c-2.1,1.9-4.9,2.9-8.4,2.9c-3.4,0-6.2-1-8.4-2.9c-2.1-1.9-3.2-4.4-3.2-7.5c0-3,1.1-5.5,3.2-7.4S441.8,228,445.3,228z M445.3,232.5
		c-1.7,0-3,0.5-4.1,1.6c-1.1,1.1-1.6,2.5-1.6,4.2c0,1.7,0.5,3.1,1.6,4.2c1.1,1.1,2.4,1.7,4.1,1.7c1.7,0,3-0.6,4.1-1.7
		c1.1-1.1,1.6-2.5,1.6-4.2c0-1.7-0.5-3.1-1.6-4.2C448.3,233,446.9,232.5,445.3,232.5z"/>
	<path style="display:inline;" d="M483.1,239.6c0.4,1.6,1.1,2.8,2.1,3.5c1.1,0.8,2.5,1.2,4.2,1.2c1.8,0,3.5-0.4,5.2-1.3
		c1.7-0.9,2.8-1.3,3.1-1.3c0.5,0,1,0.2,1.3,0.6c0.3,0.4,0.5,0.9,0.5,1.5c0,1.3-1,2.5-3,3.5c-2,1-4.4,1.4-7.3,1.4
		c-3.4,0-6.2-1-8.4-2.9s-3.2-4.4-3.2-7.5c0-3,1.1-5.5,3.2-7.4s5-2.9,8.4-2.9c3.1,0,5.6,0.9,7.6,2.7c2,1.8,3,4,3,6.7
		c0,0.8-0.2,1.4-0.6,1.7s-1.2,0.5-2.5,0.5H483.1z M494.6,236.3c-0.2-1.3-0.9-2.3-1.9-3.1s-2.3-1.1-3.9-1.1c-1.5,0-2.8,0.3-3.7,1
		c-0.9,0.7-1.6,1.7-2,3.1H494.6z"/>
	<path style="display:inline;" d="M315.6,295.4c0.6-0.6,1.3-1.1,2.1-1.5c0.8-0.3,1.6-0.5,2.5-0.5c1.9,0,3.3,0.6,4.2,1.7
		s1.3,3.1,1.3,5.7v8.1h0.3c0.7,0,1.2,0.2,1.5,0.6c0.3,0.4,0.5,1,0.5,1.7c0,0.9-0.2,1.5-0.5,1.8c-0.3,0.4-0.9,0.5-1.8,0.5H322
		c-0.4,0-0.7-0.1-0.9-0.2c-0.2-0.2-0.3-0.4-0.3-0.7v-12c0-1-0.1-1.7-0.4-2.1c-0.3-0.5-0.7-0.7-1.3-0.7c-0.7,0-1.3,0.3-1.7,0.9
		c-0.4,0.6-0.6,1.5-0.6,2.7v7.5h0.3c0.7,0,1.2,0.2,1.5,0.6c0.3,0.4,0.5,1,0.5,1.7c0,0.9-0.2,1.5-0.5,1.8c-0.4,0.4-1,0.5-1.8,0.5
		h-3.6c-0.4,0-0.7-0.1-0.9-0.2c-0.2-0.2-0.3-0.4-0.3-0.7v-12c0-1-0.1-1.7-0.4-2.1c-0.3-0.5-0.7-0.7-1.3-0.7c-0.7,0-1.3,0.3-1.7,1
		c-0.4,0.6-0.6,1.5-0.6,2.7v7.5h0.3c0.7,0,1.2,0.2,1.5,0.6c0.3,0.4,0.5,1,0.5,1.7c0,0.9-0.2,1.5-0.5,1.8c-0.4,0.4-1,0.5-1.8,0.5
		h-4.8c-0.8,0-1.4-0.2-1.8-0.6s-0.5-1-0.5-1.8c0-0.8,0.2-1.3,0.5-1.7c0.3-0.4,0.8-0.6,1.5-0.6h0.3v-10.4h-0.3
		c-0.7,0-1.2-0.2-1.5-0.6c-0.3-0.4-0.5-1-0.5-1.7c0-0.8,0.2-1.4,0.5-1.8c0.4-0.4,1-0.5,1.8-0.5h2.9c0.6,0,1,0.1,1.2,0.4
		s0.3,0.7,0.3,1.4c0.5-0.7,1.2-1.3,1.9-1.7c0.7-0.4,1.6-0.6,2.5-0.6c0.8,0,1.5,0.2,2.2,0.5C314.6,294.3,315.2,294.7,315.6,295.4z"/>
	<path style="display:inline;" d="M366.6,309h0.3c0.8,0,1.4,0.2,1.8,0.6c0.4,0.4,0.6,1,0.6,1.7c0,0.8-0.2,1.4-0.6,1.8
		c-0.4,0.4-1.1,0.5-2.1,0.5h-2c-0.7,0-1.2-0.1-1.6-0.4c-0.3-0.3-0.6-0.8-0.9-1.5c-1.2,0.8-2.4,1.4-3.8,1.8c-1.3,0.4-2.7,0.6-4,0.6
		c-2.3,0-4.1-0.6-5.4-1.7c-1.3-1.1-2-2.7-2-4.7c0-2.1,0.8-3.8,2.5-5c1.7-1.2,4.1-1.8,7.1-1.8c0.7,0,1.4,0,2.2,0.1
		c0.8,0.1,1.6,0.2,2.6,0.3v-0.4c0-1.3-0.3-2.3-0.9-2.9c-0.6-0.7-1.5-1-2.7-1c-0.9,0-2.1,0.3-3.6,1c-1.5,0.7-2.5,1-3.2,1
		c-0.7,0-1.2-0.2-1.6-0.6c-0.4-0.4-0.6-0.9-0.6-1.5c0-1.2,0.8-2.1,2.5-2.7c1.7-0.7,4-1,6.9-1c3,0,5.2,0.6,6.5,1.7
		c1.3,1.2,2,3.1,2,5.9V309z M361.5,304.9c-0.7-0.2-1.4-0.3-2-0.4c-0.6-0.1-1.2-0.1-1.7-0.1c-1.6,0-2.8,0.3-3.7,0.8
		c-0.9,0.5-1.3,1.3-1.3,2.2c0,0.8,0.3,1.5,0.9,1.9c0.6,0.4,1.4,0.7,2.5,0.7c1,0,1.9-0.1,2.8-0.4c0.9-0.3,1.7-0.7,2.6-1.3V304.9z"/>
	<path style="display:inline;" d="M398.2,302.1l4.5-4.1c-0.4-0.1-0.7-0.3-0.9-0.6c-0.2-0.2-0.2-0.6-0.2-1.1c0-0.9,0.2-1.5,0.6-1.8
		c0.4-0.4,1.1-0.5,2-0.5h4.7c1,0,1.7,0.2,2.1,0.5c0.4,0.4,0.6,1,0.6,1.8c0,0.6-0.1,1.1-0.4,1.4c-0.2,0.3-0.7,0.5-1.4,0.6
		c-0.7,0.1-1.3,0.3-1.8,0.6c-0.5,0.3-1.1,0.8-1.8,1.5l-1.5,1.6l5.6,7h0.5c0.8,0,1.4,0.2,1.9,0.6c0.4,0.4,0.6,1,0.6,1.7
		c0,0.8-0.2,1.4-0.6,1.8c-0.4,0.4-1.1,0.6-2.1,0.6h-5.2c-0.9,0-1.6-0.2-2-0.5c-0.4-0.3-0.6-0.8-0.6-1.5c0-0.5,0.1-0.9,0.4-1.2
		c0.2-0.3,0.6-0.6,1.2-0.8l-3.5-4.2l-2.6,2.4v4.4c0,0.5-0.1,0.9-0.3,1.1c-0.2,0.2-0.5,0.3-1,0.3h-3.8c-0.9,0-1.6-0.2-2-0.6
		s-0.6-1-0.6-1.8c0-0.8,0.2-1.3,0.6-1.7c0.4-0.4,1-0.6,1.7-0.6h0.3v-18.5h-0.3c-0.8,0-1.3-0.2-1.7-0.6c-0.4-0.4-0.6-1-0.6-1.7
		c0-0.8,0.2-1.4,0.6-1.8c0.4-0.4,1.1-0.6,2-0.6h3.8c0.5,0,0.8,0.1,1,0.3c0.2,0.2,0.3,0.6,0.3,1.1V302.1z"/>
	<path style="display:inline;" d="M439.5,305.1c0.4,1.6,1.1,2.8,2.1,3.5c1.1,0.8,2.5,1.2,4.2,1.2c1.8,0,3.5-0.4,5.2-1.3
		c1.7-0.9,2.8-1.3,3.1-1.3c0.5,0,1,0.2,1.3,0.6c0.3,0.4,0.5,0.9,0.5,1.5c0,1.3-1,2.5-3,3.5c-2,1-4.4,1.4-7.3,1.4
		c-3.4,0-6.2-1-8.4-2.9s-3.2-4.4-3.2-7.5c0-3,1.1-5.5,3.2-7.4s5-2.9,8.4-2.9c3.1,0,5.6,0.9,7.6,2.7c2,1.8,3,4,3,6.7
		c0,0.8-0.2,1.4-0.6,1.7c-0.4,0.3-1.2,0.5-2.5,0.5H439.5z M451,301.7c-0.2-1.3-0.9-2.3-1.9-3.1c-1-0.7-2.3-1.1-3.9-1.1
		c-1.5,0-2.8,0.3-3.7,1c-0.9,0.7-1.6,1.7-2,3.1H451z"/>
	<path style="display:inline;" d="M483.3,313.4c-0.4,0.3-0.7,0.5-1.1,0.7c-0.4,0.1-0.8,0.2-1.2,0.2c-0.6,0-1-0.2-1.3-0.5
		c-0.2-0.3-0.4-0.9-0.4-1.8v-2.8c0-0.9,0.2-1.6,0.5-2c0.3-0.4,0.9-0.6,1.6-0.6c0.8,0,1.5,0.4,2,1.2c0.3,0.4,0.6,0.8,0.8,1
		c0.7,0.6,1.5,1.1,2.4,1.4c0.9,0.3,2,0.5,3.2,0.5c1,0,1.8-0.2,2.5-0.6c0.6-0.4,0.9-0.9,0.9-1.6c0-1.2-1.6-1.9-4.9-2.4
		c-0.7-0.1-1.3-0.2-1.7-0.2c-2.5-0.3-4.3-1-5.5-2c-1.2-1-1.8-2.3-1.8-4c0-2,0.7-3.6,2.2-4.6s3.5-1.6,6.2-1.6c0.9,0,1.9,0.1,2.8,0.2
		c1,0.1,2,0.4,3,0.7c0.3-0.4,0.6-0.6,0.9-0.8c0.3-0.2,0.7-0.3,1.1-0.3c0.6,0,1,0.2,1.3,0.5c0.3,0.4,0.5,0.9,0.5,1.6v2.6
		c0,0.6-0.2,1.1-0.5,1.4c-0.3,0.3-0.8,0.5-1.3,0.5c-0.6,0-1.6-0.5-3-1.5c-1.4-1-2.8-1.5-4.3-1.5c-1.1,0-2,0.2-2.6,0.5
		c-0.6,0.4-0.9,0.9-0.9,1.5c0,1,1.3,1.7,3.8,2c0.7,0.1,1.3,0.2,1.7,0.2c3.2,0.5,5.4,1.2,6.6,2.1c1.2,0.9,1.8,2.3,1.8,4.1
		c0,2.1-0.8,3.8-2.4,5c-1.6,1.2-3.8,1.8-6.7,1.8c-1.1,0-2.2-0.1-3.3-0.2C485.3,313.9,484.3,313.7,483.3,313.4z"/>
	<path style="display:inline;" d="M307.7,364.1l1.7,10.5l2.3-8.1c0.2-0.9,0.5-1.4,0.9-1.7c0.4-0.3,0.9-0.4,1.6-0.4s1.3,0.1,1.6,0.4
		c0.4,0.3,0.7,0.8,0.9,1.7l2.4,8.1l1.6-10.5h-0.4c-0.8,0-1.3-0.2-1.7-0.6c-0.4-0.4-0.6-1-0.6-1.7c0-0.8,0.2-1.4,0.6-1.8
		c0.4-0.4,1.1-0.5,2.1-0.5h5c1,0,1.7,0.2,2.1,0.5c0.4,0.4,0.6,1,0.6,1.8c0,0.8-0.2,1.4-0.6,1.7c-0.4,0.4-1,0.6-1.7,0.6h-0.4
		l-2.7,13.5c-0.1,0.7-0.5,1.3-1,1.6c-0.5,0.3-1.3,0.5-2.2,0.5c-1,0-1.7-0.2-2.2-0.5c-0.5-0.3-0.9-0.9-1.1-1.6l-2.5-8.3l-2.2,8.3
		c-0.2,0.7-0.6,1.2-1.1,1.6c-0.6,0.3-1.3,0.5-2.3,0.5c-1,0-1.7-0.2-2.2-0.5c-0.5-0.3-0.8-0.9-1-1.6l-2.7-13.5h-0.4
		c-0.8,0-1.3-0.2-1.7-0.6s-0.6-1-0.6-1.7c0-0.8,0.2-1.4,0.6-1.8c0.4-0.4,1.1-0.5,2.1-0.5h5.1c1,0,1.7,0.2,2.1,0.5
		c0.4,0.4,0.6,1,0.6,1.8c0,0.8-0.2,1.4-0.6,1.7c-0.4,0.4-1,0.6-1.7,0.6H307.7z"/>
	<path style="display:inline;" d="M366.6,374.5h0.3c0.8,0,1.4,0.2,1.8,0.6c0.4,0.4,0.6,1,0.6,1.7c0,0.8-0.2,1.4-0.6,1.8
		c-0.4,0.4-1.1,0.5-2.1,0.5h-2c-0.7,0-1.2-0.1-1.6-0.4c-0.3-0.3-0.6-0.8-0.9-1.5c-1.2,0.8-2.4,1.4-3.8,1.8c-1.3,0.4-2.7,0.6-4,0.6
		c-2.3,0-4.1-0.6-5.4-1.7c-1.3-1.1-2-2.7-2-4.7c0-2.1,0.8-3.8,2.5-5c1.7-1.2,4.1-1.8,7.1-1.8c0.7,0,1.4,0,2.2,0.1
		c0.8,0.1,1.6,0.2,2.6,0.3v-0.4c0-1.3-0.3-2.3-0.9-2.9c-0.6-0.7-1.5-1-2.7-1c-0.9,0-2.1,0.3-3.6,1c-1.5,0.7-2.5,1-3.2,1
		c-0.7,0-1.2-0.2-1.6-0.6c-0.4-0.4-0.6-0.9-0.6-1.5c0-1.2,0.8-2.1,2.5-2.7c1.7-0.7,4-1,6.9-1c3,0,5.2,0.6,6.5,1.7
		c1.3,1.2,2,3.1,2,5.9V374.5z M361.5,370.4c-0.7-0.2-1.4-0.3-2-0.4c-0.6-0.1-1.2-0.1-1.7-0.1c-1.6,0-2.8,0.3-3.7,0.8
		c-0.9,0.5-1.3,1.3-1.3,2.2c0,0.8,0.3,1.5,0.9,1.9c0.6,0.4,1.4,0.7,2.5,0.7c1,0,1.9-0.1,2.8-0.4c0.9-0.3,1.7-0.7,2.6-1.3V370.4z"/>
	<path style="display:inline;" d="M397.8,364.1l3.8,9.1l4-9.1h-0.3c-0.8,0-1.4-0.2-1.8-0.6s-0.6-1-0.6-1.7c0-0.8,0.2-1.4,0.6-1.8
		s1.1-0.5,2.1-0.5h5c1,0,1.7,0.2,2.1,0.5c0.4,0.4,0.6,1,0.6,1.8c0,0.8-0.2,1.4-0.6,1.7c-0.4,0.4-1,0.6-1.7,0.6h-0.4l-6.3,13.5
		c-0.5,1-0.9,1.6-1.3,1.8c-0.4,0.2-1,0.3-1.7,0.3c-1.4,0-2.4-0.6-2.9-1.8c-0.1-0.1-0.1-0.2-0.1-0.3l-5.9-13.5h-0.3
		c-0.8,0-1.4-0.2-1.8-0.6c-0.4-0.4-0.6-1-0.6-1.7c0-0.8,0.2-1.4,0.6-1.8c0.4-0.4,1.1-0.5,2.1-0.5h5.4c1,0,1.7,0.2,2.1,0.5
		c0.4,0.4,0.6,1,0.6,1.8c0,0.8-0.2,1.4-0.6,1.7s-1,0.6-1.7,0.6H397.8z"/>
	<path style="display:inline;" d="M439.5,370.6c0.4,1.6,1.1,2.8,2.1,3.5c1.1,0.8,2.5,1.2,4.2,1.2c1.8,0,3.5-0.4,5.2-1.3
		c1.7-0.9,2.8-1.3,3.1-1.3c0.5,0,1,0.2,1.3,0.6c0.3,0.4,0.5,0.9,0.5,1.5c0,1.3-1,2.5-3,3.5c-2,1-4.4,1.4-7.3,1.4
		c-3.4,0-6.2-1-8.4-2.9s-3.2-4.4-3.2-7.5c0-3,1.1-5.5,3.2-7.4s5-2.9,8.4-2.9c3.1,0,5.6,0.9,7.6,2.7c2,1.8,3,4,3,6.7
		c0,0.8-0.2,1.4-0.6,1.7c-0.4,0.3-1.2,0.5-2.5,0.5H439.5z M451,367.2c-0.2-1.3-0.9-2.3-1.9-3.1s-2.3-1.1-3.9-1.1
		c-1.5,0-2.8,0.3-3.7,1c-0.9,0.7-1.6,1.7-2,3.1H451z"/>
	<path style="display:inline;" d="M483.3,378.9c-0.4,0.3-0.7,0.5-1.1,0.7c-0.4,0.1-0.8,0.2-1.2,0.2c-0.6,0-1-0.2-1.3-0.5
		c-0.2-0.3-0.4-0.9-0.4-1.8v-2.8c0-0.9,0.2-1.6,0.5-2c0.3-0.4,0.9-0.6,1.6-0.6c0.8,0,1.5,0.4,2,1.2c0.3,0.4,0.6,0.8,0.8,1
		c0.7,0.6,1.5,1.1,2.4,1.4c0.9,0.3,2,0.5,3.2,0.5c1,0,1.8-0.2,2.5-0.6c0.6-0.4,0.9-0.9,0.9-1.6c0-1.2-1.6-1.9-4.9-2.4
		c-0.7-0.1-1.3-0.2-1.7-0.2c-2.5-0.3-4.3-1-5.5-2c-1.2-1-1.8-2.3-1.8-4c0-2,0.7-3.6,2.2-4.6s3.5-1.6,6.2-1.6c0.9,0,1.9,0.1,2.8,0.2
		c1,0.1,2,0.4,3,0.7c0.3-0.4,0.6-0.6,0.9-0.8c0.3-0.2,0.7-0.3,1.1-0.3c0.6,0,1,0.2,1.3,0.5c0.3,0.4,0.5,0.9,0.5,1.6v2.6
		c0,0.6-0.2,1.1-0.5,1.4c-0.3,0.3-0.8,0.5-1.3,0.5c-0.6,0-1.6-0.5-3-1.5c-1.4-1-2.8-1.5-4.3-1.5c-1.1,0-2,0.2-2.6,0.5
		c-0.6,0.4-0.9,0.9-0.9,1.5c0,1,1.3,1.7,3.8,2c0.7,0.1,1.3,0.2,1.7,0.2c3.2,0.5,5.4,1.2,6.6,2.1c1.2,0.9,1.8,2.3,1.8,4.1
		c0,2.1-0.8,3.8-2.4,5c-1.6,1.2-3.8,1.8-6.7,1.8c-1.1,0-2.2-0.1-3.3-0.2C485.3,379.4,484.3,379.1,483.3,378.9z"/>
</g>
<g id="chloe_1_">
	<path d="M335.6,374.8c7.4,0,13,4.2,14.7,10.9H342c-1.3-2.7-3.6-4-6.5-4c-4.6,0-7.8,3.5-7.8,8.9s3.2,8.9,7.8,8.9
		c2.9,0,5.2-1.3,6.5-4h8.3c-1.8,6.7-7.3,10.8-14.7,10.8c-9.2,0-15.6-6.5-15.6-15.8S326.5,374.8,335.6,374.8z"/>
	<path d="M372.7,373.5h7.6v11.4c1.5-2.1,4.2-3.6,7.6-3.6c5.6,0,9.4,3.9,9.4,10.5v14.4h-7.5v-13.4c0-3.4-1.9-5.2-4.7-5.2
		c-2.9,0-4.7,1.9-4.7,5.2v13.4h-7.6V373.5z"/>
	<path d="M420.2,373.5h7.6v32.7h-7.6V373.5z"/>
	<path d="M462.1,406.5c-7.3,0-12.7-4.9-12.7-12.7c0-7.8,5.6-12.7,12.8-12.7c7.3,0,12.8,4.9,12.8,12.7
		C475,401.7,469.4,406.5,462.1,406.5z M462.1,400c2.7,0,5.2-2,5.2-6.1c0-4.2-2.5-6.1-5.1-6.1c-2.7,0-5.1,1.9-5.1,6.1
		C457.1,398,459.4,400,462.1,400z"/>
	<path d="M507.7,406.5c-7.3,0-12.5-4.9-12.5-12.7c0-7.8,5.1-12.7,12.5-12.7c7.2,0,12.3,4.8,12.3,12.3c0,0.7,0,1.5-0.1,2.2h-17.1
		c0.3,3.2,2.3,4.7,4.7,4.7c2.1,0,3.3-1.1,3.9-2.4h8C518.2,402.8,513.9,406.5,507.7,406.5z M502.8,391.5h9.5c0-2.7-2.1-4.2-4.6-4.2
		C505.1,387.2,503.2,388.7,502.8,391.5z"/>
</g>
<g id="chloe">
	<path style="fill:#FFFFFF;" d="M325.6,364.8c7.4,0,13,4.2,14.7,10.9H332c-1.3-2.7-3.6-4-6.5-4c-4.6,0-7.8,3.5-7.8,8.9
		s3.2,8.9,7.8,8.9c2.9,0,5.2-1.3,6.5-4h8.3c-1.8,6.7-7.3,10.8-14.7,10.8c-9.2,0-15.6-6.5-15.6-15.8S316.5,364.8,325.6,364.8z"/>
	<path style="fill:#FFFFFF;" d="M362.7,363.5h7.6v11.4c1.5-2.1,4.2-3.6,7.6-3.6c5.6,0,9.4,3.9,9.4,10.5v14.4h-7.5v-13.4
		c0-3.4-1.9-5.2-4.7-5.2c-2.9,0-4.7,1.9-4.7,5.2v13.4h-7.6V363.5z"/>
	<path style="fill:#FFFFFF;" d="M410.2,363.5h7.6v32.7h-7.6V363.5z"/>
	<path style="fill:#FFFFFF;" d="M452.1,396.5c-7.3,0-12.7-4.9-12.7-12.7c0-7.8,5.6-12.7,12.8-12.7c7.3,0,12.8,4.9,12.8,12.7
		C465,391.7,459.4,396.5,452.1,396.5z M452.1,390c2.7,0,5.2-2,5.2-6.1c0-4.2-2.5-6.1-5.1-6.1c-2.7,0-5.1,1.9-5.1,6.1
		C447.1,388,449.4,390,452.1,390z"/>
	<path style="fill:#FFFFFF;" d="M497.7,396.5c-7.3,0-12.5-4.9-12.5-12.7c0-7.8,5.1-12.7,12.5-12.7c7.2,0,12.3,4.8,12.3,12.3
		c0,0.7,0,1.5-0.1,2.2h-17.1c0.3,3.2,2.3,4.7,4.7,4.7c2.1,0,3.3-1.1,3.9-2.4h8C508.2,392.8,503.9,396.5,497.7,396.5z M492.8,381.5
		h9.5c0-2.7-2.1-4.2-4.6-4.2C495.1,377.2,493.2,378.7,492.8,381.5z"/>
</g>
</svg>
