<?xml version="1.0" encoding="utf-8"?>
<!-- Generator: Adobe Illustrator 23.0.2, SVG Export Plug-In . SVG Version: 6.00 Build 0)  -->
<svg version="1.1" id="cover" xmlns="http://www.w3.org/2000/svg" xmlns:xlink="http://www.w3.org/1999/xlink" x="0px" y="0px"
	 width="90px" height="70px" viewBox="0 0 90 70" style="enable-background:new 0 0 90 70;" xml:space="preserve">
<path id="shut" style="display:none;fill:#FFFF99;" d="M85,67c0,1.7-1.3,3-3,3H8c-1.7,0-3-1.3-3-3V15c0-1.6,1.3-3,3-3h74
	c1.7,0,3,1.4,3,3V67z"/>
<path id="front" style="fill:#FFFF99;" d="M85,67c0,1.7-1.3,3-3,3H8c-1.7,0-3-1.3-3-3L0,20c0-1.6,1.4-3,3-3h84c1.7,0,3,1.4,3,3
	L85,67z"/>
</svg>
