<?xml version="1.0" encoding="utf-8"?>
<!-- Generator: Adobe Illustrator 23.0.1, SVG Export Plug-In . SVG Version: 6.00 Build 0)  -->
<svg version="1.1" id="folder" xmlns="http://www.w3.org/2000/svg" xmlns:xlink="http://www.w3.org/1999/xlink" x="0px" y="0px"
	 width="104px" height="78px" viewBox="0 0 104 78" style="enable-background:new 0 0 104 78;" xml:space="preserve">
<g id="close">
	<path style="fill:#FFFF99;" d="M96,21.7v52H16v-52l10-10h20l9.8,10H96z"/>
	<g>
		<path style="fill:#CCCC65;" d="M45.3,13.3l9.5,9.5l0.5,0.5H56h38.3V72H17.6V22.4l9-9H45.3 M46,11.7H26l-10,10v52h80v-52H56
			L46,11.7L46,11.7z"/>
	</g>
	<g>
		<path style="fill:#CCCC65;" d="M94.3,23.3V72H17.6V23.3H94.3 M96,21.7H16v52h80V21.7L96,21.7z"/>
	</g>
</g>
<g id="open">
	<path style="fill:#FFFF99;" d="M96,21.7v52H16v-52l10-10h20l9.8,10H96z"/>
	<g>
		<path style="fill:#CCCC65;" d="M45.3,13.3l9.5,9.5l0.5,0.5H56h38.3V72H17.6V22.4l9-9H45.3 M46,11.7H26l-10,10v52h80v-52H56
			L46,11.7L46,11.7z"/>
	</g>
	<path style="fill:#FFFFFF;" d="M52,69.7l-28-28l36-37l40,41l-24,24H52z"/>
	<g>
		<path style="fill:#CCCC65;" d="M60,7.1l37.7,38.6L75.3,68H52.7L26.3,41.7L60,7.1 M60,4.7l-36,37l28,28h24l24-24L60,4.7L60,4.7z"/>
	</g>
	<path style="fill:#FFFF99;" d="M80,33.7l16,40H16l-12-40H80z"/>
	<g>
		<path style="fill:#CCCC65;" d="M78.8,35.3L93.5,72H17.2l-11-36.7H78.8 M80,33.7H4l12,40h80L80,33.7L80,33.7z"/>
	</g>
</g>
</svg>
