<svg version="1.1" class="svg _logo" xmlns="http://www.w3.org/2000/svg" xmlns:xlink="http://www.w3.org/1999/xlink" x="0" y="0" width="64" height="32" viewBox="0 0 64 32" xml:space="preserve" enable-background="new 0 0 64 32"><path d="M61.9,29.1L54.6,2.5c-0.1-0.2-0.2-0.3-0.6-0.3h-3.7c-0.2,0-0.5,0.1-0.6,0.3l-6,21.5l-6-21.5c-0.1-0.2-0.2-0.3-0.6-0.3h-3.5	c-0.2,0-0.5,0.1-0.6,0.5l-5.3,20.9l-5.2-21C22.6,2.2,22.5,2,22.2,2h-4.4c-0.2,0-0.5,0.1-0.6,0.3l-5.8,20.9L6.7,2.5	C6.7,2.2,6.5,2,6.1,2H2.6C2.3,2.1,2.2,2.1,2.1,2.3C2,2.5,2,2.6,2,2.8l7.1,26.6c0.1,0.2,0.2,0.3,0.6,0.3h3.7c0.2,0,0.5-0.1,0.6-0.3	l6-21.5l6,21.5c0.1,0.2,0.2,0.3,0.6,0.3h3.7c0.2,0,0.5-0.1,0.6-0.5l5.1-20.9l5.3,21c0.1,0.2,0.2,0.5,0.6,0.5h4.4	c0.2,0,0.5-0.1,0.6-0.3l5.8-20.9l4.8,20.9c0,0.2,0.2,0.5,0.6,0.5h3.7c0.1,0,0.3-0.1,0.5-0.2C61.9,29.4,61.9,29.3,61.9,29.1z"/></svg>
