<?xml version="1.0" encoding="utf-8"?>
<!-- Generator: Adobe Illustrator 23.0.1, SVG Export Plug-In . SVG Version: 6.00 Build 0)  -->
<svg version="1.1" id="logo" xmlns="http://www.w3.org/2000/svg" xmlns:xlink="http://www.w3.org/1999/xlink" x="0px" y="0px"
	 width="56px" height="40px" viewBox="0 0 56 40" style="enable-background:new 0 0 56 40;" xml:space="preserve">
<path d="M53.7,12.2c-0.7-3.8-2.2-6.5-4.5-7.9c-2.6-1.7-4.7-1-5.8-0.4c-1,0.5-1.8,1.3-2.5,2.5
	c-0.6-1-1.4-1.7-2.3-2.1c-1-0.6-3.2-1.3-5.8,0.4c-1,0.6-1.8,1.5-2.5,2.6c-0.2-1.4-0.4-2.2-0.4-2.3c-0.4-2-2.3-3.2-4.3-2.8
	c-2,0.4-3.2,2.3-2.8,4.3c0,0.1,1.1,5.7,1.4,11.7c0.1,3.4,0,6.3-0.5,8.5c-0.3,1.6-0.8,2.8-1.4,3.5c-0.5-0.9-1.3-3.1-1.8-7.8
	c-0.3-2.4-0.4-4.6-0.4-6.1c0-0.8,0-1.3,0-1.3c0-0.3,0-0.5-0.1-0.7c-0.2-1.8-1.7-3.2-3.6-3.2c-2,0-3.6,1.6-3.6,3.6c0,0.1,0,0.7,0,1.7
	c0,1.4-0.1,3.8-0.4,6.4c-0.5,4.7-1.3,6.9-1.8,7.9c-0.8-0.9-1.2-2.6-1.4-3.4c-0.5-2.2-0.6-5-0.5-8.4c0.3-6.1,1.4-11.7,1.4-11.8
	c0.4-2-0.9-3.9-2.8-4.3C5.6,2,3.7,3.3,3.3,5.3C3.2,5.5,2,11.5,1.7,18.1C1.3,28.2,3.2,34.3,7.5,36.9c1.3,0.8,2.5,1.1,3.6,1.1
	c1.3,0,2.3-0.4,3-0.8c1.1-0.6,2-1.5,2.7-2.8c0.7,1.1,1.6,1.9,2.5,2.4c0.6,0.4,1.7,0.8,3,0.8c1,0,2.2-0.3,3.6-1.1
	c1.3-0.8,2.4-1.9,3.3-3.4c0.1,0.6,0.2,0.9,0.2,1c0.3,1.6,1.7,2.7,3.2,2.7c0.2,0,0.4,0,0.6-0.1c1.8-0.3,2.9-2,2.6-3.8
	c0-0.1-1-5.4-1.2-11.1c-0.3-7.1,0.8-9.9,1.5-11c0.4,1,1.1,3.1,1.5,7.2c0.2,2.2,0.3,4.4,0.4,5.7c0,0.7,0,1.2,0,1.2
	c0,0.2,0,0.4,0.1,0.6c0.1,1.7,1.5,3,3.2,3c1.8,0,3.3-1.5,3.3-3.3c0-0.1,0-0.7,0-1.6c0-1.3,0.1-3.6,0.4-6c0.4-4.1,1.1-6.2,1.5-7.2
	c0.7,1.1,1.7,3.9,1.5,11c-0.2,5.7-1.2,11-1.2,11.1c-0.3,1.8,0.8,3.5,2.6,3.8c0.2,0,0.4,0.1,0.6,0.1c1.5,0,2.9-1.1,3.2-2.7
	c0-0.2,1.1-5.8,1.3-12C54.4,18,54.2,14.8,53.7,12.2z"/>
</svg>
