<?xml version="1.0" encoding="utf-8"?>
<!-- Generator: Adobe Illustrator 23.0.1, SVG Export Plug-In . SVG Version: 6.00 Build 0)  -->
<svg version="1.1" id="menu" xmlns="http://www.w3.org/2000/svg" xmlns:xlink="http://www.w3.org/1999/xlink" x="0px" y="0px" width="36px" height="32px" viewBox="0 0 36 32" style="enable-background:new 0 0 36 32;" xml:space="preserve">
<path d="M34,4.9C34,5.5,33.5,6,32.9,6H3.1C2.5,6,2,5.5,2,4.9V3.1C2,2.5,2.5,2,3.1,2h29.9C33.5,2,34,2.5,34,3.1V4.9z M34,27.1
	c0-0.6-0.5-1.1-1.1-1.1H3.1C2.5,26,2,26.5,2,27.1v1.9C2,29.5,2.5,30,3.1,30h29.9c0.6,0,1.1-0.5,1.1-1.1V27.1z M34,15.1
	c0-0.6-0.5-1.1-1.1-1.1H3.1C2.5,14,2,14.5,2,15.1v1.9C2,17.5,2.5,18,3.1,18h29.9c0.6,0,1.1-0.5,1.1-1.1V15.1z"/>
</svg>
