<?xml version="1.0" encoding="utf-8"?>
<!-- Generator: Adobe Illustrator 23.0.3, SVG Export Plug-In . SVG Version: 6.00 Build 0)  -->
<svg version="1.1" id="paul_svg" xmlns="http://www.w3.org/2000/svg" xmlns:xlink="http://www.w3.org/1999/xlink" x="0px" y="0px"
	 width="800px" height="600px" viewBox="0 0 800 600" style="enable-background:new 0 0 800 600;" xml:space="preserve">
<style type="text/css">
	.st0{display:none;}
	.st1{display:inline;fill:#FFFFFF;}
	.st2{fill:none;stroke:#000000;stroke-width:14;stroke-linecap:round;stroke-linejoin:round;stroke-miterlimit:10;}
	.st3{fill:none;stroke:#FFBD71;stroke-width:14;stroke-linecap:round;stroke-linejoin:round;stroke-miterlimit:10;}
	.st4{fill:none;stroke:#7645CC;stroke-width:14;stroke-linecap:round;stroke-linejoin:round;stroke-miterlimit:10;}
	.st5{fill:#8AFFA0;}
</style>
<g class="st0">
	<path class="st1" d="M286.8,307.6c0-8.8-5-13.6-12.8-13.6s-12.8,4.8-12.8,13.6v36.4h-20.4v-36.4c0-8.8-5-13.6-12.8-13.6
		s-12.8,4.8-12.8,13.6v36.4h-20.5v-67H215v8.4c4-5.4,10.8-9.1,19.6-9.1c10.1,0,18.2,4.4,22.8,12.5c4.4-7.1,12.8-12.5,22.6-12.5
		c16.6,0,27.2,10.6,27.2,28.6v39.1h-20.4V307.6z"/>
	<path class="st1" d="M347,276c10,0,17,4.6,20.6,10.4V277h20.5v67h-20.5v-9.5c-3.7,5.9-10.8,10.4-20.8,10.4
		c-16.3,0-29.4-13.4-29.4-34.6S330.6,276,347,276z M353,293.9c-7.7,0-14.6,5.8-14.6,16.4s7,16.7,14.6,16.7c7.8,0,14.6-5.9,14.6-16.6
		C367.7,299.8,360.8,293.9,353,293.9z"/>
	<path class="st1" d="M403.1,255.1h20.5v49.1l20.3-27.2h25.3l-27.8,33.6l28.1,33.4H444l-20.4-28.1v28.1h-20.5V255.1z"/>
	<path class="st1" d="M507,344.9c-19.7,0-33.8-13.2-33.8-34.4c0-21.2,13.9-34.4,33.8-34.4c19.6,0,33.4,13,33.4,33.4
		c0,1.9-0.1,4-0.4,6h-46.4c0.7,8.8,6.1,12.8,12.7,12.8c5.8,0,9-2.9,10.7-6.5h21.8C535.5,334.8,523.7,344.9,507,344.9z M493.7,304
		h25.7c0-7.3-5.8-11.5-12.6-11.5C500,292.4,494.9,296.5,493.7,304z"/>
	<path class="st1" d="M578.4,344.9c-17.9,0-29.9-10-30.8-22.9h20.3c0.5,4.7,4.7,7.8,10.3,7.8c5.3,0,8-2.4,8-5.4
		c0-10.8-36.5-3-36.5-27.6c0-11.4,9.7-20.8,27.2-20.8c17.3,0,26.9,9.6,28.2,22.8h-19c-0.6-4.6-4.1-7.6-9.8-7.6
		c-4.8,0-7.4,1.9-7.4,5.2c0,10.7,36.2,3.1,36.6,28.1C605.5,336.1,595.2,344.9,578.4,344.9z"/>
</g>
<g class="st0">
	<path class="st1" d="M309,20.9c16.4,0,29.5,13.2,29.5,34.3c0,21.1-13.1,34.6-29.5,34.6c-9.8,0-16.9-4.7-20.6-10.3v41.3h-20.5V21.8
		h20.5v9.5C292.1,25.4,299.1,20.9,309,20.9z M302.9,38.8c-7.7,0-14.6,5.9-14.6,16.6c0,10.7,7,16.6,14.6,16.6c7.8,0,14.8-6,14.8-16.7
		S310.7,38.8,302.9,38.8z"/>
	<path class="st1" d="M374.7,20.9c10,0,17,4.6,20.6,10.4v-9.5h20.5v67h-20.5v-9.5c-3.7,5.9-10.8,10.4-20.8,10.4
		c-16.3,0-29.4-13.4-29.4-34.6C345.2,34.1,358.3,20.9,374.7,20.9z M380.7,38.8c-7.7,0-14.6,5.8-14.6,16.4s7,16.7,14.6,16.7
		c7.8,0,14.6-5.9,14.6-16.6C395.4,44.6,388.5,38.8,380.7,38.8z"/>
	<path class="st1" d="M496.9,88.8h-20.5v-9.1c-4.1,5.8-11.3,9.8-20.3,9.8c-15.5,0-25.9-10.7-25.9-28.6V21.8h20.4v36.4
		c0,9.1,5.2,14.2,12.8,14.2c7.9,0,13-5,13-14.2V21.8h20.5V88.8z"/>
	<path class="st1" d="M511.7,0h20.5v88.8h-20.5V0z"/>
</g>
<g class="st0">
	<path class="st1" d="M209.5,569c-17.9,0-29.9-10-30.8-22.9h20.3c0.5,4.7,4.7,7.8,10.3,7.8c5.3,0,8-2.4,8-5.4
		c0-10.8-36.5-3-36.5-27.6c0-11.4,9.7-20.8,27.2-20.8c17.3,0,26.9,9.6,28.2,22.8h-19c-0.6-4.6-4.1-7.6-9.8-7.6
		c-4.8,0-7.4,1.9-7.4,5.2c0,10.7,36.2,3.1,36.6,28.1C236.6,560.3,226.3,569,209.5,569z"/>
	<path class="st1" d="M249.2,479.3h20.5v30.8c4.1-5.8,11.4-9.7,20.6-9.7c15.2,0,25.4,10.6,25.4,28.6v39.1h-20.4v-36.4
		c0-9.1-5-14.2-12.8-14.2s-12.8,5-12.8,14.2v36.4h-20.5V479.3z"/>
	<path class="st1" d="M355.5,500.2c10,0,17,4.6,20.6,10.4v-9.5h20.5v67h-20.5v-9.5c-3.7,5.9-10.8,10.4-20.8,10.4
		c-16.3,0-29.4-13.4-29.4-34.6S339.1,500.2,355.5,500.2z M361.5,518c-7.7,0-14.6,5.8-14.6,16.4s7,16.7,14.6,16.7
		c7.8,0,14.6-5.9,14.6-16.6C376.2,523.9,369.3,518,361.5,518z"/>
	<path class="st1" d="M452.7,500.2c16.4,0,29.5,13.2,29.5,34.3S469.2,569,452.7,569c-9.8,0-16.9-4.7-20.6-10.3V600h-20.5v-98.9h20.5
		v9.5C435.8,504.7,442.9,500.2,452.7,500.2z M446.6,518c-7.7,0-14.6,5.9-14.6,16.6c0,10.7,7,16.6,14.6,16.6c7.8,0,14.8-6,14.8-16.7
		S454.4,518,446.6,518z"/>
	<path class="st1" d="M522.8,569c-19.7,0-33.8-13.2-33.8-34.4c0-21.2,13.9-34.4,33.8-34.4c19.6,0,33.4,13,33.4,33.4
		c0,1.9-0.1,4-0.4,6h-46.4c0.7,8.8,6.1,12.8,12.7,12.8c5.8,0,9-2.9,10.7-6.5h21.8C551.4,559,539.5,569,522.8,569z M509.5,528.1h25.7
		c0-7.3-5.8-11.5-12.6-11.5C515.9,516.6,510.7,520.7,509.5,528.1z"/>
	<path class="st1" d="M594.2,569c-17.9,0-29.9-10-30.8-22.9h20.3c0.5,4.7,4.7,7.8,10.3,7.8c5.3,0,8-2.4,8-5.4
		c0-10.8-36.5-3-36.5-27.6c0-11.4,9.7-20.8,27.2-20.8c17.3,0,26.9,9.6,28.2,22.8h-19c-0.6-4.6-4.1-7.6-9.8-7.6
		c-4.8,0-7.4,1.9-7.4,5.2c0,10.7,36.2,3.1,36.6,28.1C621.3,560.3,611,569,594.2,569z"/>
</g>
<path class="st2" d="M693.6,406.5c0-36.5,0.7-89.2-3.8-122c-1.6-11.4-7.3-22-11.6-32.6c-25.3-62.9-42.2-71.6-103-97.6
	c-12.2-5.2-27.1-6.4-40.1-4.7c-22.8,2.9-41,19.6-57.4,34.3"/>
<path class="st3" d="M664.8,394.5c0-36.5,0.7-89.2-3.8-122c-1.6-11.4-7.3-22-11.6-32.6c-25.3-62.9-42.2-71.6-103-97.6
	c-12.2-5.2-27.1-6.4-40.1-4.7c-22.8,2.9-41,19.6-57.4,34.3"/>
<path id="doodle_1_" class="st2" d="M243,463c-16.9-3.7-9.2-20-8.2-38.6c0.6-10.7,1.8-21.4,3.8-31.8c1.1-5.3,3-10.4,5.3-15.2
	c0.6-1.3,1.9-2.9,3.4-3c33.7-2.2,78,24.1,104.8,36"/>
<path id="doodle" class="st4" d="M274.2,449.8c-16.9-3.7-9.2-20-8.2-38.6c0.6-10.7,1.8-21.4,3.8-31.8c1.1-5.3,3-10.4,5.3-15.2
	c0.6-1.3,1.9-2.9,3.4-3c33.7-2.2,78,24.1,104.8,36"/>
<path class="st5" d="M260.3,137.5l101.5,46.9c0,0-2.5,95.2-67.2,93.9c-64.7-1.3-48.2-45.7-86.3-50.7c-38.1-5.1-73.6-40.6-73.6-40.6
	L260.3,137.5z"/>
</svg>
