<?xml version="1.0" encoding="utf-8"?>
<!-- Generator: Adobe Illustrator 23.0.3, SVG Export Plug-In . SVG Version: 6.00 Build 0)  -->
<svg version="1.1" id="paul_svg" xmlns="http://www.w3.org/2000/svg" xmlns:xlink="http://www.w3.org/1999/xlink" x="0px" y="0px"
	 width="800px" height="500px" viewBox="0 0 800 500" style="enable-background:new 0 0 800 500;" xml:space="preserve">
<path id="bg" style="display:none;opacity:0.15;fill:#FFBD71;" d="M800,500H0V0h800V500z"/>
<path style="fill:none;stroke:#FFFFFF;stroke-width:12;stroke-linecap:round;stroke-linejoin:round;stroke-miterlimit:10;" d="
	M722.3,265.9c0-30.4,0.6-74.3-3.2-101.7c-1.3-9.5-6.1-18.3-9.7-27.2c-21.1-52.4-35.2-59.7-85.8-81.3c-10.2-4.3-22.6-5.3-33.4-3.9
	c-19,2.4-34.2,16.3-47.8,28.6"/>
<path style="fill:none;stroke:#FFBD71;stroke-width:12;stroke-linecap:round;stroke-linejoin:round;stroke-miterlimit:10;" d="
	M698.3,255.9c0-30.4,0.6-74.3-3.2-101.7c-1.3-9.5-6.1-18.3-9.7-27.2c-21.1-52.4-35.2-59.7-85.8-81.3c-10.2-4.3-22.6-5.3-33.4-3.9
	c-19,2.4-34.2,16.3-47.8,28.6"/>
<path style="fill:none;stroke:#FFBD71;stroke-width:12;stroke-miterlimit:10;" d="M209,168.7H109v-100h100V168.7z"/>
<path id="makes" d="M395.1,260.7c0-7.3-4.2-11.3-10.7-11.3s-10.7,4-10.7,11.3V291h-17v-30.3c0-7.3-4.2-11.3-10.7-11.3
	s-10.7,4-10.7,11.3V291h-17.1v-55.8h17.1v7c3.3-4.5,9-7.6,16.3-7.6c8.4,0,15.2,3.7,19,10.4c3.7-5.9,10.7-10.4,18.8-10.4
	c13.8,0,22.7,8.8,22.7,23.8V291h-17V260.7z M445.3,234.3c8.3,0,14.2,3.8,17.2,8.7v-7.9h17.1V291h-17.1v-7.9c-3.1,4.9-9,8.7-17.3,8.7
	c-13.6,0-24.5-11.2-24.5-28.8C420.7,245.3,431.6,234.3,445.3,234.3z M450.3,249.3c-6.4,0-12.2,4.8-12.2,13.7
	c0,8.9,5.8,13.9,12.2,13.9c6.5,0,12.2-4.9,12.2-13.8S456.8,249.3,450.3,249.3z M492,216.9h17.1v40.9l16.9-22.7h21.1l-23.2,28
	l23.4,27.8h-21.2l-17-23.4V291H492V216.9z M578.6,291.8c-16.4,0-28.2-11-28.2-28.7s11.6-28.7,28.2-28.7c16.3,0,27.8,10.8,27.8,27.8
	c0,1.6-0.1,3.3-0.3,5h-38.7c0.6,7.3,5.1,10.7,10.6,10.7c4.8,0,7.5-2.4,8.9-5.4h18.2C602.4,283.4,592.5,291.8,578.6,291.8z
	 M567.5,257.7h21.4c0-6.1-4.8-9.6-10.5-9.6C572.8,248,568.5,251.4,567.5,257.7z M638.1,291.8c-14.9,0-24.9-8.3-25.7-19.1h16.9
	c0.4,3.9,3.9,6.5,8.6,6.5c4.4,0,6.7-2,6.7-4.5c0-9-30.4-2.5-30.4-23c0-9.5,8.1-17.3,22.7-17.3c14.4,0,22.4,8,23.5,19h-15.8
	c-0.5-3.8-3.4-6.3-8.2-6.3c-4,0-6.2,1.6-6.2,4.3c0,8.9,30.2,2.6,30.5,23.4C660.7,284.5,652.1,291.8,638.1,291.8z"/>
<path id="doodle_1_" style="fill:none;stroke:#FFFFFF;stroke-width:12;stroke-linecap:round;stroke-linejoin:round;stroke-miterlimit:10;" d="
	M180.1,313c-14.1-3.1-7.7-16.7-6.8-32.2c0.5-8.9,1.5-17.8,3.2-26.5c0.9-4.4,2.5-8.7,4.4-12.7c0.5-1.1,1.6-2.4,2.8-2.5
	c28.1-1.8,65,20.1,87.3,30"/>
<path id="doodle" style="fill:none;stroke:#FFBD71;stroke-width:12;stroke-linecap:round;stroke-linejoin:round;stroke-miterlimit:10;" d="
	M206.1,302c-14.1-3.1-7.7-16.7-6.8-32.2c0.5-8.9,1.5-17.8,3.2-26.5c0.9-4.4,2.5-8.7,4.4-12.7c0.5-1.1,1.6-2.4,2.8-2.5
	c28.1-1.8,65,20.1,87.3,30"/>
<path id="paul" d="M212.9,91.2c13.7,0,24.6,11,24.6,28.6c0,17.6-10.9,28.8-24.6,28.8c-8.2,0-14.1-3.9-17.2-8.6v34.4h-17.1V92h17.1
	v7.9C198.8,95,204.7,91.2,212.9,91.2z M207.8,106.1c-6.4,0-12.2,4.9-12.2,13.8c0,8.9,5.8,13.8,12.2,13.8c6.5,0,12.3-5,12.3-13.9
	C220.1,110.9,214.3,106.1,207.8,106.1z M267.7,91.2c8.3,0,14.2,3.8,17.2,8.7V92H302v55.8h-17.1v-7.9c-3.1,4.9-9,8.7-17.3,8.7
	c-13.6,0-24.5-11.2-24.5-28.8C243.1,102.2,254,91.2,267.7,91.2z M272.7,106.1c-6.4,0-12.2,4.8-12.2,13.7c0,8.9,5.8,13.9,12.2,13.9
	c6.5,0,12.2-4.9,12.2-13.8C284.9,111,279.2,106.1,272.7,106.1z M369.5,147.8h-17.1v-7.6c-3.4,4.8-9.4,8.2-16.9,8.2
	c-12.9,0-21.6-8.9-21.6-23.8V92h17v30.3c0,7.6,4.3,11.8,10.7,11.8c6.6,0,10.8-4.2,10.8-11.8V92h17.1V147.8z M381.8,73.8h17.1v74
	h-17.1V73.8z"/>
<path id="shapes" d="M158.5,423.6c-14.9,0-24.9-8.3-25.7-19.1h16.9c0.4,3.9,3.9,6.5,8.6,6.5c4.4,0,6.7-2,6.7-4.5
	c0-9-30.4-2.5-30.4-23c0-9.5,8.1-17.3,22.7-17.3c14.4,0,22.4,8,23.5,19H165c-0.5-3.8-3.4-6.3-8.2-6.3c-4,0-6.2,1.6-6.2,4.3
	c0,8.9,30.2,2.6,30.5,23.4C181.1,416.3,172.5,423.6,158.5,423.6z M191.6,348.8h17.1v25.7c3.4-4.8,9.5-8.1,17.2-8.1
	c12.7,0,21.2,8.8,21.2,23.8v32.6h-17v-30.3c0-7.6-4.2-11.8-10.7-11.8s-10.7,4.2-10.7,11.8v30.3h-17.1V348.8z M280.2,366.2
	c8.3,0,14.2,3.8,17.2,8.7V367h17.1v55.8h-17.1v-7.9c-3.1,4.9-9,8.7-17.3,8.7c-13.6,0-24.5-11.2-24.5-28.8
	C255.6,377.2,266.5,366.2,280.2,366.2z M285.2,381.1c-6.4,0-12.2,4.8-12.2,13.7s5.8,13.9,12.2,13.9c6.5,0,12.2-4.9,12.2-13.8
	C297.4,386,291.7,381.1,285.2,381.1z M361.2,366.2c13.7,0,24.6,11,24.6,28.6c0,17.6-10.9,28.8-24.6,28.8c-8.2,0-14.1-3.9-17.2-8.6
	v34.4h-17.1V367H344v7.9C347.1,370,353,366.2,361.2,366.2z M356.1,381.1c-6.4,0-12.2,4.9-12.2,13.8c0,8.9,5.8,13.8,12.2,13.8
	c6.5,0,12.3-5,12.3-13.9S362.6,381.1,356.1,381.1z M419.6,423.6c-16.4,0-28.2-11-28.2-28.7c0-17.7,11.6-28.7,28.2-28.7
	c16.3,0,27.8,10.8,27.8,27.8c0,1.6-0.1,3.3-0.3,5h-38.7c0.6,7.3,5.1,10.7,10.6,10.7c4.8,0,7.5-2.4,8.9-5.4h18.2
	C443.4,415.2,433.5,423.6,419.6,423.6z M408.5,389.5h21.4c0-6.1-4.8-9.6-10.5-9.6C413.8,379.9,409.5,383.3,408.5,389.5z
	 M479.1,423.6c-14.9,0-24.9-8.3-25.7-19.1h16.9c0.4,3.9,3.9,6.5,8.6,6.5c4.4,0,6.7-2,6.7-4.5c0-9-30.4-2.5-30.4-23
	c0-9.5,8.1-17.3,22.7-17.3c14.4,0,22.4,8,23.5,19h-15.8c-0.5-3.8-3.4-6.3-8.2-6.3c-4,0-6.2,1.6-6.2,4.3c0,8.9,30.2,2.6,30.5,23.4
	C501.7,416.3,493.1,423.6,479.1,423.6z"/>
</svg>
