<svg version="1.1" class="svg _search" xmlns="http://www.w3.org/2000/svg" xmlns:xlink="http://www.w3.org/1999/xlink" x="0" y="0" width="26" height="26" viewBox="0 0 26 26" xml:space="preserve" enable-background="new 0 0 26 26"><path d="M6,6.1c-1.3,1.3-2.1,3.2-2.1,5.1s0.8,3.7,2.1,5.1	c1.3,1.3,3.2,2.1,5.1,2.1s3.7-0.8,5.1-2.1c1.3-1.3,2.1-3.2,2.1-5.1s-0.8-3.8-2.1-5.1C14.8,4.6,13,4,11.1,4S7.3,4.7,6,6.1z M22.6,25.5L17,19.9c-1.7,1.2-3.7,1.8-5.9,1.8c-2.9,0-5.5-1.1-7.5-3.1S0.5,14,0.5,11.2s1.1-5.5,3.1-7.5s4.7-3.2,7.5-3.2	s5.5,1.1,7.5,3.1s3.2,4.6,3.2,7.5c0,2.1-0.6,4.2-1.8,6l5.6,5.6L22.6,25.5z" fill-rule="evenodd" clip-rule="evenodd"/></svg>