<svg version="1.1" id="search" xmlns="http://www.w3.org/2000/svg" xmlns:xlink="http://www.w3.org/1999/xlink" x="0" y="0" width="32" height="32" viewBox="0 0 32 32" xml:space="preserve" enable-background="new 0 0 32 32"><path d="M7.6,7.7C6,9.3,5.1,11.6,5.1,13.8s1,4.4,2.5,6.1c1.6,1.6,3.8,2.5,6.1,2.5	s4.4-1,6.1-2.5c1.6-1.6,2.5-3.8,2.5-6.1s-1-4.6-2.5-6.1c-1.7-1.8-3.8-2.5-6.1-2.5S9.1,6,7.6,7.7z M27.4,31l-6.7-6.7	c-2,1.4-4.4,2.2-7.1,2.2c-3.5,0-6.6-1.3-9-3.7S1,17.2,1,13.8s1.3-6.6,3.7-9s5.6-3.8,9-3.8s6.6,1.3,9,3.7s3.8,5.5,3.8,9	c0,2.5-0.7,5-2.2,7.2l6.7,6.7L27.4,31z" fill-rule="evenodd" clip-rule="evenodd"/></svg>