<svg version="1.1" id="squiggle1" xmlns="http://www.w3.org/2000/svg" xmlns:xlink="http://www.w3.org/1999/xlink" x="0" y="0" width="221" height="196" viewBox="0 0 221 196" xml:space="preserve" enable-background="new 0 0 221 196"><path d="M16.5,145.4c11.1-22.5,20.3-46,33.2-67.5c3-5,17.5-13.7,24.9-9.6c2,1.1,2.4,3.9,3,6.1c1.8,6.8,3.3,13.7,4.1,20.7	c2.7,23.4,3.8,46.9,6.3,70.3c0.4,3.9,0.7,7.9,2.3,11.4c0.6,1.3,2.4,1.7,3.8,2.1c2.2,0.6,4.5,0.7,6.8,0.6c2.9-0.1,5.9-0.1,8.5-1.3	c4.6-2.2,8.9-5.3,12.7-8.7c7.4-6.7,14.4-13.9,20.7-21.7c6.5-8.2,13-16.6,17.4-26.1c7.2-15.2,12.4-31.3,17.2-47.4	c2.2-7.6,3.1-15.6,3.7-23.5c0.8-10.7-3-22.1,0.6-32.2c1.3-3.6,7.6-1.4,11.4-0.9c1.8,0.2,3.3,1.7,4.6,2.9c2.5,2.4,4.5,5.3,6.8,8"/></svg>