<svg class="_squiggle" width="282px" height="252px" viewBox="0 0 282 252" version="1.1" xmlns="http://www.w3.org/2000/svg" xmlns:xlink="http://www.w3.org/1999/xlink">
    <g id="Page-2" stroke="none" stroke-width="1" fill="none" fill-rule="evenodd" stroke-linecap="round" stroke-linejoin="round">
        <g id="WeMade" transform="translate(-538.000000, -253.000000)" stroke="#FFFFFF" stroke-width="50">
            <path d="M563,437.193103 C576.658854,409.417061 588.081569,380.424759 603.976562,353.864978 C607.649205,347.728167 625.55919,336.890139 634.734375,342.029041 C637.164884,343.390337 637.749256,346.814352 638.46875,349.505603 C640.708645,357.88388 642.571508,366.404616 643.554688,375.021228 C646.846749,403.872937 648.245393,432.914874 651.28125,461.794666 C651.781972,466.557983 652.164315,471.517092 654.15625,475.872791 C654.904533,477.509037 657.154096,478.00989 658.898438,478.450916 C661.610294,479.136561 664.463902,479.320704 667.257812,479.185291 C670.796529,479.013779 674.558442,479.05868 677.757812,477.536853 C683.484501,474.812871 688.737649,471.014679 693.421875,466.739978 C702.535046,458.42354 711.26016,449.588377 718.953125,439.943103 C726.998007,429.856604 734.96737,419.437246 740.460938,407.763416 C749.295569,388.989823 755.772255,369.13344 761.640625,349.232166 C764.404759,339.858219 765.491752,330.02196 766.257812,320.279041 C767.298054,307.049037 762.520077,292.949255 767.046875,280.474353 C768.649835,276.056934 776.439676,278.781275 781.101563,279.372791 C783.316789,279.653866 785.141667,281.425322 786.75,282.974353 C789.851206,285.961213 792.307292,289.552478 795.085938,292.841541" id="Path-4"></path>
        </g>
    </g>
</svg>
