<svg version="1.1" id="squiggle1" xmlns="http://www.w3.org/2000/svg" xmlns:xlink="http://www.w3.org/1999/xlink" x="0" y="0" width="198" height="178.1" viewBox="0 0 198 178.1" xml:space="preserve" enable-background="new 0 0 198 178.1">
  <path d="M24,126.9c8.8-18,16.2-36.7,26.5-53.9c2.4-4,13.9-11,19.9-7.6c1.6,0.9,1.9,3.1,2.4,4.8c1.4,5.4,2.7,10.9,3.3,16.5	c2.1,18.6,3,37.4,5,56.1c0.3,3.1,0.6,6.3,1.9,9.1c0.5,1.1,1.9,1.4,3.1,1.7c1.8,0.4,3.6,0.6,5.4,0.5c2.3-0.1,4.7-0.1,6.8-1.1	c3.7-1.8,7.1-4.2,10.1-7c5.9-5.4,11.5-11.1,16.5-17.3c5.2-6.5,10.4-13.3,13.9-20.8c5.7-12.1,9.9-25,13.7-37.8	c1.8-6.1,2.5-12.4,3-18.7c0.7-8.6-2.4-17.7,0.5-25.7c1-2.9,6.1-1.1,9.1-0.7c1.4,0.2,2.6,1.3,3.7,2.3c2,1.9,3.6,4.3,5.4,6.4"/>
</svg>
