<?xml version="1.0" encoding="utf-8"?>
<!-- Generator: Adobe Illustrator 23.0.1, SVG Export Plug-In . SVG Version: 6.00 Build 0)  -->
<svg version="1.1" id="wave" xmlns="http://www.w3.org/2000/svg" xmlns:xlink="http://www.w3.org/1999/xlink" x="0px" y="0px"
	 width="304px" height="52px" viewBox="0 0 304 52" style="enable-background:new 0 0 304 52;" xml:space="preserve">
<path d="M302,50c-12.2,0-17.7-11.9-22.1-21.5c-4.1-8.8-7-14.5-11.2-14.5c-4.2,0-7.2,5.7-11.2,14.5C253,38.1,247.5,50,235.3,50
	c-12.2,0-17.7-11.9-22.1-21.5c-4.1-8.8-7-14.5-11.2-14.5c-4.2,0-7.2,5.7-11.2,14.5c-4.4,9.6-9.9,21.5-22.1,21.5
	c-12.2,0-17.7-11.9-22.1-21.5c-4.1-8.8-7-14.5-11.2-14.5c-4.2,0-7.2,5.7-11.2,14.5C119.7,38.1,114.2,50,102,50
	c-12.2,0-17.7-11.9-22.1-21.5c-4.1-8.8-7-14.5-11.2-14.5c-4.2,0-7.2,5.8-11.2,14.5C53,38.1,47.5,50,35.3,50
	c-12.2,0-17.7-11.9-22.1-21.5C9.2,19.7,6.2,14,2,14V2c12.2,0,17.7,11.9,22.1,21.5c4.1,8.8,7,14.5,11.2,14.5c4.2,0,7.2-5.8,11.2-14.5
	C51,13.9,56.5,2,68.7,2s17.7,11.9,22.1,21.5c4.1,8.8,7,14.5,11.2,14.5c4.2,0,7.2-5.7,11.2-14.5c4.4-9.6,9.9-21.5,22.1-21.5
	s17.7,11.9,22.1,21.5c4.1,8.8,7,14.5,11.2,14.5c4.2,0,7.2-5.7,11.2-14.5C184.3,13.9,189.8,2,202,2c12.2,0,17.7,11.9,22.1,21.5
	c4.1,8.8,7,14.5,11.2,14.5c4.2,0,7.2-5.7,11.2-14.5C251,13.9,256.5,2,268.7,2c12.2,0,17.7,11.9,22.1,21.5c4.1,8.8,7,14.5,11.2,14.5
	V50z"/>
</svg>
