<?xml version="1.0" encoding="utf-8"?>
<!-- Generator: Adobe Illustrator 23.0.4, SVG Export Plug-In . SVG Version: 6.00 Build 0)  -->
<svg version="1.1" id="wifi" xmlns="http://www.w3.org/2000/svg" xmlns:xlink="http://www.w3.org/1999/xlink" x="0px" y="0px"
	 width="33.6px" height="24px" viewBox="0 0 33.6 24" style="enable-background:new 0 0 33.6 24;" xml:space="preserve">
<path id="zero" style="opacity:0.2;enable-background:new    ;" d="M16.8,20c1,0,1.8,0.8,1.8,1.8s-0.8,1.8-1.8,1.8S15,22.8,15,21.8
	S15.8,20,16.8,20z"/>
<path id="one" style="opacity:0.2;enable-background:new    ;" d="M21.3,18.4c-0.4,0-0.7-0.1-1-0.3c-2.1-1.5-4.8-1.5-6.8,0
	c-0.8,0.6-1.9,0.4-2.5-0.4s-0.4-1.9,0.4-2.5c3.2-2.4,7.7-2.4,11,0c0.8,0.6,1,1.7,0.4,2.5C22.4,18.1,21.9,18.4,21.3,18.4z"/>
<path id="two" style="opacity:0.2;enable-background:new    ;" d="M7.8,13.9c-0.5,0-1-0.2-1.4-0.7c-0.6-0.8-0.5-1.9,0.3-2.5
	c5.9-4.8,14.5-4.8,20.3,0c0.8,0.6,0.9,1.8,0.2,2.5c-0.6,0.8-1.8,0.9-2.5,0.2c-4.5-3.7-11.1-3.7-15.7,0C8.6,13.8,8.2,13.9,7.8,13.9z"
	/>
<path id="three" style="opacity:0.2;enable-background:new    ;" d="M30.3,9.4c-0.4,0-0.8-0.1-1.2-0.4C22,2.7,11.5,2.7,4.4,9
	C3.6,9.6,2.5,9.5,1.8,8.8C1.2,8,1.3,6.9,2,6.2c8.5-7.4,20.9-7.4,29.5,0c0.8,0.7,0.8,1.8,0.2,2.5C31.3,9.2,30.8,9.4,30.3,9.4z"/>
</svg>
