<?xml version="1.0" encoding="utf-8"?>
<!-- Generator: Adobe Illustrator 23.1.1, SVG Export Plug-In . SVG Version: 6.00 Build 0)  -->
<svg version="1.1" id="Layer_1" xmlns="http://www.w3.org/2000/svg" xmlns:xlink="http://www.w3.org/1999/xlink" x="0px" y="0px"
	 width="110px" height="440px" viewBox="0 0 110 440" style="enable-background:new 0 0 110 440;" xml:space="preserve">
<rect style="fill:#FF8200;" width="110" height="440"/>
<path style="fill:#FFFFFF;" d="M28.5,296v-9.7h16c-2-2.3-2.8-4.4-2.8-7.7c0-8.2,6.4-14,15.1-14c4.3,0,8.3,1.6,11,4.2
	c2.5,2.4,3.7,5.6,3.7,9.5s-1,6.3-3.4,8.4h2.3v9.3L28.5,296L28.5,296z M56.5,287c4.1,0,7-2.5,7-6.2s-2.5-6-6.7-6s-6.8,2.3-6.8,6.1
	C49.9,284.6,52.6,287,56.5,287z M42.7,262v-9.3h3.5c-3.2-2-4.3-4.1-4.3-7.4c0-0.7,0.1-1.1,0.3-3.4H51c-0.3,1.1-0.4,1.7-0.4,2.5
	c0,5.2,2.8,7.9,8,7.9h11.7v9.7L42.7,262L42.7,262z M68.5,219.6c2.3,2.5,2.9,4.3,2.9,8.1c0,4.4-1.2,7.5-3.8,10c-2.8,2.6-6.6,4-11,4
	c-8.7,0-14.8-5.8-14.8-13.9c0-3.5,0.8-5.5,3.3-8.2h-2.4v-9.3h27.7v9.3L68.5,219.6L68.5,219.6z M56.9,231.6c4.1,0,6.6-2.3,6.6-6.1
	c0-3.7-2.7-6.1-6.9-6.1c-4,0-6.7,2.4-6.7,6C49.9,229,52.9,231.6,56.9,231.6z M42.7,207v-9.6h3.2c-3.2-2.5-4.2-4.6-4.2-8.6
	c0-4.3,1.7-7.9,4.6-9.5c1.5-0.8,3.2-1.3,5.4-1.3h18.7v9.7H55.2c-3.7,0-5.5,1.4-5.5,4.3c0,3.1,2.2,5.2,5.5,5.2h15.2v9.7H42.7V207z
	 M68.1,153.3c2.5,2.8,3.4,5.2,3.4,8.8c0,7.9-6.1,13.3-14.9,13.3c-8.7,0-14.8-5.8-14.8-13.9c0-3.2,0.8-5.5,2.6-7.7H28.5V144h41.9v9.3
	H68.1z M56.9,165.3c4,0,6.6-2.3,6.6-5.8c0-3.9-2.7-6.5-6.8-6.5c-4,0-6.7,2.4-6.7,6C50,162.7,52.9,165.3,56.9,165.3z"/>
</svg>
