<?xml version="1.0" encoding="utf-8"?>
<!-- Generator: Adobe Illustrator 23.1.1, SVG Export Plug-In . SVG Version: 6.00 Build 0)  -->
<svg version="1.1" id="Layer_1" xmlns="http://www.w3.org/2000/svg" xmlns:xlink="http://www.w3.org/1999/xlink" x="0px" y="0px"
	 width="110px" height="440px" viewBox="0 0 110 440" style="enable-background:new 0 0 110 440;" xml:space="preserve">
<path style="fill:#DCDCDC;" d="M52.6,239.7v9.9c-2.9-0.5-4.4-2.3-4.4-5C48.2,241.8,49.5,240.3,52.6,239.7z M56.6,271.6
	c-4,0-6.7,2.4-6.7,6c0,3.7,2.9,6.3,6.9,6.3s6.6-2.3,6.6-5.8C63.5,274.2,60.8,271.6,56.6,271.6z M56.5,168.7c4.1,0,7.3-2.6,7.3-6.2
	c0-4.1-2.7-6.5-7.3-6.5c-4.4,0-7.3,2.5-7.3,6.3C49.2,166,52.3,168.7,56.5,168.7z M110,0v440H0V0H110z M41.6,162.3
	c0,9.7,6.2,16.6,14.9,16.6c8.6,0,14.9-6.9,14.9-16.4c0-9.8-6-16.4-14.9-16.4C47.7,146.1,41.6,152.7,41.6,162.3z M41.6,208.9
	c0,2.2,0.5,4.3,1.4,5.8c0.5,0.9,1.3,1.6,2.8,2.8h-3.2v9.6h27.7v-9.7H54.1c-3,0-4.9-1.7-4.9-4.4c0-2.5,1.4-3.7,4.6-3.7h16.6v-9.7
	H54.1c-3.2,0-5-1.5-5-4.3c0-2.6,1.4-3.8,4.6-3.8h16.6v-9.7H51.8c-2.6,0-4.6,0.4-5.9,1.2c-2.4,1.4-4,4.9-4,8.8s1.1,5.9,4.3,8.3
	c-1.4,0.8-2,1.3-2.6,2.2C42.3,203.9,41.6,206.4,41.6,208.9z M71.4,280.6c0-3.7-0.9-6-3.4-8.8h2.3v-9.3H28.5v9.8h15.9
	c-1.9,2.2-2.6,4.6-2.6,7.7c0,8.2,6.1,13.9,14.8,13.9C65.3,293.9,71.4,288.5,71.4,280.6z M71.5,244.5c0-8.3-3.8-13.9-9.9-14.6V240
	c2.5,1.5,3,2.3,3,4.7c0,3.2-1.8,4.9-5.5,5.2v-20.1h-1.9c-3.4,0-6.8,0.8-9.1,2c-4,2.2-6.5,7.2-6.5,13.1c0,9.1,5.9,15,14.9,15
	S71.5,253.9,71.5,244.5z"/>
</svg>
