<?xml version="1.0" encoding="utf-8"?>
<!-- Generator: Adobe Illustrator 23.1.1, SVG Export Plug-In . SVG Version: 6.00 Build 0)  -->
<svg version="1.1" id="Layer_1" xmlns="http://www.w3.org/2000/svg" xmlns:xlink="http://www.w3.org/1999/xlink" x="0px" y="0px"
	 width="110px" height="440px" viewBox="0 0 110 440" style="enable-background:new 0 0 110 440;" xml:space="preserve">
<path style="fill:#DCDCDC;" d="M60.1,199.2c0,3.6-2.6,6.1-6.6,6.1s-6.9-2.6-6.9-6.2c0-3.7,2.7-6.1,6.9-6.1
	C57.5,193.1,60.1,195.5,60.1,199.2z M53.5,227.1c-4.2,0-6.9,2.4-6.9,6.1c0,3.6,2.9,6.2,6.9,6.2s6.6-2.5,6.6-6.1
	C60.1,229.5,57.5,227.1,53.5,227.1z M110,0v440H0V0H110z M25.6,180.3h41.8v-9.7H25.6V180.3z M68.5,296.1c0-4.9-0.8-7.6-3.1-10
	c-1.7-1.9-4.4-3-7.2-3c-4.6,0-6.6,1.6-7.7,6.5l-0.2,1l-0.2,1l-0.2,1c-0.2,0.9-0.5,1.7-1,2.4c-0.4,0.6-1,0.9-1.6,0.9
	c-1.2-0.1-1.9-1-1.9-2.7c0-1.9,0.8-4.4,2.2-6.8l-6.4-3.5c-1.7,4-2.5,6.6-2.6,9.8c-0.4,7.6,3.5,12.7,9.9,13c2.5,0.1,4.7-0.7,6.1-2.3
	c1.2-1.3,1.6-2.5,2.5-6.4c0.6-2.6,1.3-3.7,2.3-3.7c1.1,0,1.9,1.4,1.8,3.4c-0.1,2.2-0.8,4.1-2.6,7.1l6.5,3c1.1-1.8,1.6-2.7,2-3.8
	C67.9,301,68.5,298.1,68.5,296.1z M60.7,266.1c0,1.6-0.7,2.9-1.9,3.8c-1.1,0.7-2.4,1-5,1H39.6v9.7h15.2c3.1,0,5.7-0.5,7.4-1.4
	c3.8-2,6-6.7,6-12.7c0-5.6-1.8-10.1-4.9-12.6c-2-1.6-4.7-2.3-8.8-2.3H39.6v9.7h14.2c1.9,0,3.7,0.2,4.6,0.7
	C59.8,262.7,60.7,264.2,60.7,266.1z M78.3,238.7H65.6c2.2-2.3,2.9-4.3,2.9-7.9c0-8.3-6-13.8-14.9-13.8c-9.1,0-15,5.3-15,13.6
	c0,3.9,0.7,5.8,3.4,8.5h-2.3v9.3h38.7L78.3,238.7L78.3,238.7z M78.3,204.6H65.6c2.2-2.3,2.9-4.3,2.9-7.9c0-8.3-6-13.8-14.9-13.8
	c-9.1,0-15,5.3-15,13.6c0,3.9,0.7,5.8,3.4,8.5h-2.3v9.3h38.7L78.3,204.6L78.3,204.6z M78.4,153.4l-38.8-20.3v10.4l15.4,6.9l-15.4,7
	v11.1l23.3-12.8l15.5,8.2C78.4,163.9,78.4,153.4,78.4,153.4z"/>
</svg>
