<?xml version="1.0" encoding="utf-8"?>
<!-- Generator: Adobe Illustrator 23.1.1, SVG Export Plug-In . SVG Version: 6.00 Build 0)  -->
<svg version="1.1" id="Layer_1" xmlns="http://www.w3.org/2000/svg" xmlns:xlink="http://www.w3.org/1999/xlink" x="0px" y="0px"
	 width="110px" height="440px" viewBox="0 0 110 440" style="enable-background:new 0 0 110 440;" xml:space="preserve">
<path style="fill:#DCDCDC;" d="M51.4,187.5v9.9c-2.9-0.5-4.4-2.3-4.4-5C47,189.5,48.3,188,51.4,187.5z M110,0v440H0V0H110z
	 M63,242.2c-0.1,2.2-0.8,4.1-2.6,7.1l6.5,3c1.1-1.8,1.6-2.7,2-3.8c0.8-2.1,1.4-5,1.4-7c0-4.9-0.8-7.6-3.1-10c-1.7-1.9-4.4-3-7.2-3
	c-4.6,0-6.6,1.6-7.7,6.5l-0.2,1l-0.2,1l-0.2,1c-0.2,0.9-0.5,1.7-1,2.4c-0.4,0.6-1,0.9-1.6,0.9c-1.2-0.1-1.9-1-1.9-2.7
	c0-1.9,0.8-4.4,2.2-6.8l-6.4-3.5c-1.7,4-2.5,6.6-2.6,9.8c-0.4,7.6,3.5,12.7,9.9,13c2.5,0.1,4.7-0.7,6.1-2.3c1.2-1.3,1.6-2.5,2.5-6.4
	c0.6-2.6,1.3-3.7,2.3-3.7C62.3,238.8,63.1,240.3,63,242.2z M57.9,197.6v-20.1H56c-3.4,0-6.8,0.8-9.1,2c-4,2.2-6.5,7.2-6.5,13.1
	c0,9.1,5.9,15,14.9,15s14.8-6,14.8-15.4c0-8.3-3.8-13.9-9.9-14.6v10.1c2.5,1.5,3,2.3,3,4.7C63.4,195.7,61.6,197.4,57.9,197.6z
	 M44.9,147.7c-1.4,0.8-2,1.3-2.6,2.2c-1.2,1.7-1.9,4.2-1.9,6.8c0,2.2,0.5,4.3,1.4,5.8c0.5,0.9,1.3,1.6,2.8,2.8h-3.2v9.6h27.7v-9.7
	H52.9c-3,0-4.9-1.7-4.9-4.4c0-2.5,1.4-3.7,4.6-3.7h16.6v-9.7H52.9c-3.2,0-5-1.5-5-4.3c0-2.6,1.4-3.8,4.6-3.8h16.6v-9.7H50.5
	c-2.6,0-4.6,0.4-5.9,1.2c-2.4,1.4-4,4.9-4,8.8S41.7,145.2,44.9,147.7z M33.8,223h7.7v3.9h7.4V223h20.3v-9.7H48.8v-5.1h-7.4v5.1h-7.7
	v9.7H33.8z M70.3,299.9c0-4.9-0.8-7.6-3.1-10c-1.7-1.9-4.4-3-7.2-3c-4.6,0-6.6,1.6-7.7,6.5l-0.2,1l-0.2,1l-0.2,1
	c-0.2,0.9-0.5,1.7-1,2.4c-0.4,0.6-1,0.9-1.6,0.9c-1.2-0.1-1.9-1-1.9-2.7c0-1.9,0.8-4.4,2.2-6.8l-6.4-3.5c-1.7,4-2.5,6.6-2.6,9.8
	c-0.4,7.6,3.5,12.7,9.9,13c2.5,0.1,4.7-0.7,6.1-2.3c1.2-1.3,1.6-2.5,2.5-6.4c0.6-2.6,1.3-3.7,2.3-3.7c1.1,0,1.9,1.4,1.8,3.4
	c-0.1,2.2-0.8,4.1-2.6,7.1l6.5,3c1.1-1.8,1.6-2.7,2-3.8C69.7,304.7,70.3,301.8,70.3,299.9z M80.2,271.3L41.4,251v10.4l15.4,6.9
	l-15.4,7v11.1l23.3-12.8l15.5,8.2V271.3z"/>
</svg>
