<?xml version="1.0" encoding="utf-8"?>
<!-- Generator: Adobe Illustrator 23.0.1, SVG Export Plug-In . SVG Version: 6.00 Build 0)  -->
<svg version="1.1" id="Layer_1" xmlns="http://www.w3.org/2000/svg" xmlns:xlink="http://www.w3.org/1999/xlink" x="0px" y="0px"
	 viewBox="0 0 480 480" style="enable-background:new 0 0 480 480;" xml:space="preserve">
<g>
	<path style="fill:#231F20;" d="M276.9,376.5c0.7,0,1.2-0.6,1.2-1.2c0-0.7-0.6-1.2-1.2-1.2c-0.7,0-1.2,0.6-1.2,1.2
		C275.6,375.9,276.2,376.5,276.9,376.5z"/>
	<path style="fill:#231F20;" d="M276.9,401.2c0.7,0,1.2-0.6,1.2-1.2c0-0.7-0.6-1.2-1.2-1.2c-0.7,0-1.2,0.6-1.2,1.2
		C275.6,400.7,276.2,401.2,276.9,401.2z"/>
	<path style="fill:#231F20;" d="M276.9,388.8c0.7,0,1.2-0.6,1.2-1.2c0-0.7-0.6-1.2-1.2-1.2c-0.7,0-1.2,0.6-1.2,1.2
		C275.6,388.3,276.2,388.8,276.9,388.8z"/>
	<path style="fill:#231F20;" d="M276.9,376.5c0.7,0,1.2-0.6,1.2-1.2c0-0.7-0.6-1.2-1.2-1.2c-0.7,0-1.2,0.6-1.2,1.2
		C275.6,375.9,276.2,376.5,276.9,376.5z"/>
	<path style="fill:#231F20;" d="M264.5,376.5c0.7,0,1.2-0.6,1.2-1.2c0-0.7-0.6-1.2-1.2-1.2c-0.7,0-1.2,0.6-1.2,1.2
		C263.3,375.9,263.8,376.5,264.5,376.5z"/>
	<path style="fill:#231F20;" d="M264.5,375.2"/>
	<path style="fill:#231F20;" d="M270.7,382.6c0.7,0,1.2-0.6,1.2-1.2c0-0.7-0.6-1.2-1.2-1.2c-0.7,0-1.2,0.6-1.2,1.2
		C269.4,382.1,270,382.6,270.7,382.6z"/>
	<path style="fill:#231F20;" d="M270.7,381.4"/>
	<path style="fill:#231F20;" d="M276.9,401.2c0.7,0,1.2-0.6,1.2-1.2c0-0.7-0.6-1.2-1.2-1.2c-0.7,0-1.2,0.6-1.2,1.2
		C275.6,400.7,276.2,401.2,276.9,401.2z"/>
	<path style="fill:#231F20;" d="M264.5,401.2c0.7,0,1.2-0.6,1.2-1.2c0-0.7-0.6-1.2-1.2-1.2c-0.7,0-1.2,0.6-1.2,1.2
		C263.3,400.7,263.8,401.2,264.5,401.2z"/>
	<path style="fill:#231F20;" d="M264.5,400"/>
	<path style="fill:#231F20;" d="M270.7,407.4c0.7,0,1.2-0.6,1.2-1.2c0-0.7-0.6-1.2-1.2-1.2c-0.7,0-1.2,0.6-1.2,1.2
		C269.4,406.9,270,407.4,270.7,407.4z"/>
	<path style="fill:#231F20;" d="M270.7,406.2"/>
	<path style="fill:#231F20;" d="M252.1,351.7c0.7,0,1.2-0.6,1.2-1.2c0-0.7-0.6-1.2-1.2-1.2c-0.7,0-1.2,0.6-1.2,1.2
		C250.9,351.1,251.4,351.7,252.1,351.7z"/>
	<path style="fill:#231F20;" d="M276.9,376.5c0.7,0,1.2-0.6,1.2-1.2c0-0.7-0.6-1.2-1.2-1.2c-0.7,0-1.2,0.6-1.2,1.2
		C275.6,375.9,276.2,376.5,276.9,376.5z"/>
	<path style="fill:#231F20;" d="M264.5,376.5c0.7,0,1.2-0.6,1.2-1.2c0-0.7-0.6-1.2-1.2-1.2c-0.7,0-1.2,0.6-1.2,1.2
		C263.3,375.9,263.8,376.5,264.5,376.5z"/>
	<path style="fill:#231F20;" d="M252.1,376.5c0.7,0,1.2-0.6,1.2-1.2c0-0.7-0.6-1.2-1.2-1.2c-0.7,0-1.2,0.6-1.2,1.2
		C250.9,375.9,251.4,376.5,252.1,376.5z"/>
	<path style="fill:#231F20;" d="M264.5,364.1c0.7,0,1.2-0.6,1.2-1.2c0-0.7-0.6-1.2-1.2-1.2c-0.7,0-1.2,0.6-1.2,1.2
		C263.3,363.5,263.8,364.1,264.5,364.1z"/>
	<path style="fill:#231F20;" d="M252.1,364.1c0.7,0,1.2-0.6,1.2-1.2c0-0.7-0.6-1.2-1.2-1.2c-0.7,0-1.2,0.6-1.2,1.2
		C250.9,363.5,251.4,364.1,252.1,364.1z"/>
	<path style="fill:#231F20;" d="M252.1,351.7c0.7,0,1.2-0.6,1.2-1.2c0-0.7-0.6-1.2-1.2-1.2c-0.7,0-1.2,0.6-1.2,1.2
		C250.9,351.1,251.4,351.7,252.1,351.7z"/>
	<path style="fill:#231F20;" d="M239.7,351.7c0.7,0,1.2-0.6,1.2-1.2c0-0.7-0.6-1.2-1.2-1.2c-0.7,0-1.2,0.6-1.2,1.2
		C238.5,351.1,239,351.7,239.7,351.7z"/>
	<path style="fill:#231F20;" d="M239.7,350.4"/>
	<path style="fill:#231F20;" d="M258.3,370.3c0.7,0,1.2-0.6,1.2-1.2c0-0.7-0.6-1.2-1.2-1.2c-0.7,0-1.2,0.6-1.2,1.2
		C257.1,369.7,257.6,370.3,258.3,370.3z"/>
	<path style="fill:#231F20;" d="M270.7,370.3c0.7,0,1.2-0.6,1.2-1.2c0-0.7-0.6-1.2-1.2-1.2c-0.7,0-1.2,0.6-1.2,1.2
		C269.4,369.7,270,370.3,270.7,370.3z"/>
	<path style="fill:#231F20;" d="M258.3,357.9c0.7,0,1.2-0.6,1.2-1.2c0-0.7-0.6-1.2-1.2-1.2c-0.7,0-1.2,0.6-1.2,1.2
		C257.1,357.3,257.6,357.9,258.3,357.9z"/>
	<path style="fill:#231F20;" d="M245.9,357.9c0.7,0,1.2-0.6,1.2-1.2c0-0.7-0.6-1.2-1.2-1.2c-0.7,0-1.2,0.6-1.2,1.2
		C244.7,357.3,245.2,357.9,245.9,357.9z"/>
	<path style="fill:#231F20;" d="M245.9,356.6"/>
	<path style="fill:#231F20;" d="M276.9,401.2c0.7,0,1.2-0.6,1.2-1.2c0-0.7-0.6-1.2-1.2-1.2c-0.7,0-1.2,0.6-1.2,1.2
		C275.6,400.7,276.2,401.2,276.9,401.2z"/>
	<path style="fill:#231F20;" d="M264.5,401.2c0.7,0,1.2-0.6,1.2-1.2c0-0.7-0.6-1.2-1.2-1.2c-0.7,0-1.2,0.6-1.2,1.2
		C263.3,400.7,263.8,401.2,264.5,401.2z"/>
	<path style="fill:#231F20;" d="M252.1,401.2c0.7,0,1.2-0.6,1.2-1.2c0-0.7-0.6-1.2-1.2-1.2c-0.7,0-1.2,0.6-1.2,1.2
		C250.9,400.7,251.4,401.2,252.1,401.2z"/>
	<path style="fill:#231F20;" d="M276.9,388.8c0.7,0,1.2-0.6,1.2-1.2c0-0.7-0.6-1.2-1.2-1.2c-0.7,0-1.2,0.6-1.2,1.2
		C275.6,388.3,276.2,388.8,276.9,388.8z"/>
	<path style="fill:#231F20;" d="M264.5,388.8c0.7,0,1.2-0.6,1.2-1.2c0-0.7-0.6-1.2-1.2-1.2c-0.7,0-1.2,0.6-1.2,1.2
		C263.3,388.3,263.8,388.8,264.5,388.8z"/>
	<path style="fill:#231F20;" d="M252.1,388.8c0.7,0,1.2-0.6,1.2-1.2c0-0.7-0.6-1.2-1.2-1.2c-0.7,0-1.2,0.6-1.2,1.2
		C250.9,388.3,251.4,388.8,252.1,388.8z"/>
	<path style="fill:#231F20;" d="M276.9,376.5c0.7,0,1.2-0.6,1.2-1.2c0-0.7-0.6-1.2-1.2-1.2c-0.7,0-1.2,0.6-1.2,1.2
		C275.6,376,276,376.4,276.9,376.5z"/>
	<path style="fill:#231F20;" d="M264.5,376.5c0.7,0,1.2-0.6,1.2-1.2c0-0.7-0.6-1.2-1.2-1.2c-0.7,0-1.2,0.6-1.2,1.2
		C263.3,375.9,263.8,376.5,264.5,376.5z"/>
	<path style="fill:#231F20;" d="M252.1,376.5c0.7,0,1.2-0.6,1.2-1.2c0-0.7-0.6-1.2-1.2-1.2c-0.7,0-1.2,0.6-1.2,1.2
		C250.9,375.9,251.4,376.5,252.1,376.5z"/>
	<path style="fill:#231F20;" d="M239.7,376.5c0.7,0,1.2-0.6,1.2-1.2c0-0.7-0.6-1.2-1.2-1.2c-0.7,0-1.2,0.6-1.2,1.2
		C238.5,375.9,239,376.5,239.7,376.5z"/>
	<path style="fill:#231F20;" d="M239.7,375.2"/>
	<path style="fill:#231F20;" d="M258.3,395c0.7,0,1.2-0.6,1.2-1.2c0-0.7-0.6-1.2-1.2-1.2c-0.7,0-1.2,0.6-1.2,1.2
		C257.1,394.5,257.6,395,258.3,395z"/>
	<path style="fill:#231F20;" d="M270.7,395c0.7,0,1.2-0.6,1.2-1.2c0-0.7-0.6-1.2-1.2-1.2c-0.7,0-1.2,0.6-1.2,1.2
		C269.4,394.5,270,395,270.7,395z"/>
	<path style="fill:#231F20;" d="M258.3,382.6c0.7,0,1.2-0.6,1.2-1.2c0-0.7-0.6-1.2-1.2-1.2c-0.7,0-1.2,0.6-1.2,1.2
		C257.1,382.1,257.6,382.6,258.3,382.6z"/>
	<path style="fill:#231F20;" d="M270.7,382.6c0.7,0,1.2-0.6,1.2-1.2c0-0.7-0.6-1.2-1.2-1.2c-0.7,0-1.2,0.6-1.2,1.2
		C269.4,382.1,270,382.6,270.7,382.6z"/>
	<path style="fill:#231F20;" d="M245.9,382.6c0.7,0,1.2-0.6,1.2-1.2c0-0.7-0.6-1.2-1.2-1.2c-0.7,0-1.2,0.6-1.2,1.2
		C244.7,382.1,245.2,382.6,245.9,382.6z"/>
	<path style="fill:#231F20;" d="M245.9,381.4"/>
	<path style="fill:#231F20;" d="M252.1,426c0.7,0,1.2-0.6,1.2-1.2c0-0.7-0.6-1.2-1.2-1.2c-0.7,0-1.2,0.6-1.2,1.2
		C250.9,425.4,251.4,426,252.1,426z"/>
	<path style="fill:#231F20;" d="M264.5,413.6c0.7,0,1.2-0.6,1.2-1.2c0-0.7-0.6-1.2-1.2-1.2c-0.7,0-1.2,0.6-1.2,1.2
		C263.3,413.1,263.8,413.6,264.5,413.6z"/>
	<path style="fill:#231F20;" d="M252.1,413.6c0.7,0,1.2-0.6,1.2-1.2c0-0.7-0.6-1.2-1.2-1.2c-0.7,0-1.2,0.6-1.2,1.2
		C250.9,413.1,251.4,413.6,252.1,413.6z"/>
	<path style="fill:#231F20;" d="M276.9,401.2c0.7,0,1.2-0.6,1.2-1.2c0-0.7-0.6-1.2-1.2-1.2c-0.7,0-1.2,0.6-1.2,1.2
		C275.6,400.7,276,401.2,276.9,401.2z"/>
	<path style="fill:#231F20;" d="M264.5,401.2c0.7,0,1.2-0.6,1.2-1.2c0-0.7-0.6-1.2-1.2-1.2c-0.7,0-1.2,0.6-1.2,1.2
		C263.3,400.7,263.8,401.2,264.5,401.2z"/>
	<path style="fill:#231F20;" d="M252.1,401.2c0.7,0,1.2-0.6,1.2-1.2c0-0.7-0.6-1.2-1.2-1.2c-0.7,0-1.2,0.6-1.2,1.2
		C250.9,400.7,251.4,401.2,252.1,401.2z"/>
	<path style="fill:#231F20;" d="M239.7,401.2c0.7,0,1.2-0.6,1.2-1.2c0-0.7-0.6-1.2-1.2-1.2c-0.7,0-1.2,0.6-1.2,1.2
		C238.5,400.7,239,401.2,239.7,401.2z"/>
	<path style="fill:#231F20;" d="M239.7,400"/>
	<path style="fill:#231F20;" d="M258.3,419.8c0.7,0,1.2-0.6,1.2-1.2c0-0.7-0.6-1.2-1.2-1.2c-0.7,0-1.2,0.6-1.2,1.2
		C257.1,419.3,257.6,419.8,258.3,419.8z"/>
	<path style="fill:#231F20;" d="M258.3,407.4c0.7,0,1.2-0.6,1.2-1.2c0-0.7-0.6-1.2-1.2-1.2c-0.7,0-1.2,0.6-1.2,1.2
		C257.1,406.9,257.6,407.4,258.3,407.4z"/>
	<path style="fill:#231F20;" d="M270.7,407.4c0.7,0,1.2-0.6,1.2-1.2c0-0.7-0.6-1.2-1.2-1.2c-0.7,0-1.2,0.6-1.2,1.2
		C269.4,406.9,270,407.4,270.7,407.4z"/>
	<path style="fill:#231F20;" d="M245.9,407.4c0.7,0,1.2-0.6,1.2-1.2c0-0.7-0.6-1.2-1.2-1.2c-0.7,0-1.2,0.6-1.2,1.2
		C244.7,406.9,245.2,407.4,245.9,407.4z"/>
	<path style="fill:#231F20;" d="M245.9,406.2"/>
	<path style="fill:#231F20;" d="M252.1,426c0.7,0,1.2-0.6,1.2-1.2c0-0.7-0.6-1.2-1.2-1.2c-0.7,0-1.2,0.6-1.2,1.2
		C250.9,425.4,251.4,426,252.1,426z"/>
	<path style="fill:#231F20;" d="M239.7,426c0.7,0,1.2-0.6,1.2-1.2c0-0.7-0.6-1.2-1.2-1.2c-0.7,0-1.2,0.6-1.2,1.2
		C238.5,425.4,239,426,239.7,426z"/>
	<path style="fill:#231F20;" d="M239.7,424.8"/>
	<path style="fill:#231F20;" d="M252.1,351.7c0.7,0,1.2-0.6,1.2-1.2c0-0.7-0.6-1.2-1.2-1.2c-0.7,0-1.2,0.6-1.2,1.2
		C250.9,351.1,251.4,351.7,252.1,351.7z"/>
	<path style="fill:#231F20;" d="M239.7,351.7c0.7,0,1.2-0.6,1.2-1.2c0-0.7-0.6-1.2-1.2-1.2c-0.7,0-1.2,0.6-1.2,1.2
		C238.5,351.1,239,351.7,239.7,351.7z"/>
	<path style="fill:#231F20;" d="M227.3,351.7c0.7,0,1.2-0.6,1.2-1.2c0-0.7-0.6-1.2-1.2-1.2c-0.7,0-1.2,0.6-1.2,1.2
		C226.1,351.1,226.6,351.7,227.3,351.7z"/>
	<path style="fill:#231F20;" d="M252.1,376.5c0.7,0,1.2-0.6,1.2-1.2c0-0.7-0.6-1.2-1.2-1.2c-0.7,0-1.2,0.6-1.2,1.2
		C250.9,375.9,251.4,376.5,252.1,376.5z"/>
	<path style="fill:#231F20;" d="M239.7,376.5c0.7,0,1.2-0.6,1.2-1.2c0-0.7-0.6-1.2-1.2-1.2c-0.7,0-1.2,0.6-1.2,1.2
		C238.5,375.9,239,376.5,239.7,376.5z"/>
	<path style="fill:#231F20;" d="M227.3,376.5c0.7,0,1.2-0.6,1.2-1.2c0-0.7-0.6-1.2-1.2-1.2c-0.7,0-1.2,0.6-1.2,1.2
		C226.1,375.9,226.6,376.5,227.3,376.5z"/>
	<path style="fill:#231F20;" d="M252.1,364.1c0.7,0,1.2-0.6,1.2-1.2c0-0.7-0.6-1.2-1.2-1.2c-0.7,0-1.2,0.6-1.2,1.2
		C250.9,363.5,251.4,364.1,252.1,364.1z"/>
	<path style="fill:#231F20;" d="M239.7,364.1c0.7,0,1.2-0.6,1.2-1.2c0-0.7-0.6-1.2-1.2-1.2c-0.7,0-1.2,0.6-1.2,1.2
		C238.5,363.5,239,364.1,239.7,364.1z"/>
	<path style="fill:#231F20;" d="M227.3,364.1c0.7,0,1.2-0.6,1.2-1.2c0-0.7-0.6-1.2-1.2-1.2c-0.7,0-1.2,0.6-1.2,1.2
		C226.1,363.5,226.6,364.1,227.3,364.1z"/>
	<path style="fill:#231F20;" d="M252.1,351.7c0.7,0,1.2-0.6,1.2-1.2c0-0.7-0.6-1.2-1.2-1.2c-0.7,0-1.2,0.6-1.2,1.2
		C250.9,351.2,251.2,351.6,252.1,351.7z"/>
	<path style="fill:#231F20;" d="M239.7,351.7c0.7,0,1.2-0.6,1.2-1.2c0-0.7-0.6-1.2-1.2-1.2c-0.7,0-1.2,0.6-1.2,1.2
		C238.5,351.1,239,351.7,239.7,351.7z"/>
	<path style="fill:#231F20;" d="M227.3,351.7c0.7,0,1.2-0.6,1.2-1.2c0-0.7-0.6-1.2-1.2-1.2c-0.7,0-1.2,0.6-1.2,1.2
		C226.1,351.1,226.6,351.7,227.3,351.7z"/>
	<path style="fill:#231F20;" d="M233.5,370.3c0.7,0,1.2-0.6,1.2-1.2c0-0.7-0.6-1.2-1.2-1.2c-0.7,0-1.2,0.6-1.2,1.2
		C232.3,369.7,232.8,370.3,233.5,370.3z"/>
	<path style="fill:#231F20;" d="M245.9,370.3c0.7,0,1.2-0.6,1.2-1.2c0-0.7-0.6-1.2-1.2-1.2c-0.7,0-1.2,0.6-1.2,1.2
		C244.7,369.7,245.2,370.3,245.9,370.3z"/>
	<path style="fill:#231F20;" d="M233.5,357.9c0.7,0,1.2-0.6,1.2-1.2c0-0.7-0.6-1.2-1.2-1.2c-0.7,0-1.2,0.6-1.2,1.2
		C232.3,357.3,232.8,357.9,233.5,357.9z"/>
	<path style="fill:#231F20;" d="M245.9,357.9c0.7,0,1.2-0.6,1.2-1.2c0-0.7-0.6-1.2-1.2-1.2c-0.7,0-1.2,0.6-1.2,1.2
		C244.7,357.3,245.2,357.9,245.9,357.9z"/>
	<path style="fill:#231F20;" d="M221.1,357.9c0.7,0,1.2-0.6,1.2-1.2c0-0.7-0.6-1.2-1.2-1.2c-0.7,0-1.2,0.6-1.2,1.2
		C219.9,357.3,220.5,357.9,221.1,357.9z"/>
	<path style="fill:#231F20;" d="M221.1,356.6"/>
	<path style="fill:#231F20;" d="M252.1,401.2c0.7,0,1.2-0.6,1.2-1.2c0-0.7-0.6-1.2-1.2-1.2c-0.7,0-1.2,0.6-1.2,1.2
		C250.9,400.7,251.4,401.2,252.1,401.2z"/>
	<path style="fill:#231F20;" d="M239.7,401.2c0.7,0,1.2-0.6,1.2-1.2c0-0.7-0.6-1.2-1.2-1.2c-0.7,0-1.2,0.6-1.2,1.2
		C238.5,400.7,239,401.2,239.7,401.2z"/>
	<path style="fill:#231F20;" d="M227.3,401.2c0.7,0,1.2-0.6,1.2-1.2c0-0.7-0.6-1.2-1.2-1.2c-0.7,0-1.2,0.6-1.2,1.2
		C226.1,400.7,226.6,401.2,227.3,401.2z"/>
	<path style="fill:#231F20;" d="M252.1,388.8c0.7,0,1.2-0.6,1.2-1.2c0-0.7-0.6-1.2-1.2-1.2c-0.7,0-1.2,0.6-1.2,1.2
		C250.9,388.3,251.4,388.8,252.1,388.8z"/>
	<path style="fill:#231F20;" d="M239.7,388.8c0.7,0,1.2-0.6,1.2-1.2c0-0.7-0.6-1.2-1.2-1.2c-0.7,0-1.2,0.6-1.2,1.2
		C238.5,388.3,239,388.8,239.7,388.8z"/>
	<path style="fill:#231F20;" d="M227.3,388.8c0.7,0,1.2-0.6,1.2-1.2c0-0.7-0.6-1.2-1.2-1.2c-0.7,0-1.2,0.6-1.2,1.2
		C226.1,388.3,226.6,388.8,227.3,388.8z"/>
	<path style="fill:#231F20;" d="M252.1,376.5c0.7,0,1.2-0.6,1.2-1.2c0-0.7-0.6-1.2-1.2-1.2c-0.7,0-1.2,0.6-1.2,1.2
		C250.9,376,251.2,376.4,252.1,376.5z"/>
	<path style="fill:#231F20;" d="M239.7,376.5c0.7,0,1.2-0.6,1.2-1.2c0-0.7-0.6-1.2-1.2-1.2c-0.7,0-1.2,0.6-1.2,1.2
		C238.5,375.9,239,376.5,239.7,376.5z"/>
	<path style="fill:#231F20;" d="M227.3,376.5c0.7,0,1.2-0.6,1.2-1.2c0-0.7-0.6-1.2-1.2-1.2c-0.7,0-1.2,0.6-1.2,1.2
		C226.1,375.9,226.6,376.5,227.3,376.5z"/>
	<path style="fill:#231F20;" d="M214.9,376.5c0.7,0,1.2-0.6,1.2-1.2c0-0.7-0.6-1.2-1.2-1.2c-0.7,0-1.2,0.6-1.2,1.2
		C213.7,375.9,214.3,376.5,214.9,376.5z"/>
	<path style="fill:#231F20;" d="M214.9,375.2"/>
	<path style="fill:#231F20;" d="M233.5,395c0.7,0,1.2-0.6,1.2-1.2c0-0.7-0.6-1.2-1.2-1.2c-0.7,0-1.2,0.6-1.2,1.2
		C232.3,394.5,232.8,395,233.5,395z"/>
	<path style="fill:#231F20;" d="M245.9,395c0.7,0,1.2-0.6,1.2-1.2c0-0.7-0.6-1.2-1.2-1.2c-0.7,0-1.2,0.6-1.2,1.2
		C244.7,394.5,245.2,395,245.9,395z"/>
	<path style="fill:#231F20;" d="M233.5,382.6c0.7,0,1.2-0.6,1.2-1.2c0-0.7-0.6-1.2-1.2-1.2c-0.7,0-1.2,0.6-1.2,1.2
		C232.3,382.1,232.8,382.6,233.5,382.6z"/>
	<path style="fill:#231F20;" d="M245.9,382.6c0.7,0,1.2-0.6,1.2-1.2c0-0.7-0.6-1.2-1.2-1.2c-0.7,0-1.2,0.6-1.2,1.2
		C244.7,382.1,245.2,382.6,245.9,382.6z"/>
	<path style="fill:#231F20;" d="M221.1,382.6c0.7,0,1.2-0.6,1.2-1.2c0-0.7-0.6-1.2-1.2-1.2c-0.7,0-1.2,0.6-1.2,1.2
		C219.9,382.1,220.5,382.6,221.1,382.6z"/>
	<path style="fill:#231F20;" d="M221.1,381.4"/>
	<path style="fill:#231F20;" d="M252.1,426c0.7,0,1.2-0.6,1.2-1.2c0-0.7-0.6-1.2-1.2-1.2c-0.7,0-1.2,0.6-1.2,1.2
		C250.9,425.4,251.4,426,252.1,426z"/>
	<path style="fill:#231F20;" d="M239.7,426c0.7,0,1.2-0.6,1.2-1.2c0-0.7-0.6-1.2-1.2-1.2c-0.7,0-1.2,0.6-1.2,1.2
		C238.5,425.4,239,426,239.7,426z"/>
	<path style="fill:#231F20;" d="M227.3,426c0.7,0,1.2-0.6,1.2-1.2c0-0.7-0.6-1.2-1.2-1.2c-0.7,0-1.2,0.6-1.2,1.2
		C226.1,425.4,226.6,426,227.3,426z"/>
	<path style="fill:#231F20;" d="M252.1,413.6c0.7,0,1.2-0.6,1.2-1.2c0-0.7-0.6-1.2-1.2-1.2c-0.7,0-1.2,0.6-1.2,1.2
		C250.9,413.1,251.4,413.6,252.1,413.6z"/>
	<path style="fill:#231F20;" d="M239.7,413.6c0.7,0,1.2-0.6,1.2-1.2c0-0.7-0.6-1.2-1.2-1.2c-0.7,0-1.2,0.6-1.2,1.2
		C238.5,413.1,239,413.6,239.7,413.6z"/>
	<path style="fill:#231F20;" d="M227.3,413.6c0.7,0,1.2-0.6,1.2-1.2c0-0.7-0.6-1.2-1.2-1.2c-0.7,0-1.2,0.6-1.2,1.2
		C226.1,413.1,226.6,413.6,227.3,413.6z"/>
	<path style="fill:#231F20;" d="M252.1,401.2c0.7,0,1.2-0.6,1.2-1.2c0-0.7-0.6-1.2-1.2-1.2c-0.7,0-1.2,0.6-1.2,1.2
		C250.9,400.7,251.2,401.2,252.1,401.2z"/>
	<path style="fill:#231F20;" d="M239.7,401.2c0.7,0,1.2-0.6,1.2-1.2c0-0.7-0.6-1.2-1.2-1.2c-0.7,0-1.2,0.6-1.2,1.2
		C238.5,400.7,239,401.2,239.7,401.2z"/>
	<path style="fill:#231F20;" d="M227.3,401.2c0.7,0,1.2-0.6,1.2-1.2c0-0.7-0.6-1.2-1.2-1.2c-0.7,0-1.2,0.6-1.2,1.2
		C226.1,400.7,226.6,401.2,227.3,401.2z"/>
	<path style="fill:#231F20;" d="M214.9,401.2c0.7,0,1.2-0.6,1.2-1.2c0-0.7-0.6-1.2-1.2-1.2c-0.7,0-1.2,0.6-1.2,1.2
		C213.7,400.7,214.3,401.2,214.9,401.2z"/>
	<path style="fill:#231F20;" d="M214.9,400"/>
	<path style="fill:#231F20;" d="M233.5,419.8c0.7,0,1.2-0.6,1.2-1.2c0-0.7-0.6-1.2-1.2-1.2c-0.7,0-1.2,0.6-1.2,1.2
		C232.3,419.3,232.8,419.8,233.5,419.8z"/>
	<path style="fill:#231F20;" d="M245.9,419.8c0.7,0,1.2-0.6,1.2-1.2c0-0.7-0.6-1.2-1.2-1.2c-0.7,0-1.2,0.6-1.2,1.2
		C244.7,419.3,245.2,419.8,245.9,419.8z"/>
	<path style="fill:#231F20;" d="M233.5,407.4c0.7,0,1.2-0.6,1.2-1.2c0-0.7-0.6-1.2-1.2-1.2c-0.7,0-1.2,0.6-1.2,1.2
		C232.3,406.9,232.8,407.4,233.5,407.4z"/>
	<path style="fill:#231F20;" d="M245.9,407.4c0.7,0,1.2-0.6,1.2-1.2c0-0.7-0.6-1.2-1.2-1.2c-0.7,0-1.2,0.6-1.2,1.2
		C244.7,406.9,245.2,407.4,245.9,407.4z"/>
	<path style="fill:#231F20;" d="M221.1,407.4c0.7,0,1.2-0.6,1.2-1.2c0-0.7-0.6-1.2-1.2-1.2c-0.7,0-1.2,0.6-1.2,1.2
		C219.9,406.9,220.5,407.4,221.1,407.4z"/>
	<path style="fill:#231F20;" d="M221.1,406.2"/>
	<path style="fill:#231F20;" d="M252.1,426c0.7,0,1.2-0.6,1.2-1.2c0-0.7-0.6-1.2-1.2-1.2c-0.7,0-1.2,0.6-1.2,1.2
		C250.9,425.5,251.2,426,252.1,426z"/>
	<path style="fill:#231F20;" d="M239.7,426c0.7,0,1.2-0.6,1.2-1.2c0-0.7-0.6-1.2-1.2-1.2c-0.7,0-1.2,0.6-1.2,1.2
		C238.5,425.4,239,426,239.7,426z"/>
	<path style="fill:#231F20;" d="M227.3,426c0.7,0,1.2-0.6,1.2-1.2c0-0.7-0.6-1.2-1.2-1.2c-0.7,0-1.2,0.6-1.2,1.2
		C226.1,425.4,226.6,426,227.3,426z"/>
	<path style="fill:#231F20;" d="M227.3,351.7c0.7,0,1.2-0.6,1.2-1.2c0-0.7-0.6-1.2-1.2-1.2c-0.7,0-1.2,0.6-1.2,1.2
		C226.1,351.1,226.6,351.7,227.3,351.7z"/>
	<path style="fill:#231F20;" d="M227.3,376.5c0.7,0,1.2-0.6,1.2-1.2c0-0.7-0.6-1.2-1.2-1.2c-0.7,0-1.2,0.6-1.2,1.2
		C226.1,375.9,226.6,376.5,227.3,376.5z"/>
	<path style="fill:#231F20;" d="M214.9,376.5c0.7,0,1.2-0.6,1.2-1.2c0-0.7-0.6-1.2-1.2-1.2c-0.7,0-1.2,0.6-1.2,1.2
		C213.7,375.9,214.3,376.5,214.9,376.5z"/>
	<path style="fill:#231F20;" d="M202.6,376.5c0.7,0,1.2-0.6,1.2-1.2c0-0.7-0.6-1.2-1.2-1.2c-0.7,0-1.2,0.6-1.2,1.2
		C201.3,375.9,201.9,376.5,202.6,376.5z"/>
	<path style="fill:#231F20;" d="M227.3,364.1c0.7,0,1.2-0.6,1.2-1.2c0-0.7-0.6-1.2-1.2-1.2c-0.7,0-1.2,0.6-1.2,1.2
		C226.1,363.5,226.6,364.1,227.3,364.1z"/>
	<path style="fill:#231F20;" d="M214.9,364.1c0.7,0,1.2-0.6,1.2-1.2c0-0.7-0.6-1.2-1.2-1.2c-0.7,0-1.2,0.6-1.2,1.2
		C213.7,363.5,214.3,364.1,214.9,364.1z"/>
	<path style="fill:#231F20;" d="M227.3,351.7c0.7,0,1.2-0.6,1.2-1.2c0-0.7-0.6-1.2-1.2-1.2c-0.7,0-1.2,0.6-1.2,1.2
		C226.1,351.2,226.4,351.6,227.3,351.7z"/>
	<path style="fill:#231F20;" d="M208.8,370.3c0.7,0,1.2-0.6,1.2-1.2c0-0.7-0.6-1.2-1.2-1.2c-0.7,0-1.2,0.6-1.2,1.2
		C207.5,369.7,208.1,370.3,208.8,370.3z"/>
	<path style="fill:#231F20;" d="M221.1,370.3c0.7,0,1.2-0.6,1.2-1.2c0-0.7-0.6-1.2-1.2-1.2c-0.7,0-1.2,0.6-1.2,1.2
		C219.9,369.7,220.5,370.3,221.1,370.3z"/>
	<path style="fill:#231F20;" d="M221.1,357.9c0.7,0,1.2-0.6,1.2-1.2c0-0.7-0.6-1.2-1.2-1.2c-0.7,0-1.2,0.6-1.2,1.2
		C219.9,357.3,220.5,357.9,221.1,357.9z"/>
	<path style="fill:#231F20;" d="M227.3,401.2c0.7,0,1.2-0.6,1.2-1.2c0-0.7-0.6-1.2-1.2-1.2c-0.7,0-1.2,0.6-1.2,1.2
		C226.1,400.7,226.6,401.2,227.3,401.2z"/>
	<path style="fill:#231F20;" d="M214.9,401.2c0.7,0,1.2-0.6,1.2-1.2c0-0.7-0.6-1.2-1.2-1.2c-0.7,0-1.2,0.6-1.2,1.2
		C213.7,400.7,214.3,401.2,214.9,401.2z"/>
	<path style="fill:#231F20;" d="M202.6,401.2c0.7,0,1.2-0.6,1.2-1.2c0-0.7-0.6-1.2-1.2-1.2c-0.7,0-1.2,0.6-1.2,1.2
		C201.3,400.7,201.9,401.2,202.6,401.2z"/>
	<path style="fill:#231F20;" d="M227.3,388.8c0.7,0,1.2-0.6,1.2-1.2c0-0.7-0.6-1.2-1.2-1.2c-0.7,0-1.2,0.6-1.2,1.2
		C226.1,388.3,226.6,388.8,227.3,388.8z"/>
	<path style="fill:#231F20;" d="M214.9,388.8c0.7,0,1.2-0.6,1.2-1.2c0-0.7-0.6-1.2-1.2-1.2c-0.7,0-1.2,0.6-1.2,1.2
		C213.7,388.3,214.3,388.8,214.9,388.8z"/>
	<path style="fill:#231F20;" d="M202.6,388.8c0.7,0,1.2-0.6,1.2-1.2c0-0.7-0.6-1.2-1.2-1.2c-0.7,0-1.2,0.6-1.2,1.2
		C201.3,388.3,201.9,388.8,202.6,388.8z"/>
	<path style="fill:#231F20;" d="M227.3,376.5c0.7,0,1.2-0.6,1.2-1.2c0-0.7-0.6-1.2-1.2-1.2c-0.7,0-1.2,0.6-1.2,1.2
		C226.1,376,226.4,376.4,227.3,376.5z"/>
	<path style="fill:#231F20;" d="M214.9,376.5c0.7,0,1.2-0.6,1.2-1.2c0-0.7-0.6-1.2-1.2-1.2c-0.7,0-1.2,0.6-1.2,1.2
		C213.7,375.9,214.3,376.5,214.9,376.5z"/>
	<path style="fill:#231F20;" d="M202.6,376.5c0.7,0,1.2-0.6,1.2-1.2c0-0.7-0.6-1.2-1.2-1.2c-0.7,0-1.2,0.6-1.2,1.2
		C201.3,375.9,201.9,376.5,202.6,376.5z"/>
	<path style="fill:#231F20;" d="M208.8,395c0.7,0,1.2-0.6,1.2-1.2c0-0.7-0.6-1.2-1.2-1.2c-0.7,0-1.2,0.6-1.2,1.2
		C207.5,394.5,208.1,395,208.8,395z"/>
	<path style="fill:#231F20;" d="M221.1,395c0.7,0,1.2-0.6,1.2-1.2c0-0.7-0.6-1.2-1.2-1.2c-0.7,0-1.2,0.6-1.2,1.2
		C219.9,394.5,220.5,395,221.1,395z"/>
	<path style="fill:#231F20;" d="M208.8,382.6c0.7,0,1.2-0.6,1.2-1.2c0-0.7-0.6-1.2-1.2-1.2c-0.7,0-1.2,0.6-1.2,1.2
		C207.5,382.1,208.1,382.6,208.8,382.6z"/>
	<path style="fill:#231F20;" d="M221.1,382.6c0.7,0,1.2-0.6,1.2-1.2c0-0.7-0.6-1.2-1.2-1.2c-0.7,0-1.2,0.6-1.2,1.2
		C219.9,382.1,220.5,382.6,221.1,382.6z"/>
	<path style="fill:#231F20;" d="M227.3,426c0.7,0,1.2-0.6,1.2-1.2c0-0.7-0.6-1.2-1.2-1.2c-0.7,0-1.2,0.6-1.2,1.2
		C226.1,425.4,226.6,426,227.3,426z"/>
	<path style="fill:#231F20;" d="M227.3,413.6c0.7,0,1.2-0.6,1.2-1.2c0-0.7-0.6-1.2-1.2-1.2c-0.7,0-1.2,0.6-1.2,1.2
		C226.1,413.1,226.6,413.6,227.3,413.6z"/>
	<path style="fill:#231F20;" d="M214.9,413.6c0.7,0,1.2-0.6,1.2-1.2c0-0.7-0.6-1.2-1.2-1.2c-0.7,0-1.2,0.6-1.2,1.2
		C213.7,413.1,214.3,413.6,214.9,413.6z"/>
	<path style="fill:#231F20;" d="M227.3,401.2c0.7,0,1.2-0.6,1.2-1.2c0-0.7-0.6-1.2-1.2-1.2c-0.7,0-1.2,0.6-1.2,1.2
		C226.1,400.7,226.4,401.2,227.3,401.2z"/>
	<path style="fill:#231F20;" d="M214.9,401.2c0.7,0,1.2-0.6,1.2-1.2c0-0.7-0.6-1.2-1.2-1.2c-0.7,0-1.2,0.6-1.2,1.2
		C213.7,400.7,214.3,401.2,214.9,401.2z"/>
	<path style="fill:#231F20;" d="M202.6,401.2c0.7,0,1.2-0.6,1.2-1.2c0-0.7-0.6-1.2-1.2-1.2c-0.7,0-1.2,0.6-1.2,1.2
		C201.3,400.7,201.9,401.2,202.6,401.2z"/>
	<path style="fill:#231F20;" d="M221.1,419.8c0.7,0,1.2-0.6,1.2-1.2c0-0.7-0.6-1.2-1.2-1.2c-0.7,0-1.2,0.6-1.2,1.2
		C219.9,419.3,220.5,419.8,221.1,419.8z"/>
	<path style="fill:#231F20;" d="M208.8,407.4c0.7,0,1.2-0.6,1.2-1.2c0-0.7-0.6-1.2-1.2-1.2c-0.7,0-1.2,0.6-1.2,1.2
		C207.5,406.9,208.1,407.4,208.8,407.4z"/>
	<path style="fill:#231F20;" d="M221.1,407.4c0.7,0,1.2-0.6,1.2-1.2c0-0.7-0.6-1.2-1.2-1.2c-0.7,0-1.2,0.6-1.2,1.2
		C219.9,406.9,220.5,407.4,221.1,407.4z"/>
	<path style="fill:#231F20;" d="M227.3,426c0.7,0,1.2-0.6,1.2-1.2c0-0.7-0.6-1.2-1.2-1.2c-0.7,0-1.2,0.6-1.2,1.2
		C226.1,425.5,226.4,426,227.3,426z"/>
	<path style="fill:#231F20;" d="M202.6,376.5c0.7,0,1.2-0.6,1.2-1.2c0-0.7-0.6-1.2-1.2-1.2c-0.7,0-1.2,0.6-1.2,1.2
		C201.3,375.9,201.9,376.5,202.6,376.5z"/>
	<path style="fill:#231F20;" d="M202.6,401.2c0.7,0,1.2-0.6,1.2-1.2c0-0.7-0.6-1.2-1.2-1.2c-0.7,0-1.2,0.6-1.2,1.2
		C201.3,400.7,201.9,401.2,202.6,401.2z"/>
	<path style="fill:#231F20;" d="M202.6,388.8c0.7,0,1.2-0.6,1.2-1.2c0-0.7-0.6-1.2-1.2-1.2c-0.7,0-1.2,0.6-1.2,1.2
		C201.3,388.3,201.9,388.8,202.6,388.8z"/>
	<path style="fill:#231F20;" d="M202.6,376.5c0.7,0,1.2-0.6,1.2-1.2c0-0.7-0.6-1.2-1.2-1.2c-0.7,0-1.2,0.6-1.2,1.2
		C201.3,376,201.6,376.4,202.6,376.5z"/>
	<path style="fill:#231F20;" d="M202.6,401.2c0.7,0,1.2-0.6,1.2-1.2c0-0.7-0.6-1.2-1.2-1.2c-0.7,0-1.2,0.6-1.2,1.2
		C201.3,400.7,201.6,401.2,202.6,401.2z"/>
	<path style="fill:#231F20;" d="M358.5,224.1c0.7,0,1.3-0.6,1.3-1.3c0-0.7-0.6-1.3-1.3-1.3c-0.7,0-1.3,0.6-1.3,1.3
		C357.2,223.5,357.8,224.1,358.5,224.1z"/>
	<path style="fill:#231F20;" d="M358.5,250.5c0.7,0,1.3-0.6,1.3-1.3c0-0.7-0.6-1.3-1.3-1.3c-0.7,0-1.3,0.6-1.3,1.3
		C357.2,249.9,357.8,250.5,358.5,250.5z"/>
	<path style="fill:#231F20;" d="M345.3,250.5c0.7,0,1.3-0.6,1.3-1.3c0-0.7-0.6-1.3-1.3-1.3c-0.7,0-1.3,0.6-1.3,1.3
		C344,249.9,344.6,250.5,345.3,250.5z"/>
	<path style="fill:#231F20;" d="M332.2,250.5c0.7,0,1.3-0.6,1.3-1.3c0-0.7-0.6-1.3-1.3-1.3c-0.7,0-1.3,0.6-1.3,1.3
		C330.9,249.9,331.4,250.5,332.2,250.5z"/>
	<path style="fill:#231F20;" d="M358.5,237.3c0.7,0,1.3-0.6,1.3-1.3c0-0.7-0.6-1.3-1.3-1.3c-0.7,0-1.3,0.6-1.3,1.3
		C357.2,236.7,357.8,237.3,358.5,237.3z"/>
	<path style="fill:#231F20;" d="M345.3,237.3c0.7,0,1.3-0.6,1.3-1.3c0-0.7-0.6-1.3-1.3-1.3c-0.7,0-1.3,0.6-1.3,1.3
		C344,236.7,344.6,237.3,345.3,237.3z"/>
	<path style="fill:#231F20;" d="M358.5,224.1c0.7,0,1.3-0.6,1.3-1.3c0-0.7-0.6-1.3-1.3-1.3c-0.7,0-1.3,0.6-1.3,1.3
		C357.2,223.6,357.5,224.1,358.5,224.1z"/>
	<path style="fill:#231F20;" d="M338.8,243.9c0.7,0,1.3-0.6,1.3-1.3c0-0.7-0.6-1.3-1.3-1.3c-0.7,0-1.3,0.6-1.3,1.3
		C337.4,243.3,338,243.9,338.8,243.9z"/>
	<path style="fill:#231F20;" d="M351.9,243.9c0.7,0,1.3-0.6,1.3-1.3c0-0.7-0.6-1.3-1.3-1.3c-0.7,0-1.3,0.6-1.3,1.3
		C350.6,243.3,351.2,243.9,351.9,243.9z"/>
	<path style="fill:#231F20;" d="M351.9,230.7c0.7,0,1.3-0.6,1.3-1.3c0-0.7-0.6-1.3-1.3-1.3c-0.7,0-1.3,0.6-1.3,1.3
		C350.6,230.1,351.2,230.7,351.9,230.7z"/>
	<path style="fill:#231F20;" d="M358.5,276.8c0.7,0,1.3-0.6,1.3-1.3c0-0.7-0.6-1.3-1.3-1.3c-0.7,0-1.3,0.6-1.3,1.3
		C357.2,276.2,357.8,276.8,358.5,276.8z"/>
	<path style="fill:#231F20;" d="M345.3,276.8c0.7,0,1.3-0.6,1.3-1.3c0-0.7-0.6-1.3-1.3-1.3c-0.7,0-1.3,0.6-1.3,1.3
		C344,276.2,344.6,276.8,345.3,276.8z"/>
	<path style="fill:#231F20;" d="M332.2,276.8c0.7,0,1.3-0.6,1.3-1.3c0-0.7-0.6-1.3-1.3-1.3c-0.7,0-1.3,0.6-1.3,1.3
		C330.9,276.2,331.4,276.8,332.2,276.8z"/>
	<path style="fill:#231F20;" d="M358.5,263.6c0.7,0,1.3-0.6,1.3-1.3c0-0.7-0.6-1.3-1.3-1.3c-0.7,0-1.3,0.6-1.3,1.3
		C357.2,263,357.8,263.6,358.5,263.6z"/>
	<path style="fill:#231F20;" d="M345.3,263.6c0.7,0,1.3-0.6,1.3-1.3c0-0.7-0.6-1.3-1.3-1.3c-0.7,0-1.3,0.6-1.3,1.3
		C344,263,344.6,263.6,345.3,263.6z"/>
	<path style="fill:#231F20;" d="M332.2,263.6c0.7,0,1.3-0.6,1.3-1.3c0-0.7-0.6-1.3-1.3-1.3c-0.7,0-1.3,0.6-1.3,1.3
		C330.9,263,331.4,263.6,332.2,263.6z"/>
	<path style="fill:#231F20;" d="M358.5,250.5c0.7,0,1.3-0.6,1.3-1.3c0-0.7-0.6-1.3-1.3-1.3c-0.7,0-1.3,0.6-1.3,1.3
		C357.2,249.9,357.5,250.4,358.5,250.5z"/>
	<path style="fill:#231F20;" d="M345.3,250.5c0.7,0,1.3-0.6,1.3-1.3c0-0.7-0.6-1.3-1.3-1.3c-0.7,0-1.3,0.6-1.3,1.3
		C344,249.9,344.6,250.5,345.3,250.5z"/>
	<path style="fill:#231F20;" d="M332.2,250.5c0.7,0,1.3-0.6,1.3-1.3c0-0.7-0.6-1.3-1.3-1.3c-0.7,0-1.3,0.6-1.3,1.3
		C330.9,249.9,331.4,250.5,332.2,250.5z"/>
	<path style="fill:#231F20;" d="M338.8,270.2c0.7,0,1.3-0.6,1.3-1.3c0-0.7-0.6-1.3-1.3-1.3c-0.7,0-1.3,0.6-1.3,1.3
		C337.4,269.6,338,270.2,338.8,270.2z"/>
	<path style="fill:#231F20;" d="M351.9,270.2c0.7,0,1.3-0.6,1.3-1.3c0-0.7-0.6-1.3-1.3-1.3c-0.7,0-1.3,0.6-1.3,1.3
		C350.6,269.6,351.2,270.2,351.9,270.2z"/>
	<path style="fill:#231F20;" d="M338.8,257c0.7,0,1.3-0.6,1.3-1.3c0-0.7-0.6-1.3-1.3-1.3c-0.7,0-1.3,0.6-1.3,1.3
		C337.4,256.4,338,257,338.8,257z"/>
	<path style="fill:#231F20;" d="M351.9,257c0.7,0,1.3-0.6,1.3-1.3c0-0.7-0.6-1.3-1.3-1.3c-0.7,0-1.3,0.6-1.3,1.3
		C350.6,256.4,351.2,257,351.9,257z"/>
	<path style="fill:#231F20;" d="M325.6,257c0.7,0,1.3-0.6,1.3-1.3c0-0.7-0.6-1.3-1.3-1.3c-0.7,0-1.3,0.6-1.3,1.3
		C324.3,256.4,324.9,257,325.6,257z"/>
	<path style="fill:#231F20;" d="M325.6,255.7"/>
	<path style="fill:#231F20;" d="M358.5,303.1c0.7,0,1.3-0.6,1.3-1.3c0-0.7-0.6-1.3-1.3-1.3c-0.7,0-1.3,0.6-1.3,1.3
		C357.2,302.5,357.8,303.1,358.5,303.1z"/>
	<path style="fill:#231F20;" d="M345.3,303.1c0.7,0,1.3-0.6,1.3-1.3c0-0.7-0.6-1.3-1.3-1.3c-0.7,0-1.3,0.6-1.3,1.3
		C344,302.5,344.6,303.1,345.3,303.1z"/>
	<path style="fill:#231F20;" d="M332.2,303.1c0.7,0,1.3-0.6,1.3-1.3c0-0.7-0.6-1.3-1.3-1.3c-0.7,0-1.3,0.6-1.3,1.3
		C330.9,302.5,331.4,303.1,332.2,303.1z"/>
	<path style="fill:#231F20;" d="M358.5,289.9c0.7,0,1.3-0.6,1.3-1.3c0-0.7-0.6-1.3-1.3-1.3c-0.7,0-1.3,0.6-1.3,1.3
		C357.2,289.4,357.8,289.9,358.5,289.9z"/>
	<path style="fill:#231F20;" d="M345.3,289.9c0.7,0,1.3-0.6,1.3-1.3c0-0.7-0.6-1.3-1.3-1.3c-0.7,0-1.3,0.6-1.3,1.3
		C344,289.4,344.6,289.9,345.3,289.9z"/>
	<path style="fill:#231F20;" d="M332.2,289.9c0.7,0,1.3-0.6,1.3-1.3c0-0.7-0.6-1.3-1.3-1.3c-0.7,0-1.3,0.6-1.3,1.3
		C330.9,289.4,331.4,289.9,332.2,289.9z"/>
	<path style="fill:#231F20;" d="M358.5,276.8c0.7,0,1.3-0.6,1.3-1.3c0-0.7-0.6-1.3-1.3-1.3c-0.7,0-1.3,0.6-1.3,1.3
		C357.2,276.3,357.5,276.7,358.5,276.8z"/>
	<path style="fill:#231F20;" d="M345.3,276.8c0.7,0,1.3-0.6,1.3-1.3c0-0.7-0.6-1.3-1.3-1.3c-0.7,0-1.3,0.6-1.3,1.3
		C344,276.2,344.6,276.8,345.3,276.8z"/>
	<path style="fill:#231F20;" d="M332.2,276.8c0.7,0,1.3-0.6,1.3-1.3c0-0.7-0.6-1.3-1.3-1.3c-0.7,0-1.3,0.6-1.3,1.3
		C330.9,276.2,331.4,276.8,332.2,276.8z"/>
	<path style="fill:#231F20;" d="M319,276.8c0.7,0,1.3-0.6,1.3-1.3c0-0.7-0.6-1.3-1.3-1.3c-0.7,0-1.3,0.6-1.3,1.3
		C317.7,276.2,318.3,276.8,319,276.8z"/>
	<path style="fill:#231F20;" d="M319,275.5"/>
	<path style="fill:#231F20;" d="M338.8,296.5c0.7,0,1.3-0.6,1.3-1.3c0-0.7-0.6-1.3-1.3-1.3c-0.7,0-1.3,0.6-1.3,1.3
		C337.4,295.9,338,296.5,338.8,296.5z"/>
	<path style="fill:#231F20;" d="M351.9,296.5c0.7,0,1.3-0.6,1.3-1.3c0-0.7-0.6-1.3-1.3-1.3c-0.7,0-1.3,0.6-1.3,1.3
		C350.6,295.9,351.2,296.5,351.9,296.5z"/>
	<path style="fill:#231F20;" d="M338.8,283.4c0.7,0,1.3-0.6,1.3-1.3c0-0.7-0.6-1.3-1.3-1.3c-0.7,0-1.3,0.6-1.3,1.3
		C337.4,282.8,338,283.4,338.8,283.4z"/>
	<path style="fill:#231F20;" d="M351.9,283.4c0.7,0,1.3-0.6,1.3-1.3c0-0.7-0.6-1.3-1.3-1.3c-0.7,0-1.3,0.6-1.3,1.3
		C350.6,282.8,351.2,283.4,351.9,283.4z"/>
	<path style="fill:#231F20;" d="M325.6,283.4c0.7,0,1.3-0.6,1.3-1.3c0-0.7-0.6-1.3-1.3-1.3c-0.7,0-1.3,0.6-1.3,1.3
		C324.3,282.8,324.9,283.4,325.6,283.4z"/>
	<path style="fill:#231F20;" d="M325.6,282"/>
	<path style="fill:#231F20;" d="M332.2,250.5c0.7,0,1.3-0.6,1.3-1.3c0-0.7-0.6-1.3-1.3-1.3c-0.7,0-1.3,0.6-1.3,1.3
		C330.9,249.9,331.4,250.5,332.2,250.5z"/>
	<path style="fill:#231F20;" d="M332.2,276.8c0.7,0,1.3-0.6,1.3-1.3c0-0.7-0.6-1.3-1.3-1.3c-0.7,0-1.3,0.6-1.3,1.3
		C330.9,276.2,331.4,276.8,332.2,276.8z"/>
	<path style="fill:#231F20;" d="M319,276.8c0.7,0,1.3-0.6,1.3-1.3c0-0.7-0.6-1.3-1.3-1.3c-0.7,0-1.3,0.6-1.3,1.3
		C317.7,276.2,318.3,276.8,319,276.8z"/>
	<path style="fill:#231F20;" d="M332.2,263.6c0.7,0,1.3-0.6,1.3-1.3c0-0.7-0.6-1.3-1.3-1.3c-0.7,0-1.3,0.6-1.3,1.3
		C330.9,263,331.4,263.6,332.2,263.6z"/>
	<path style="fill:#231F20;" d="M319,263.6c0.7,0,1.3-0.6,1.3-1.3c0-0.7-0.6-1.3-1.3-1.3c-0.7,0-1.3,0.6-1.3,1.3
		C317.7,263,318.3,263.6,319,263.6z"/>
	<path style="fill:#231F20;" d="M332.2,250.5c0.7,0,1.3-0.6,1.3-1.3c0-0.7-0.6-1.3-1.3-1.3c-0.7,0-1.3,0.6-1.3,1.3
		C330.9,249.9,331.2,250.4,332.2,250.5z"/>
	<path style="fill:#231F20;" d="M325.6,270.2c0.7,0,1.3-0.6,1.3-1.3c0-0.7-0.6-1.3-1.3-1.3c-0.7,0-1.3,0.6-1.3,1.3
		C324.3,269.6,324.9,270.2,325.6,270.2z"/>
	<path style="fill:#231F20;" d="M325.6,257c0.7,0,1.3-0.6,1.3-1.3c0-0.7-0.6-1.3-1.3-1.3c-0.7,0-1.3,0.6-1.3,1.3
		C324.3,256.4,324.9,257,325.6,257z"/>
	<path style="fill:#231F20;" d="M332.2,303.1c0.7,0,1.3-0.6,1.3-1.3c0-0.7-0.6-1.3-1.3-1.3c-0.7,0-1.3,0.6-1.3,1.3
		C330.9,302.5,331.4,303.1,332.2,303.1z"/>
	<path style="fill:#231F20;" d="M319,303.1c0.7,0,1.3-0.6,1.3-1.3c0-0.7-0.6-1.3-1.3-1.3c-0.7,0-1.3,0.6-1.3,1.3
		C317.7,302.5,318.3,303.1,319,303.1z"/>
	<path style="fill:#231F20;" d="M332.2,289.9c0.7,0,1.3-0.6,1.3-1.3c0-0.7-0.6-1.3-1.3-1.3c-0.7,0-1.3,0.6-1.3,1.3
		C330.9,289.4,331.4,289.9,332.2,289.9z"/>
	<path style="fill:#231F20;" d="M319,289.9c0.7,0,1.3-0.6,1.3-1.3c0-0.7-0.6-1.3-1.3-1.3c-0.7,0-1.3,0.6-1.3,1.3
		C317.7,289.4,318.3,289.9,319,289.9z"/>
	<path style="fill:#231F20;" d="M332.2,276.8c0.7,0,1.3-0.6,1.3-1.3c0-0.7-0.6-1.3-1.3-1.3c-0.7,0-1.3,0.6-1.3,1.3
		C330.9,276.3,331.2,276.7,332.2,276.8z"/>
	<path style="fill:#231F20;" d="M319,276.8c0.7,0,1.3-0.6,1.3-1.3c0-0.7-0.6-1.3-1.3-1.3c-0.7,0-1.3,0.6-1.3,1.3
		C317.7,276.2,318.3,276.8,319,276.8z"/>
	<path style="fill:#231F20;" d="M325.6,296.5c0.7,0,1.3-0.6,1.3-1.3c0-0.7-0.6-1.3-1.3-1.3c-0.7,0-1.3,0.6-1.3,1.3
		C324.3,295.9,324.9,296.5,325.6,296.5z"/>
	<path style="fill:#231F20;" d="M325.6,283.4c0.7,0,1.3-0.6,1.3-1.3c0-0.7-0.6-1.3-1.3-1.3c-0.7,0-1.3,0.6-1.3,1.3
		C324.3,282.8,324.9,283.4,325.6,283.4z"/>
	<path style="fill:#231F20;" d="M194.8,95.8c0.7,0,1.4-0.6,1.4-1.4c0-0.7-0.6-1.4-1.4-1.4c-0.7,0-1.4,0.6-1.4,1.4
		C193.4,95.2,194,95.8,194.8,95.8z"/>
	<path style="fill:#231F20;" d="M181.2,95.8c0.7,0,1.4-0.6,1.4-1.4c0-0.7-0.6-1.4-1.4-1.4c-0.7,0-1.4,0.6-1.4,1.4
		C179.8,95.2,180.4,95.8,181.2,95.8z"/>
	<path style="fill:#231F20;" d="M167.6,95.8c0.7,0,1.4-0.6,1.4-1.4c0-0.7-0.6-1.4-1.4-1.4c-0.8,0-1.4,0.6-1.4,1.4
		C166.3,95.2,166.9,95.8,167.6,95.8z"/>
	<path style="fill:#231F20;" d="M194.8,82.3c0.7,0,1.4-0.6,1.4-1.4c0-0.8-0.6-1.4-1.4-1.4c-0.7,0-1.4,0.6-1.4,1.4
		C193.4,81.7,194,82.3,194.8,82.3z"/>
	<path style="fill:#231F20;" d="M181.2,82.3c0.7,0,1.4-0.6,1.4-1.4c0-0.8-0.6-1.4-1.4-1.4c-0.7,0-1.4,0.6-1.4,1.4
		C179.8,81.7,180.4,82.3,181.2,82.3z"/>
	<path style="fill:#231F20;" d="M167.6,82.3c0.7,0,1.4-0.6,1.4-1.4c0-0.8-0.6-1.4-1.4-1.4c-0.8,0-1.4,0.6-1.4,1.4
		C166.3,81.7,166.9,82.3,167.6,82.3z"/>
	<path style="fill:#231F20;" d="M194.8,68.7c0.7,0,1.4-0.6,1.4-1.4c0-0.7-0.6-1.4-1.4-1.4c-0.7,0-1.4,0.6-1.4,1.4
		C193.4,68.2,193.7,68.7,194.8,68.7z"/>
	<path style="fill:#231F20;" d="M181.2,68.7c0.7,0,1.4-0.6,1.4-1.4c0-0.7-0.6-1.4-1.4-1.4c-0.7,0-1.4,0.6-1.4,1.4
		C179.8,68.1,180.4,68.7,181.2,68.7z"/>
	<path style="fill:#231F20;" d="M167.6,68.7c0.7,0,1.4-0.6,1.4-1.4c0-0.7-0.6-1.4-1.4-1.4c-0.8,0-1.4,0.6-1.4,1.4
		C166.3,68.1,166.9,68.7,167.6,68.7z"/>
	<path style="fill:#231F20;" d="M154.1,68.7c0.7,0,1.4-0.6,1.4-1.4c0-0.7-0.6-1.4-1.4-1.4c-0.7,0-1.4,0.6-1.4,1.4
		C152.7,68.1,153.3,68.7,154.1,68.7z"/>
	<path style="fill:#231F20;" d="M154.1,67.4"/>
	<path style="fill:#231F20;" d="M174.4,89.1c0.7,0,1.4-0.6,1.4-1.4c0-0.7-0.6-1.4-1.4-1.4c-0.7,0-1.4,0.6-1.4,1.4
		C173.1,88.5,173.7,89.1,174.4,89.1z"/>
	<path style="fill:#231F20;" d="M188,89.1c0.7,0,1.4-0.6,1.4-1.4c0-0.7-0.6-1.4-1.4-1.4c-0.7,0-1.4,0.6-1.4,1.4
		C186.6,88.5,187.2,89.1,188,89.1z"/>
	<path style="fill:#231F20;" d="M174.4,75.5c0.7,0,1.4-0.6,1.4-1.4c0-0.7-0.6-1.4-1.4-1.4c-0.7,0-1.4,0.6-1.4,1.4
		C173.1,74.9,173.7,75.5,174.4,75.5z"/>
	<path style="fill:#231F20;" d="M188,75.5c0.7,0,1.4-0.6,1.4-1.4c0-0.7-0.6-1.4-1.4-1.4c-0.7,0-1.4,0.6-1.4,1.4
		C186.6,74.9,187.2,75.5,188,75.5z"/>
	<path style="fill:#231F20;" d="M160.9,75.5c0.7,0,1.4-0.6,1.4-1.4c0-0.7-0.6-1.4-1.4-1.4c-0.8,0-1.4,0.6-1.4,1.4
		C159.5,74.9,160.1,75.5,160.9,75.5z"/>
	<path style="fill:#231F20;" d="M160.9,74.1"/>
	<path style="fill:#231F20;" d="M194.8,123c0.7,0,1.4-0.6,1.4-1.4c0-0.7-0.6-1.4-1.4-1.4c-0.7,0-1.4,0.6-1.4,1.4
		C193.4,122.4,194,123,194.8,123z"/>
	<path style="fill:#231F20;" d="M194.8,109.4c0.7,0,1.4-0.6,1.4-1.4c0-0.8-0.6-1.4-1.4-1.4c-0.7,0-1.4,0.6-1.4,1.4
		C193.4,108.8,194,109.4,194.8,109.4z"/>
	<path style="fill:#231F20;" d="M181.2,109.4c0.7,0,1.4-0.6,1.4-1.4c0-0.8-0.6-1.4-1.4-1.4c-0.7,0-1.4,0.6-1.4,1.4
		C179.8,108.8,180.4,109.4,181.2,109.4z"/>
	<path style="fill:#231F20;" d="M194.8,95.8c0.7,0,1.4-0.6,1.4-1.4c0-0.7-0.6-1.4-1.4-1.4c-0.7,0-1.4,0.6-1.4,1.4
		C193.4,95.3,193.7,95.8,194.8,95.8z"/>
	<path style="fill:#231F20;" d="M181.2,95.8c0.7,0,1.4-0.6,1.4-1.4c0-0.7-0.6-1.4-1.4-1.4c-0.7,0-1.4,0.6-1.4,1.4
		C179.8,95.2,180.4,95.8,181.2,95.8z"/>
	<path style="fill:#231F20;" d="M167.6,95.8c0.7,0,1.4-0.6,1.4-1.4c0-0.7-0.6-1.4-1.4-1.4c-0.8,0-1.4,0.6-1.4,1.4
		C166.3,95.2,166.9,95.8,167.6,95.8z"/>
	<path style="fill:#231F20;" d="M188,116.2c0.7,0,1.4-0.6,1.4-1.4c0-0.7-0.6-1.4-1.4-1.4c-0.7,0-1.4,0.6-1.4,1.4
		C186.6,115.6,187.2,116.2,188,116.2z"/>
	<path style="fill:#231F20;" d="M174.4,102.6c0.7,0,1.4-0.6,1.4-1.4c0-0.7-0.6-1.4-1.4-1.4c-0.7,0-1.4,0.6-1.4,1.4
		C173.1,102,173.7,102.6,174.4,102.6z"/>
	<path style="fill:#231F20;" d="M188,102.6c0.7,0,1.4-0.6,1.4-1.4c0-0.7-0.6-1.4-1.4-1.4c-0.7,0-1.4,0.6-1.4,1.4
		C186.6,102,187.2,102.6,188,102.6z"/>
	<path style="fill:#231F20;" d="M194.8,123c0.7,0,1.4-0.6,1.4-1.4c0-0.7-0.6-1.4-1.4-1.4c-0.7,0-1.4,0.6-1.4,1.4
		C193.4,122.4,193.7,122.9,194.8,123z"/>
	<path style="fill:#231F20;" d="M167.6,95.8c0.7,0,1.4-0.6,1.4-1.4c0-0.7-0.6-1.4-1.4-1.4c-0.7,0-1.4,0.6-1.4,1.4
		C166.3,95.2,166.9,95.8,167.6,95.8z"/>
	<path style="fill:#231F20;" d="M167.6,82.3c0.7,0,1.4-0.6,1.4-1.4c0-0.8-0.6-1.4-1.4-1.4c-0.7,0-1.4,0.6-1.4,1.4
		C166.3,81.7,166.9,82.3,167.6,82.3z"/>
	<path style="fill:#231F20;" d="M154.1,82.3c0.7,0,1.4-0.6,1.4-1.4c0-0.8-0.6-1.4-1.4-1.4c-0.7,0-1.4,0.6-1.4,1.4
		C152.7,81.7,153.3,82.3,154.1,82.3z"/>
	<path style="fill:#231F20;" d="M167.6,68.7c0.7,0,1.4-0.6,1.4-1.4c0-0.7-0.6-1.4-1.4-1.4c-0.7,0-1.4,0.6-1.4,1.4
		C166.3,68.2,166.6,68.7,167.6,68.7z"/>
	<path style="fill:#231F20;" d="M154.1,68.7c0.7,0,1.4-0.6,1.4-1.4c0-0.7-0.6-1.4-1.4-1.4c-0.7,0-1.4,0.6-1.4,1.4
		C152.7,68.1,153.3,68.7,154.1,68.7z"/>
	<path style="fill:#231F20;" d="M140.5,68.7c0.7,0,1.4-0.6,1.4-1.4c0-0.7-0.6-1.4-1.4-1.4c-0.8,0-1.4,0.6-1.4,1.4
		C139.1,68.1,139.8,68.7,140.5,68.7z"/>
	<path style="fill:#231F20;" d="M160.9,89.1c0.7,0,1.4-0.6,1.4-1.4c0-0.7-0.6-1.4-1.4-1.4c-0.7,0-1.4,0.6-1.4,1.4
		C159.5,88.5,160.1,89.1,160.9,89.1z"/>
	<path style="fill:#231F20;" d="M147.3,75.5c0.7,0,1.4-0.6,1.4-1.4c0-0.7-0.6-1.4-1.4-1.4c-0.7,0-1.4,0.6-1.4,1.4
		C145.9,74.9,146.5,75.5,147.3,75.5z"/>
	<path style="fill:#231F20;" d="M160.9,75.5c0.7,0,1.4-0.6,1.4-1.4c0-0.7-0.6-1.4-1.4-1.4c-0.7,0-1.4,0.6-1.4,1.4
		C159.5,74.9,160.1,75.5,160.9,75.5z"/>
	<path style="fill:#231F20;" d="M167.6,95.8c0.7,0,1.4-0.6,1.4-1.4c0-0.7-0.6-1.4-1.4-1.4c-0.7,0-1.4,0.6-1.4,1.4
		C166.3,95.3,166.6,95.8,167.6,95.8z"/>
	<path style="fill:#231F20;" d="M140.5,68.7c0.7,0,1.4-0.6,1.4-1.4c0-0.7-0.6-1.4-1.4-1.4c-0.7,0-1.4,0.6-1.4,1.4
		C139.2,68.2,139.5,68.7,140.5,68.7z"/>
	<path style="fill:#231F20;" d="M124.2,143.2c-0.9,0-1.6,0.7-1.6,1.6c0,0.9,0.7,1.6,1.6,1.6c0.9,0,1.6-0.7,1.6-1.6
		C125.8,143.9,125.1,143.2,124.2,143.2z"/>
	<path style="fill:#231F20;" d="M140.4,143.2c-0.9,0-1.6,0.7-1.6,1.6c0,0.9,0.7,1.6,1.6,1.6c0.9,0,1.6-0.7,1.6-1.6
		C142,143.9,141.3,143.2,140.4,143.2z"/>
	<path style="fill:#231F20;" d="M156.6,143.2c-0.9,0-1.6,0.7-1.6,1.6c0,0.9,0.7,1.6,1.6,1.6c0.9,0,1.6-0.7,1.6-1.6
		C158.2,143.9,157.5,143.2,156.6,143.2z"/>
	<path style="fill:#231F20;" d="M124.2,159.4c-0.9,0-1.6,0.7-1.6,1.6c0,0.9,0.7,1.6,1.6,1.6c0.9,0,1.6-0.7,1.6-1.6
		C125.8,160.1,125.1,159.4,124.2,159.4z"/>
	<path style="fill:#231F20;" d="M140.4,159.4c-0.9,0-1.6,0.7-1.6,1.6c0,0.9,0.7,1.6,1.6,1.6c0.9,0,1.6-0.7,1.6-1.6
		C142,160.1,141.3,159.4,140.4,159.4z"/>
	<path style="fill:#231F20;" d="M156.6,159.4c-0.9,0-1.6,0.7-1.6,1.6c0,0.9,0.7,1.6,1.6,1.6c0.9,0,1.6-0.7,1.6-1.6
		C158.2,160.1,157.5,159.4,156.6,159.4z"/>
	<path style="fill:#231F20;" d="M124.2,175.5c-0.9,0-1.6,0.7-1.6,1.6c0,0.9,0.7,1.6,1.6,1.6c0.9,0,1.6-0.7,1.6-1.6
		C125.8,176.2,125.4,175.6,124.2,175.5z"/>
	<path style="fill:#231F20;" d="M140.4,175.5c-0.9,0-1.6,0.7-1.6,1.6c0,0.9,0.7,1.6,1.6,1.6c0.9,0,1.6-0.7,1.6-1.6
		C142,176.3,141.3,175.5,140.4,175.5z"/>
	<path style="fill:#231F20;" d="M156.6,175.5c-0.9,0-1.6,0.7-1.6,1.6c0,0.9,0.7,1.6,1.6,1.6c0.9,0,1.6-0.7,1.6-1.6
		C158.2,176.3,157.5,175.5,156.6,175.5z"/>
	<path style="fill:#231F20;" d="M172.8,175.5c-0.9,0-1.6,0.7-1.6,1.6c0,0.9,0.7,1.6,1.6,1.6c0.9,0,1.6-0.7,1.6-1.6
		C174.4,176.3,173.7,175.5,172.8,175.5z"/>
	<path style="fill:#231F20;" d="M172.8,177.2"/>
	<path style="fill:#231F20;" d="M148.5,151.3c-0.9,0-1.6,0.7-1.6,1.6c0,0.9,0.7,1.6,1.6,1.6c0.9,0,1.6-0.7,1.6-1.6
		C150.1,152,149.4,151.3,148.5,151.3z"/>
	<path style="fill:#231F20;" d="M132.3,151.3c-0.9,0-1.6,0.7-1.6,1.6c0,0.9,0.7,1.6,1.6,1.6c0.9,0,1.6-0.7,1.6-1.6
		C133.9,152,133.2,151.3,132.3,151.3z"/>
	<path style="fill:#231F20;" d="M148.5,167.4c-0.9,0-1.6,0.7-1.6,1.6c0,0.9,0.7,1.6,1.6,1.6c0.9,0,1.6-0.7,1.6-1.6
		C150.1,168.2,149.4,167.4,148.5,167.4z"/>
	<path style="fill:#231F20;" d="M132.3,167.4c-0.9,0-1.6,0.7-1.6,1.6c0,0.9,0.7,1.6,1.6,1.6c0.9,0,1.6-0.7,1.6-1.6
		C133.9,168.2,133.2,167.4,132.3,167.4z"/>
	<path style="fill:#231F20;" d="M164.7,167.4c-0.9,0-1.6,0.7-1.6,1.6c0,0.9,0.7,1.6,1.6,1.6c0.9,0,1.6-0.7,1.6-1.6
		C166.3,168.2,165.6,167.4,164.7,167.4z"/>
	<path style="fill:#231F20;" d="M164.7,169.1"/>
	<path style="fill:#231F20;" d="M124.2,110.8c-0.9,0-1.6,0.7-1.6,1.6c0,0.9,0.7,1.6,1.6,1.6c0.9,0,1.6-0.7,1.6-1.6
		C125.8,111.5,125.1,110.8,124.2,110.8z"/>
	<path style="fill:#231F20;" d="M124.2,127c-0.9,0-1.6,0.7-1.6,1.6c0,0.9,0.7,1.6,1.6,1.6c0.9,0,1.6-0.7,1.6-1.6
		C125.8,127.7,125.1,127,124.2,127z"/>
	<path style="fill:#231F20;" d="M140.4,127c-0.9,0-1.6,0.7-1.6,1.6c0,0.9,0.7,1.6,1.6,1.6c0.9,0,1.6-0.7,1.6-1.6
		C142,127.7,141.3,127,140.4,127z"/>
	<path style="fill:#231F20;" d="M124.2,143.2c-0.9,0-1.6,0.7-1.6,1.6c0,0.9,0.7,1.6,1.6,1.6c0.9,0,1.6-0.7,1.6-1.6
		C125.8,143.8,125.4,143.2,124.2,143.2z"/>
	<path style="fill:#231F20;" d="M140.4,143.2c-0.9,0-1.6,0.7-1.6,1.6c0,0.9,0.7,1.6,1.6,1.6c0.9,0,1.6-0.7,1.6-1.6
		C142,143.9,141.3,143.2,140.4,143.2z"/>
	<path style="fill:#231F20;" d="M156.6,143.2c-0.9,0-1.6,0.7-1.6,1.6c0,0.9,0.7,1.6,1.6,1.6c0.9,0,1.6-0.7,1.6-1.6
		C158.2,143.9,157.5,143.2,156.6,143.2z"/>
	<path style="fill:#231F20;" d="M132.3,118.9c-0.9,0-1.6,0.7-1.6,1.6c0,0.9,0.7,1.6,1.6,1.6c0.9,0,1.6-0.7,1.6-1.6
		C133.9,119.6,133.2,118.9,132.3,118.9z"/>
	<path style="fill:#231F20;" d="M148.5,135.1c-0.9,0-1.6,0.7-1.6,1.6c0,0.9,0.7,1.6,1.6,1.6c0.9,0,1.6-0.7,1.6-1.6
		C150.1,135.8,149.4,135.1,148.5,135.1z"/>
	<path style="fill:#231F20;" d="M132.3,135.1c-0.9,0-1.6,0.7-1.6,1.6c0,0.9,0.7,1.6,1.6,1.6c0.9,0,1.6-0.7,1.6-1.6
		C133.9,135.8,133.2,135.1,132.3,135.1z"/>
	<path style="fill:#231F20;" d="M124.2,110.8c-0.9,0-1.6,0.7-1.6,1.6c0,0.9,0.7,1.6,1.6,1.6c0.9,0,1.6-0.7,1.6-1.6
		C125.8,111.4,125.4,110.8,124.2,110.8z"/>
	<path style="fill:#231F20;" d="M156.6,143.2c-0.9,0-1.6,0.7-1.6,1.6c0,0.9,0.7,1.6,1.6,1.6c0.9,0,1.6-0.7,1.6-1.6
		C158.2,143.9,157.5,143.2,156.6,143.2z"/>
	<path style="fill:#231F20;" d="M156.6,159.4c-0.9,0-1.6,0.7-1.6,1.6c0,0.9,0.7,1.6,1.6,1.6c0.9,0,1.6-0.7,1.6-1.6
		C158.2,160.1,157.5,159.4,156.6,159.4z"/>
	<path style="fill:#231F20;" d="M172.8,159.4c-0.9,0-1.6,0.7-1.6,1.6c0,0.9,0.7,1.6,1.6,1.6c0.9,0,1.6-0.7,1.6-1.6
		C174.4,160.1,173.7,159.4,172.8,159.4z"/>
	<path style="fill:#231F20;" d="M156.6,175.5c-0.9,0-1.6,0.7-1.6,1.6c0,0.9,0.7,1.6,1.6,1.6c0.9,0,1.6-0.7,1.6-1.6
		C158.2,176.2,157.8,175.6,156.6,175.5z"/>
	<path style="fill:#231F20;" d="M172.8,175.5c-0.9,0-1.6,0.7-1.6,1.6c0,0.9,0.7,1.6,1.6,1.6c0.9,0,1.6-0.7,1.6-1.6
		C174.4,176.3,173.7,175.5,172.8,175.5z"/>
	<path style="fill:#231F20;" d="M189,175.5c-0.9,0-1.6,0.7-1.6,1.6c0,0.9,0.7,1.6,1.6,1.6c0.9,0,1.6-0.7,1.6-1.6
		C190.6,176.3,189.9,175.5,189,175.5z"/>
	<path style="fill:#231F20;" d="M164.7,151.3c-0.9,0-1.6,0.7-1.6,1.6c0,0.9,0.7,1.6,1.6,1.6c0.9,0,1.6-0.7,1.6-1.6
		C166.3,152,165.6,151.3,164.7,151.3z"/>
	<path style="fill:#231F20;" d="M180.9,167.4c-0.9,0-1.6,0.7-1.6,1.6c0,0.9,0.7,1.6,1.6,1.6c0.9,0,1.6-0.7,1.6-1.6
		C182.5,168.2,181.8,167.4,180.9,167.4z"/>
	<path style="fill:#231F20;" d="M164.7,167.4c-0.9,0-1.6,0.7-1.6,1.6c0,0.9,0.7,1.6,1.6,1.6c0.9,0,1.6-0.7,1.6-1.6
		C166.3,168.2,165.6,167.4,164.7,167.4z"/>
	<path style="fill:#231F20;" d="M156.6,143.2c-0.9,0-1.6,0.7-1.6,1.6c0,0.9,0.7,1.6,1.6,1.6c0.9,0,1.6-0.7,1.6-1.6
		C158.2,143.8,157.8,143.2,156.6,143.2z"/>
	<path style="fill:#231F20;" d="M189,175.5c-0.9,0-1.7,0.7-1.6,1.6c0.1,1.3,0.9,2.2,1.6,1.6c0.7-0.6,1.6-0.7,1.6-1.6
		C190.6,176.2,190.2,175.6,189,175.5z"/>
	<path style="fill:#231F20;" d="M268.3,218.8c0.6,0,1-0.5,1-1c0-0.6-0.5-1-1-1c-0.6,0-1,0.5-1,1
		C267.3,218.3,267.8,218.8,268.3,218.8z"/>
	<path style="fill:#231F20;" d="M289,239.4c0.6,0,1-0.5,1-1c0-0.6-0.5-1-1-1c-0.6,0-1,0.5-1,1C288,239,288.4,239.4,289,239.4z"/>
	<path style="fill:#231F20;" d="M278.7,239.4c0.6,0,1-0.5,1-1c0-0.6-0.5-1-1-1c-0.6,0-1,0.5-1,1C277.6,239,278.1,239.4,278.7,239.4z
		"/>
	<path style="fill:#231F20;" d="M268.3,239.4c0.6,0,1-0.5,1-1c0-0.6-0.5-1-1-1c-0.6,0-1,0.5-1,1C267.3,239,267.8,239.4,268.3,239.4z
		"/>
	<path style="fill:#231F20;" d="M278.7,229.1c0.6,0,1-0.5,1-1c0-0.6-0.5-1-1-1c-0.6,0-1,0.5-1,1
		C277.6,228.6,278.1,229.1,278.7,229.1z"/>
	<path style="fill:#231F20;" d="M268.3,229.1c0.6,0,1-0.5,1-1c0-0.6-0.5-1-1-1c-0.6,0-1,0.5-1,1
		C267.3,228.6,267.8,229.1,268.3,229.1z"/>
	<path style="fill:#231F20;" d="M268.3,218.8c0.6,0,1-0.5,1-1c0-0.6-0.5-1-1-1c-0.6,0-1,0.5-1,1
		C267.3,218.3,267.8,218.8,268.3,218.8z"/>
	<path style="fill:#231F20;" d="M258,218.8c0.6,0,1-0.5,1-1c0-0.6-0.5-1-1-1c-0.6,0-1,0.5-1,1C257,218.3,257.4,218.8,258,218.8z"/>
	<path style="fill:#231F20;" d="M258,217.7"/>
	<path style="fill:#231F20;" d="M273.5,234.3c0.6,0,1-0.5,1-1c0-0.6-0.5-1-1-1c-0.6,0-1,0.5-1,1
		C272.5,233.8,272.9,234.3,273.5,234.3z"/>
	<path style="fill:#231F20;" d="M283.8,234.3c0.6,0,1-0.5,1-1c0-0.6-0.5-1-1-1c-0.6,0-1,0.5-1,1
		C282.8,233.8,283.3,234.3,283.8,234.3z"/>
	<path style="fill:#231F20;" d="M273.5,223.9c0.6,0,1-0.5,1-1c0-0.6-0.5-1-1-1c-0.6,0-1,0.5-1,1
		C272.5,223.5,272.9,223.9,273.5,223.9z"/>
	<path style="fill:#231F20;" d="M263.2,223.9c0.6,0,1-0.5,1-1c0-0.6-0.5-1-1-1c-0.6,0-1,0.5-1,1
		C262.1,223.5,262.6,223.9,263.2,223.9z"/>
	<path style="fill:#231F20;" d="M263.2,222.9"/>
	<path style="fill:#231F20;" d="M289,260.1c0.6,0,1-0.5,1-1c0-0.6-0.5-1-1-1c-0.6,0-1,0.5-1,1C288,259.7,288.4,260.1,289,260.1z"/>
	<path style="fill:#231F20;" d="M278.7,260.1c0.6,0,1-0.5,1-1c0-0.6-0.5-1-1-1c-0.6,0-1,0.5-1,1
		C277.6,259.7,278.1,260.1,278.7,260.1z"/>
	<path style="fill:#231F20;" d="M268.3,260.1c0.6,0,1-0.5,1-1c0-0.6-0.5-1-1-1c-0.6,0-1,0.5-1,1
		C267.3,259.7,267.8,260.1,268.3,260.1z"/>
	<path style="fill:#231F20;" d="M289,249.8c0.6,0,1-0.5,1-1c0-0.6-0.5-1-1-1c-0.6,0-1,0.5-1,1C288,249.3,288.4,249.8,289,249.8z"/>
	<path style="fill:#231F20;" d="M278.7,249.8c0.6,0,1-0.5,1-1c0-0.6-0.5-1-1-1c-0.6,0-1,0.5-1,1
		C277.6,249.3,278.1,249.8,278.7,249.8z"/>
	<path style="fill:#231F20;" d="M268.3,249.8c0.6,0,1-0.5,1-1c0-0.6-0.5-1-1-1c-0.6,0-1,0.5-1,1
		C267.3,249.3,267.8,249.8,268.3,249.8z"/>
	<path style="fill:#231F20;" d="M289,239.4c0.6,0,1-0.5,1-1c0-0.6-0.5-1-1-1c-0.6,0-1,0.5-1,1C288,239,288.2,239.4,289,239.4z"/>
	<path style="fill:#231F20;" d="M278.7,239.4c0.6,0,1-0.5,1-1c0-0.6-0.5-1-1-1c-0.6,0-1,0.5-1,1C277.6,239,278.1,239.4,278.7,239.4z
		"/>
	<path style="fill:#231F20;" d="M268.3,239.4c0.6,0,1-0.5,1-1c0-0.6-0.5-1-1-1c-0.6,0-1,0.5-1,1C267.3,239,267.8,239.4,268.3,239.4z
		"/>
	<path style="fill:#231F20;" d="M258,239.4c0.6,0,1-0.5,1-1c0-0.6-0.5-1-1-1c-0.6,0-1,0.5-1,1C257,239,257.4,239.4,258,239.4z"/>
	<path style="fill:#231F20;" d="M258,238.4"/>
	<path style="fill:#231F20;" d="M273.5,254.9c0.6,0,1-0.5,1-1c0-0.6-0.5-1-1-1c-0.6,0-1,0.5-1,1
		C272.5,254.5,272.9,254.9,273.5,254.9z"/>
	<path style="fill:#231F20;" d="M283.8,254.9c0.6,0,1-0.5,1-1c0-0.6-0.5-1-1-1c-0.6,0-1,0.5-1,1
		C282.8,254.5,283.3,254.9,283.8,254.9z"/>
	<path style="fill:#231F20;" d="M273.5,244.6c0.6,0,1-0.5,1-1c0-0.6-0.5-1-1-1c-0.6,0-1,0.5-1,1
		C272.5,244.1,272.9,244.6,273.5,244.6z"/>
	<path style="fill:#231F20;" d="M283.8,244.6c0.6,0,1-0.5,1-1c0-0.6-0.5-1-1-1c-0.6,0-1,0.5-1,1
		C282.8,244.1,283.3,244.6,283.8,244.6z"/>
	<path style="fill:#231F20;" d="M263.2,244.6c0.6,0,1-0.5,1-1c0-0.6-0.5-1-1-1c-0.6,0-1,0.5-1,1
		C262.1,244.1,262.6,244.6,263.2,244.6z"/>
	<path style="fill:#231F20;" d="M263.2,243.6"/>
	<path style="fill:#231F20;" d="M289,280.8c0.6,0,1-0.5,1-1c0-0.6-0.5-1-1-1c-0.6,0-1,0.5-1,1C288,280.3,288.4,280.8,289,280.8z"/>
	<path style="fill:#231F20;" d="M278.7,280.8c0.6,0,1-0.5,1-1c0-0.6-0.5-1-1-1c-0.6,0-1,0.5-1,1
		C277.6,280.3,278.1,280.8,278.7,280.8z"/>
	<path style="fill:#231F20;" d="M268.3,280.8c0.6,0,1-0.5,1-1c0-0.6-0.5-1-1-1c-0.6,0-1,0.5-1,1
		C267.3,280.3,267.8,280.8,268.3,280.8z"/>
	<path style="fill:#231F20;" d="M289,270.5c0.6,0,1-0.5,1-1c0-0.6-0.5-1-1-1c-0.6,0-1,0.5-1,1C288,270,288.4,270.5,289,270.5z"/>
	<path style="fill:#231F20;" d="M278.7,270.5c0.6,0,1-0.5,1-1c0-0.6-0.5-1-1-1c-0.6,0-1,0.5-1,1C277.6,270,278.1,270.5,278.7,270.5z
		"/>
	<path style="fill:#231F20;" d="M268.3,270.5c0.6,0,1-0.5,1-1c0-0.6-0.5-1-1-1c-0.6,0-1,0.5-1,1C267.3,270,267.8,270.5,268.3,270.5z
		"/>
	<path style="fill:#231F20;" d="M289,260.1c0.6,0,1-0.5,1-1c0-0.6-0.5-1-1-1c-0.6,0-1,0.5-1,1C288,259.7,288.2,260.1,289,260.1z"/>
	<path style="fill:#231F20;" d="M278.7,260.1c0.6,0,1-0.5,1-1c0-0.6-0.5-1-1-1c-0.6,0-1,0.5-1,1
		C277.6,259.7,278.1,260.1,278.7,260.1z"/>
	<path style="fill:#231F20;" d="M268.3,260.1c0.6,0,1-0.5,1-1c0-0.6-0.5-1-1-1c-0.6,0-1,0.5-1,1
		C267.3,259.7,267.8,260.1,268.3,260.1z"/>
	<path style="fill:#231F20;" d="M258,260.1c0.6,0,1-0.5,1-1c0-0.6-0.5-1-1-1c-0.6,0-1,0.5-1,1C257,259.7,257.4,260.1,258,260.1z"/>
	<path style="fill:#231F20;" d="M258,259.1"/>
	<path style="fill:#231F20;" d="M273.5,275.6c0.6,0,1-0.5,1-1c0-0.6-0.5-1-1-1c-0.6,0-1,0.5-1,1
		C272.5,275.2,272.9,275.6,273.5,275.6z"/>
	<path style="fill:#231F20;" d="M283.8,275.6c0.6,0,1-0.5,1-1c0-0.6-0.5-1-1-1c-0.6,0-1,0.5-1,1
		C282.8,275.2,283.3,275.6,283.8,275.6z"/>
	<path style="fill:#231F20;" d="M273.5,265.3c0.6,0,1-0.5,1-1c0-0.6-0.5-1-1-1c-0.6,0-1,0.5-1,1
		C272.5,264.8,272.9,265.3,273.5,265.3z"/>
	<path style="fill:#231F20;" d="M283.8,265.3c0.6,0,1-0.5,1-1c0-0.6-0.5-1-1-1c-0.6,0-1,0.5-1,1
		C282.8,264.8,283.3,265.3,283.8,265.3z"/>
	<path style="fill:#231F20;" d="M263.2,265.3c0.6,0,1-0.5,1-1c0-0.6-0.5-1-1-1c-0.6,0-1,0.5-1,1
		C262.1,264.8,262.6,265.3,263.2,265.3z"/>
	<path style="fill:#231F20;" d="M263.2,264.2"/>
	<path style="fill:#231F20;" d="M268.3,218.8c0.6,0,1-0.5,1-1c0-0.6-0.5-1-1-1c-0.6,0-1,0.5-1,1
		C267.3,218.3,267.8,218.8,268.3,218.8z"/>
	<path style="fill:#231F20;" d="M258,218.8c0.6,0,1-0.5,1-1c0-0.6-0.5-1-1-1c-0.6,0-1,0.5-1,1C257,218.3,257.4,218.8,258,218.8z"/>
	<path style="fill:#231F20;" d="M258,208.4c0.6,0,1-0.5,1-1c0-0.6-0.5-1-1-1c-0.6,0-1,0.5-1,1C257,208,257.4,208.4,258,208.4z"/>
	<path style="fill:#231F20;" d="M263.2,213.6c0.6,0,1-0.5,1-1c0-0.6-0.5-1-1-1c-0.6,0-1,0.5-1,1
		C262.1,213.1,262.6,213.6,263.2,213.6z"/>
	<path style="fill:#231F20;" d="M268.3,239.4c0.6,0,1-0.5,1-1c0-0.6-0.5-1-1-1c-0.6,0-1,0.5-1,1C267.3,239,267.8,239.4,268.3,239.4z
		"/>
	<path style="fill:#231F20;" d="M258,239.4c0.6,0,1-0.5,1-1c0-0.6-0.5-1-1-1c-0.6,0-1,0.5-1,1C257,239,257.4,239.4,258,239.4z"/>
	<path style="fill:#231F20;" d="M268.3,229.1c0.6,0,1-0.5,1-1c0-0.6-0.5-1-1-1c-0.6,0-1,0.5-1,1
		C267.3,228.6,267.8,229.1,268.3,229.1z"/>
	<path style="fill:#231F20;" d="M258,229.1c0.6,0,1-0.5,1-1c0-0.6-0.5-1-1-1c-0.6,0-1,0.5-1,1C257,228.6,257.4,229.1,258,229.1z"/>
	<path style="fill:#231F20;" d="M268.3,218.8c0.6,0,1-0.5,1-1c0-0.6-0.5-1-1-1c-0.6,0-1,0.5-1,1
		C267.3,218.4,267.6,218.7,268.3,218.8z"/>
	<path style="fill:#231F20;" d="M258,218.8c0.6,0,1-0.5,1-1c0-0.6-0.5-1-1-1c-0.6,0-1,0.5-1,1C257,218.3,257.4,218.8,258,218.8z"/>
	<path style="fill:#231F20;" d="M263.2,234.3c0.6,0,1-0.5,1-1c0-0.6-0.5-1-1-1c-0.6,0-1,0.5-1,1
		C262.1,233.8,262.6,234.3,263.2,234.3z"/>
	<path style="fill:#231F20;" d="M263.2,223.9c0.6,0,1-0.5,1-1c0-0.6-0.5-1-1-1c-0.6,0-1,0.5-1,1
		C262.1,223.5,262.6,223.9,263.2,223.9z"/>
	<path style="fill:#231F20;" d="M268.3,260.1c0.6,0,1-0.5,1-1c0-0.6-0.5-1-1-1c-0.6,0-1,0.5-1,1
		C267.3,259.7,267.8,260.1,268.3,260.1z"/>
	<path style="fill:#231F20;" d="M258,260.1c0.6,0,1-0.5,1-1c0-0.6-0.5-1-1-1c-0.6,0-1,0.5-1,1C257,259.7,257.4,260.1,258,260.1z"/>
	<path style="fill:#231F20;" d="M268.3,249.8c0.6,0,1-0.5,1-1c0-0.6-0.5-1-1-1c-0.6,0-1,0.5-1,1
		C267.3,249.3,267.8,249.8,268.3,249.8z"/>
	<path style="fill:#231F20;" d="M258,249.8c0.6,0,1-0.5,1-1c0-0.6-0.5-1-1-1c-0.6,0-1,0.5-1,1C257,249.3,257.4,249.8,258,249.8z"/>
	<path style="fill:#231F20;" d="M268.3,239.4c0.6,0,1-0.5,1-1c0-0.6-0.5-1-1-1c-0.6,0-1,0.5-1,1C267.3,239,267.6,239.4,268.3,239.4z
		"/>
	<path style="fill:#231F20;" d="M258,239.4c0.6,0,1-0.5,1-1c0-0.6-0.5-1-1-1c-0.6,0-1,0.5-1,1C257,239,257.4,239.4,258,239.4z"/>
	<path style="fill:#231F20;" d="M263.2,254.9c0.6,0,1-0.5,1-1c0-0.6-0.5-1-1-1c-0.6,0-1,0.5-1,1
		C262.1,254.5,262.6,254.9,263.2,254.9z"/>
	<path style="fill:#231F20;" d="M263.2,244.6c0.6,0,1-0.5,1-1c0-0.6-0.5-1-1-1c-0.6,0-1,0.5-1,1
		C262.1,244.1,262.6,244.6,263.2,244.6z"/>
	<path style="fill:#231F20;" d="M268.3,280.8c0.6,0,1-0.5,1-1c0-0.6-0.5-1-1-1c-0.6,0-1,0.5-1,1
		C267.3,280.3,267.8,280.8,268.3,280.8z"/>
	<path style="fill:#231F20;" d="M258,280.8c0.6,0,1-0.5,1-1c0-0.6-0.5-1-1-1c-0.6,0-1,0.5-1,1C257,280.3,257.4,280.8,258,280.8z"/>
	<path style="fill:#231F20;" d="M268.3,270.5c0.6,0,1-0.5,1-1c0-0.6-0.5-1-1-1c-0.6,0-1,0.5-1,1C267.3,270,267.8,270.5,268.3,270.5z
		"/>
	<path style="fill:#231F20;" d="M258,270.5c0.6,0,1-0.5,1-1c0-0.6-0.5-1-1-1c-0.6,0-1,0.5-1,1C257,270,257.4,270.5,258,270.5z"/>
	<path style="fill:#231F20;" d="M268.3,260.1c0.6,0,1-0.5,1-1c0-0.6-0.5-1-1-1c-0.6,0-1,0.5-1,1
		C267.3,259.7,267.6,260.1,268.3,260.1z"/>
	<path style="fill:#231F20;" d="M258,260.1c0.6,0,1-0.5,1-1c0-0.6-0.5-1-1-1c-0.6,0-1,0.5-1,1C257,259.7,257.4,260.1,258,260.1z"/>
	<path style="fill:#231F20;" d="M263.2,275.6c0.6,0,1-0.5,1-1c0-0.6-0.5-1-1-1c-0.6,0-1,0.5-1,1
		C262.1,275.2,262.6,275.6,263.2,275.6z"/>
	<path style="fill:#231F20;" d="M263.2,265.3c0.6,0,1-0.5,1-1c0-0.6-0.5-1-1-1c-0.6,0-1,0.5-1,1
		C262.1,264.8,262.6,265.3,263.2,265.3z"/>
	<path style="fill:#231F20;" d="M321.9,181.8c0.6,0,1-0.5,1-1c0-0.6-0.5-1-1-1c-0.6,0-1,0.5-1,1
		C320.9,181.3,321.3,181.8,321.9,181.8z"/>
	<path style="fill:#231F20;" d="M332,171.7c0.6,0,1-0.5,1-1c0-0.6-0.5-1-1-1c-0.6,0-1,0.5-1,1C331,171.2,331.5,171.7,332,171.7z"/>
	<path style="fill:#231F20;" d="M321.9,171.7c0.6,0,1-0.5,1-1c0-0.6-0.5-1-1-1c-0.6,0-1,0.5-1,1
		C320.9,171.2,321.3,171.7,321.9,171.7z"/>
	<path style="fill:#231F20;" d="M342.1,161.6c0.6,0,1-0.5,1-1c0-0.6-0.5-1-1-1c-0.6,0-1,0.5-1,1
		C341.1,161.2,341.4,161.5,342.1,161.6z"/>
	<path style="fill:#231F20;" d="M332,161.6c0.6,0,1-0.5,1-1c0-0.6-0.5-1-1-1c-0.6,0-1,0.5-1,1C331,161.1,331.5,161.6,332,161.6z"/>
	<path style="fill:#231F20;" d="M321.9,161.6c0.6,0,1-0.5,1-1c0-0.6-0.5-1-1-1c-0.6,0-1,0.5-1,1
		C320.9,161.1,321.3,161.6,321.9,161.6z"/>
	<path style="fill:#231F20;" d="M311.8,161.6c0.6,0,1-0.5,1-1c0-0.6-0.5-1-1-1c-0.6,0-1,0.5-1,1
		C310.8,161.1,311.2,161.6,311.8,161.6z"/>
	<path style="fill:#231F20;" d="M311.8,160.6"/>
	<path style="fill:#231F20;" d="M327,176.7c0.6,0,1-0.5,1-1c0-0.6-0.5-1-1-1c-0.6,0-1,0.5-1,1C326,176.3,326.4,176.7,327,176.7z"/>
	<path style="fill:#231F20;" d="M327,166.6c0.6,0,1-0.5,1-1c0-0.6-0.5-1-1-1c-0.6,0-1,0.5-1,1C326,166.2,326.4,166.6,327,166.6z"/>
	<path style="fill:#231F20;" d="M337.1,166.6c0.6,0,1-0.5,1-1c0-0.6-0.5-1-1-1c-0.6,0-1,0.5-1,1
		C336.1,166.2,336.5,166.6,337.1,166.6z"/>
	<path style="fill:#231F20;" d="M316.9,166.6c0.6,0,1-0.5,1-1c0-0.6-0.5-1-1-1c-0.6,0-1,0.5-1,1
		C315.8,166.2,316.3,166.6,316.9,166.6z"/>
	<path style="fill:#231F20;" d="M316.9,165.6"/>
	<path style="fill:#231F20;" d="M321.9,181.8c0.6,0,1-0.5,1-1c0-0.6-0.5-1-1-1c-0.6,0-1,0.5-1,1
		C320.9,181.3,321.3,181.8,321.9,181.8z"/>
	<path style="fill:#231F20;" d="M311.8,181.8c0.6,0,1-0.5,1-1c0-0.6-0.5-1-1-1c-0.6,0-1,0.5-1,1
		C310.8,181.3,311.2,181.8,311.8,181.8z"/>
	<path style="fill:#231F20;" d="M311.8,180.8"/>
	<path style="fill:#231F20;" d="M316.9,186.9c0.6,0,1-0.5,1-1c0-0.6-0.5-1-1-1c-0.6,0-1,0.5-1,1
		C315.8,186.4,316.3,186.9,316.9,186.9z"/>
	<path style="fill:#231F20;" d="M316.9,185.8"/>
	<path style="fill:#231F20;" d="M321.9,181.8c0.6,0,1-0.5,1-1c0-0.6-0.5-1-1-1c-0.6,0-1,0.5-1,1
		C320.9,181.3,321.4,181.8,321.9,181.8z"/>
	<path style="fill:#231F20;" d="M311.8,181.8c0.6,0,1-0.5,1-1c0-0.6-0.5-1-1-1c-0.6,0-1,0.5-1,1
		C310.8,181.3,311.2,181.8,311.8,181.8z"/>
	<path style="fill:#231F20;" d="M301.7,181.8c0.6,0,1-0.5,1-1c0-0.6-0.5-1-1-1c-0.6,0-1,0.5-1,1
		C300.7,181.3,301.1,181.8,301.7,181.8z"/>
	<path style="fill:#231F20;" d="M321.9,171.7c0.6,0,1-0.5,1-1c0-0.6-0.5-1-1-1c-0.6,0-1,0.5-1,1
		C320.9,171.2,321.4,171.7,321.9,171.7z"/>
	<path style="fill:#231F20;" d="M311.8,171.7c0.6,0,1-0.5,1-1c0-0.6-0.5-1-1-1c-0.6,0-1,0.5-1,1
		C310.8,171.2,311.2,171.7,311.8,171.7z"/>
	<path style="fill:#231F20;" d="M301.7,171.7c0.6,0,1-0.5,1-1c0-0.6-0.5-1-1-1c-0.6,0-1,0.5-1,1
		C300.7,171.2,301.1,171.7,301.7,171.7z"/>
	<path style="fill:#231F20;" d="M321.9,161.6c0.6,0,1-0.5,1-1c0-0.6-0.5-1-1-1c-0.6,0-1,0.5-1,1
		C320.9,161.2,321.2,161.5,321.9,161.6z"/>
	<path style="fill:#231F20;" d="M311.8,161.6c0.6,0,1-0.5,1-1c0-0.6-0.5-1-1-1c-0.6,0-1,0.5-1,1
		C310.8,161.1,311.2,161.6,311.8,161.6z"/>
	<path style="fill:#231F20;" d="M301.7,161.6c0.6,0,1-0.5,1-1c0-0.6-0.5-1-1-1c-0.6,0-1,0.5-1,1
		C300.7,161.1,301.1,161.6,301.7,161.6z"/>
	<path style="fill:#231F20;" d="M291.6,161.6c0.6,0,1-0.5,1-1c0-0.6-0.5-1-1-1c-0.6,0-1,0.5-1,1C290.5,161.1,291,161.6,291.6,161.6z
		"/>
	<path style="fill:#231F20;" d="M291.6,160.6"/>
	<path style="fill:#231F20;" d="M306.7,176.7c0.6,0,1-0.5,1-1c0-0.6-0.5-1-1-1c-0.6,0-1,0.5-1,1
		C305.7,176.3,306.2,176.7,306.7,176.7z"/>
	<path style="fill:#231F20;" d="M316.9,176.7c0.6,0,1-0.5,1-1c0-0.6-0.5-1-1-1c-0.6,0-1,0.5-1,1
		C315.8,176.3,316.3,176.7,316.9,176.7z"/>
	<path style="fill:#231F20;" d="M306.7,166.6c0.6,0,1-0.5,1-1c0-0.6-0.5-1-1-1c-0.6,0-1,0.5-1,1
		C305.7,166.2,306.2,166.6,306.7,166.6z"/>
	<path style="fill:#231F20;" d="M316.9,166.6c0.6,0,1-0.5,1-1c0-0.6-0.5-1-1-1c-0.6,0-1,0.5-1,1
		C315.8,166.2,316.3,166.6,316.9,166.6z"/>
	<path style="fill:#231F20;" d="M296.6,166.6c0.6,0,1-0.5,1-1c0-0.6-0.5-1-1-1c-0.6,0-1,0.5-1,1
		C295.6,166.2,296.1,166.6,296.6,166.6z"/>
	<path style="fill:#231F20;" d="M296.6,165.6"/>
	<path style="fill:#231F20;" d="M301.7,202c0.6,0,1-0.5,1-1c0-0.6-0.5-1-1-1c-0.6,0-1,0.5-1,1C300.7,201.6,301.1,202,301.7,202z"/>
	<path style="fill:#231F20;" d="M311.8,191.9c0.6,0,1-0.5,1-1c0-0.6-0.5-1-1-1c-0.6,0-1,0.5-1,1
		C310.8,191.5,311.2,191.9,311.8,191.9z"/>
	<path style="fill:#231F20;" d="M301.7,191.9c0.6,0,1-0.5,1-1c0-0.6-0.5-1-1-1c-0.6,0-1,0.5-1,1
		C300.7,191.5,301.1,191.9,301.7,191.9z"/>
	<path style="fill:#231F20;" d="M321.9,181.8c0.6,0,1-0.5,1-1c0-0.6-0.5-1-1-1c-0.6,0-1,0.5-1,1
		C320.9,181.4,321.2,181.8,321.9,181.8z"/>
	<path style="fill:#231F20;" d="M311.8,181.8c0.6,0,1-0.5,1-1c0-0.6-0.5-1-1-1c-0.6,0-1,0.5-1,1
		C310.8,181.3,311.2,181.8,311.8,181.8z"/>
	<path style="fill:#231F20;" d="M301.7,181.8c0.6,0,1-0.5,1-1c0-0.6-0.5-1-1-1c-0.6,0-1,0.5-1,1
		C300.7,181.3,301.1,181.8,301.7,181.8z"/>
	<path style="fill:#231F20;" d="M291.6,181.8c0.6,0,1-0.5,1-1c0-0.6-0.5-1-1-1c-0.6,0-1,0.5-1,1C290.5,181.3,291,181.8,291.6,181.8z
		"/>
	<path style="fill:#231F20;" d="M291.6,180.8"/>
	<path style="fill:#231F20;" d="M306.7,197c0.6,0,1-0.5,1-1c0-0.6-0.5-1-1-1c-0.6,0-1,0.5-1,1C305.7,196.5,306.2,197,306.7,197z"/>
	<path style="fill:#231F20;" d="M306.7,186.9c0.6,0,1-0.5,1-1c0-0.6-0.5-1-1-1c-0.6,0-1,0.5-1,1
		C305.7,186.4,306.2,186.9,306.7,186.9z"/>
	<path style="fill:#231F20;" d="M316.9,186.9c0.6,0,1-0.5,1-1c0-0.6-0.5-1-1-1c-0.6,0-1,0.5-1,1
		C315.8,186.4,316.3,186.9,316.9,186.9z"/>
	<path style="fill:#231F20;" d="M296.6,186.9c0.6,0,1-0.5,1-1c0-0.6-0.5-1-1-1c-0.6,0-1,0.5-1,1
		C295.6,186.4,296.1,186.9,296.6,186.9z"/>
	<path style="fill:#231F20;" d="M296.6,185.8"/>
	<path style="fill:#231F20;" d="M301.7,181.8c0.6,0,1-0.5,1-1c0-0.6-0.5-1-1-1c-0.6,0-1,0.5-1,1
		C300.7,181.3,301.1,181.8,301.7,181.8z"/>
	<path style="fill:#231F20;" d="M291.6,181.8c0.6,0,1-0.5,1-1c0-0.6-0.5-1-1-1c-0.6,0-1,0.5-1,1C290.5,181.3,291,181.8,291.6,181.8z
		"/>
	<path style="fill:#231F20;" d="M281.4,181.8c0.6,0,1-0.5,1-1c0-0.6-0.5-1-1-1c-0.6,0-1,0.5-1,1
		C280.4,181.3,280.9,181.8,281.4,181.8z"/>
	<path style="fill:#231F20;" d="M301.7,171.7c0.6,0,1-0.5,1-1c0-0.6-0.5-1-1-1c-0.6,0-1,0.5-1,1
		C300.7,171.2,301.1,171.7,301.7,171.7z"/>
	<path style="fill:#231F20;" d="M291.6,171.7c0.6,0,1-0.5,1-1c0-0.6-0.5-1-1-1c-0.6,0-1,0.5-1,1C290.5,171.2,291,171.7,291.6,171.7z
		"/>
	<path style="fill:#231F20;" d="M281.4,171.7c0.6,0,1-0.5,1-1c0-0.6-0.5-1-1-1c-0.6,0-1,0.5-1,1
		C280.4,171.2,280.9,171.7,281.4,171.7z"/>
	<path style="fill:#231F20;" d="M301.7,161.6c0.6,0,1-0.5,1-1c0-0.6-0.5-1-1-1c-0.6,0-1,0.5-1,1
		C300.7,161.2,300.9,161.5,301.7,161.6z"/>
	<path style="fill:#231F20;" d="M291.6,161.6c0.6,0,1-0.5,1-1c0-0.6-0.5-1-1-1c-0.6,0-1,0.5-1,1C290.5,161.1,291,161.6,291.6,161.6z
		"/>
	<path style="fill:#231F20;" d="M281.4,161.6c0.6,0,1-0.5,1-1c0-0.6-0.5-1-1-1c-0.6,0-1,0.5-1,1
		C280.4,161.1,280.9,161.6,281.4,161.6z"/>
	<path style="fill:#231F20;" d="M271.3,161.6c0.6,0,1-0.5,1-1c0-0.6-0.5-1-1-1c-0.6,0-1,0.5-1,1
		C270.3,161.1,270.8,161.6,271.3,161.6z"/>
	<path style="fill:#231F20;" d="M271.3,160.6"/>
	<path style="fill:#231F20;" d="M286.5,176.7c0.6,0,1-0.5,1-1c0-0.6-0.5-1-1-1c-0.6,0-1,0.5-1,1
		C285.5,176.3,285.9,176.7,286.5,176.7z"/>
	<path style="fill:#231F20;" d="M296.6,176.7c0.6,0,1-0.5,1-1c0-0.6-0.5-1-1-1c-0.6,0-1,0.5-1,1
		C295.6,176.3,296.1,176.7,296.6,176.7z"/>
	<path style="fill:#231F20;" d="M286.5,166.6c0.6,0,1-0.5,1-1c0-0.6-0.5-1-1-1c-0.6,0-1,0.5-1,1
		C285.5,166.2,285.9,166.6,286.5,166.6z"/>
	<path style="fill:#231F20;" d="M296.6,166.6c0.6,0,1-0.5,1-1c0-0.6-0.5-1-1-1c-0.6,0-1,0.5-1,1
		C295.6,166.2,296.1,166.6,296.6,166.6z"/>
	<path style="fill:#231F20;" d="M276.4,166.6c0.6,0,1-0.5,1-1c0-0.6-0.5-1-1-1c-0.6,0-1,0.5-1,1
		C275.4,166.2,275.8,166.6,276.4,166.6z"/>
	<path style="fill:#231F20;" d="M276.4,165.6"/>
	<path style="fill:#231F20;" d="M301.7,202c0.6,0,1-0.5,1-1c0-0.6-0.5-1-1-1c-0.6,0-1,0.5-1,1C300.7,201.6,301.1,202,301.7,202z"/>
	<path style="fill:#231F20;" d="M301.7,191.9c0.6,0,1-0.5,1-1c0-0.6-0.5-1-1-1c-0.6,0-1,0.5-1,1
		C300.7,191.5,301.1,191.9,301.7,191.9z"/>
	<path style="fill:#231F20;" d="M291.6,191.9c0.6,0,1-0.5,1-1c0-0.6-0.5-1-1-1c-0.6,0-1,0.5-1,1C290.5,191.5,291,191.9,291.6,191.9z
		"/>
	<path style="fill:#231F20;" d="M301.7,181.8c0.6,0,1-0.5,1-1c0-0.6-0.5-1-1-1c-0.6,0-1,0.5-1,1
		C300.7,181.4,300.9,181.8,301.7,181.8z"/>
	<path style="fill:#231F20;" d="M291.6,181.8c0.6,0,1-0.5,1-1c0-0.6-0.5-1-1-1c-0.6,0-1,0.5-1,1C290.5,181.3,291,181.8,291.6,181.8z
		"/>
	<path style="fill:#231F20;" d="M281.4,181.8c0.6,0,1-0.5,1-1c0-0.6-0.5-1-1-1c-0.6,0-1,0.5-1,1
		C280.4,181.3,280.9,181.8,281.4,181.8z"/>
	<path style="fill:#231F20;" d="M296.6,197c0.6,0,1-0.5,1-1c0-0.6-0.5-1-1-1c-0.6,0-1,0.5-1,1C295.6,196.5,296.1,197,296.6,197z"/>
	<path style="fill:#231F20;" d="M286.5,186.9c0.6,0,1-0.5,1-1c0-0.6-0.5-1-1-1c-0.6,0-1,0.5-1,1
		C285.5,186.4,285.9,186.9,286.5,186.9z"/>
	<path style="fill:#231F20;" d="M296.6,186.9c0.6,0,1-0.5,1-1c0-0.6-0.5-1-1-1c-0.6,0-1,0.5-1,1
		C295.6,186.4,296.1,186.9,296.6,186.9z"/>
	<path style="fill:#231F20;" d="M281.4,181.8c0.6,0,1-0.5,1-1c0-0.6-0.5-1-1-1c-0.6,0-1,0.5-1,1
		C280.4,181.3,280.9,181.8,281.4,181.8z"/>
	<path style="fill:#231F20;" d="M281.4,171.7c0.6,0,1-0.5,1-1c0-0.6-0.5-1-1-1c-0.6,0-1,0.5-1,1
		C280.4,171.2,280.9,171.7,281.4,171.7z"/>
	<path style="fill:#231F20;" d="M271.3,171.7c0.6,0,1-0.5,1-1c0-0.6-0.5-1-1-1c-0.6,0-1,0.5-1,1
		C270.3,171.2,270.8,171.7,271.3,171.7z"/>
	<path style="fill:#231F20;" d="M281.4,161.6c0.6,0,1-0.5,1-1c0-0.6-0.5-1-1-1c-0.6,0-1,0.5-1,1
		C280.4,161.2,280.7,161.5,281.4,161.6z"/>
	<path style="fill:#231F20;" d="M271.3,161.6c0.6,0,1-0.5,1-1c0-0.6-0.5-1-1-1c-0.6,0-1,0.5-1,1
		C270.3,161.1,270.8,161.6,271.3,161.6z"/>
	<path style="fill:#231F20;" d="M261.2,161.6c0.6,0,1-0.5,1-1c0-0.6-0.5-1-1-1c-0.6,0-1,0.5-1,1
		C260.2,161.1,260.7,161.6,261.2,161.6z"/>
	<path style="fill:#231F20;" d="M276.4,176.7c0.6,0,1-0.5,1-1c0-0.6-0.5-1-1-1c-0.6,0-1,0.5-1,1
		C275.4,176.3,275.8,176.7,276.4,176.7z"/>
	<path style="fill:#231F20;" d="M266.3,166.6c0.6,0,1-0.5,1-1c0-0.6-0.5-1-1-1c-0.6,0-1,0.5-1,1
		C265.3,166.2,265.7,166.6,266.3,166.6z"/>
	<path style="fill:#231F20;" d="M276.4,166.6c0.6,0,1-0.5,1-1c0-0.6-0.5-1-1-1c-0.6,0-1,0.5-1,1
		C275.4,166.2,275.8,166.6,276.4,166.6z"/>
	<path style="fill:#231F20;" d="M281.4,181.8c0.6,0,1-0.5,1-1c0-0.6-0.5-1-1-1c-0.6,0-1,0.5-1,1
		C280.4,181.4,280.7,181.8,281.4,181.8z"/>
	<path style="fill:#231F20;" d="M188.5,212.1c0-0.8,0.7-1.5,1.6-1.5c0.8,0,1.4,0.6,1.4,1.3v4.5h1.9v-4.5c0-1.8-1.6-3-3.2-3
		c-0.6,0-1.3,0.2-1.8,0.7v-0.4h-1.9v7.2h1.9V212.1z"/>
	<rect x="204.9" y="204.3" style="fill:#231F20;" width="1.9" height="12"/>
	<path style="fill:#231F20;" d="M197,212.7c0-1.2,0.9-2.2,2-2.2s2,1,2,2.2c0,1.2-0.9,2.2-2,2.2S197,214,197,212.7 M201,216v0.4h1.9
		v-7.2H201v0.4c-0.6-0.5-1.3-0.7-2-0.7c-1.9,0-3.9,1.4-3.9,3.9c0,2.5,2,3.9,3.9,3.9C199.6,216.7,200.4,216.4,201,216"/>
	<path style="fill:#231F20;" d="M159.8,212.7c0-1.2,0.9-2.2,2-2.2c1.1,0,2,1,2,2.2c0,1.2-0.9,2.2-2,2.2
		C160.7,215,159.8,214,159.8,212.7 M163.8,216v0.4h1.9v-7.2h-1.9v0.4c-0.6-0.5-1.3-0.7-2-0.7c-1.9,0-3.9,1.4-3.9,3.9
		c0,2.5,2,3.9,3.9,3.9C162.5,216.7,163.2,216.4,163.8,216"/>
	<rect x="173.5" y="209.1" style="fill:#231F20;" width="1.9" height="7.2"/>
	<polygon style="fill:#231F20;" points="168.5,204.3 168.5,209.1 167.2,209.1 167.2,210.8 168.5,210.8 168.5,216.3 170.4,216.3 
		170.4,210.8 171.7,210.8 171.7,209.1 170.4,209.1 170.4,204.3 	"/>
	<polygon style="fill:#231F20;" points="154.6,204.3 154.6,213 149.1,204.3 147.2,204.3 147.2,216.3 149.1,216.3 149.1,207.7 
		154.6,216.3 156.5,216.3 156.5,204.3 	"/>
	<rect x="173.5" y="204.3" style="fill:#231F20;" width="1.9" height="2.1"/>
	<path style="fill:#231F20;" d="M181,210.5c1.1,0,2,1,2,2.2c0,1.2-0.9,2.2-2,2.2s-2-1-2-2.2C179,211.5,179.9,210.5,181,210.5
		 M181,216.7c2.2,0,3.9-1.8,3.9-3.9c0-2.2-1.8-3.9-3.9-3.9c-2.2,0-3.9,1.8-3.9,3.9C177.1,214.9,178.8,216.7,181,216.7"/>
	<path style="fill:#231F20;" d="M230,232.2c-1.1,0-2-1-2-2.2c0-1.2,0.9-2.2,2-2.2c1.1,0,2,1,2,2.2C232,231.2,231.1,232.2,230,232.2
		 M232,226.4v0.4c-0.6-0.5-1.3-0.7-2-0.7c-1.9,0-3.9,1.4-3.9,3.9c0,2.5,2,3.9,3.9,3.9c0.7,0,1.5-0.2,2-0.7v0.4h1.9v-7.2H232z"/>
	<path style="fill:#231F20;" d="M153.1,229.3c0-0.8,0.7-1.5,1.6-1.5c0.8,0,1.4,0.6,1.4,1.3v4.5h1.9v-4.5c0-1.8-1.6-3-3.2-3
		c-0.6,0-1.3,0.2-1.8,0.7v-5.2h-1.9v12h1.9V229.3z"/>
	<path style="fill:#231F20;" d="M132.6,232.2c-1.1,0-2-1-2-2.2c0-1.2,0.9-2.2,2-2.2c1.1,0,2,1,2,2.2
		C134.6,231.2,133.7,232.2,132.6,232.2 M132.6,226.1c-2.2,0-3.9,1.8-3.9,3.9c0,2.2,1.8,3.9,3.9,3.9s3.9-1.8,3.9-3.9
		C136.5,227.8,134.7,226.1,132.6,226.1"/>
	<polygon style="fill:#231F20;" points="129.4,221.6 125.9,226.1 122.5,221.6 120.2,221.6 125,227.8 125,233.6 126.9,233.6 
		126.9,227.9 131.7,221.6 	"/>
	<path style="fill:#231F20;" d="M212.2,229.3l-1.4-0.3c-0.4-0.1-0.6-0.3-0.6-0.6c0-0.5,0.5-0.8,1-0.8c0.6,0,1.3,0.3,1.6,1l1.5-0.7
		c-0.4-1.3-1.8-1.9-3.1-1.9c-1.5,0-2.9,0.8-2.9,2.4c0,1.5,1.1,2,2.1,2.2l1.4,0.3c0.4,0.1,0.6,0.3,0.6,0.5c0,0.5-0.6,0.9-1.2,0.9
		c-0.6,0-1.4-0.3-1.7-1.1l-1.5,0.6c0.4,1.4,1.9,2.1,3.3,2.1c1.5,0,3-0.8,3-2.4C214.4,230,213.3,229.6,212.2,229.3"/>
	<path style="fill:#231F20;" d="M142.7,233.2v0.4h1.9v-7.2h-1.9v4.3c0,0.8-0.7,1.5-1.6,1.5c-0.8,0-1.4-0.6-1.4-1.3v-4.5h-1.9v4.5
		c0,1.8,1.6,3.1,3.2,3.1C141.5,233.9,142.2,233.7,142.7,233.2"/>
	<polygon style="fill:#231F20;" points="149.1,221.6 147.2,221.6 147.2,226.4 145.9,226.4 145.9,228.1 147.2,228.1 147.2,233.6 
		149.1,233.6 149.1,228.1 150.4,228.1 150.4,226.4 149.1,226.4 	"/>
	<path style="fill:#231F20;" d="M194.4,226.1c-0.6,0-1.3,0.2-1.8,0.7v-5.2h-1.9v12h1.9v-4.3c0-0.8,0.7-1.5,1.6-1.5
		c0.8,0,1.4,0.6,1.4,1.3v4.5h1.9v-4.5C197.6,227.2,196,226.1,194.4,226.1"/>
	<path style="fill:#231F20;" d="M181.2,227.9v-1.7c-0.3,0-0.6-0.1-0.9-0.1c-0.6,0-1.2,0.1-1.7,0.7v-0.4h-1.9v7.2h1.9v-4.3
		c0-0.8,0.7-1.6,1.7-1.6C180.5,227.7,181,227.8,181.2,227.9"/>
	<path style="fill:#231F20;" d="M169,223c2.4,0,4.4,2.1,4.4,4.6c0,2.6-2,4.6-4.4,4.6c-2.4,0-4.4-2.1-4.4-4.6
		C164.6,225,166.6,223,169,223 M162.7,227.6c0,3.5,2.8,6.3,6.3,6.3s6.3-2.8,6.3-6.3s-2.8-6.3-6.3-6.3S162.7,224.1,162.7,227.6"/>
	<path style="fill:#231F20;" d="M222.9,226.8v-0.4H221v7.2h1.9v-4.3c0-0.8,0.7-1.6,1.7-1.6c0.3,0,0.8,0.1,1,0.2v-1.7
		c-0.3,0-0.6-0.1-0.9-0.1C224,226.1,223.4,226.2,222.9,226.8"/>
	<polygon style="fill:#231F20;" points="218.6,221.6 216.7,221.6 216.7,226.4 215.4,226.4 215.4,228.1 216.7,228.1 216.7,233.6 
		218.6,233.6 218.6,228.1 219.9,228.1 219.9,226.4 218.6,226.4 	"/>
	<path style="fill:#231F20;" d="M189.2,232l-1.6-0.9c-0.3,0.7-1,1.2-1.8,1.2c-1.1,0-2-1-2-2.2c0-1.2,0.9-2.2,2-2.2
		c0.8,0,1.4,0.5,1.8,1.2l1.6-0.9c-0.7-1.2-1.9-2-3.4-2c-2.2,0-3.9,1.8-3.9,3.9c0,2.2,1.8,3.9,3.9,3.9
		C187.3,233.9,188.6,233.1,189.2,232"/>
	<path style="fill:#231F20;" d="M201.3,229.1c0.3-0.8,1-1.4,1.8-1.4c0.8,0,1.5,0.6,1.8,1.4H201.3z M207,230c0-2.2-1.8-3.9-3.9-3.9
		c-2.2,0-3.9,1.8-3.9,3.9c0,2.2,1.8,3.9,3.9,3.9c1.4,0,2.5-0.7,3.2-1.7l-1.6-0.9l0,0c-0.4,0.6-1,1-1.7,1c-0.8,0-1.6-0.6-1.9-1.4h5.7
		C207,230.6,207,230.3,207,230"/>
	<rect x="196.4" y="239.7" style="fill:#231F20;" width="1" height="1.4"/>
	<path style="fill:#231F20;" d="M155,243.6v0.8h3.7c-0.2,1.9-1.8,3.5-3.7,3.5c-2.1,0-3.8-1.7-3.8-3.9s1.7-3.9,3.8-3.9
		c1.1,0,2,0.5,2.7,1.2l0.6-0.6c-0.8-0.9-2-1.4-3.3-1.4c-2.6,0-4.7,2.1-4.7,4.7s2.1,4.7,4.7,4.7s4.7-2.1,4.7-4.7c0-0.1,0-0.3,0-0.4
		H155z"/>
	<rect x="196.4" y="243.3" style="fill:#231F20;" width="1" height="5.4"/>
	<path style="fill:#231F20;" d="M204.8,247.8c-1.1,0-2-0.9-2-2.1s0.9-2.1,2-2.1s2,0.9,2,2.1S205.9,247.8,204.8,247.8 M206.9,243.9
		c-0.5-0.7-1.2-1.1-2.1-1.1c-1.5,0-2.8,1.3-2.8,2.9s1.3,2.9,2.8,2.9c0.9,0,1.6-0.4,2.1-1.1v0.9h1v-5.4h-1V243.9z"/>
	<path style="fill:#231F20;" d="M162,243.9v-0.6h-1v5.4h1v-3.2c0-0.8,0.7-1.5,1.5-1.5c0.1,0,0.3,0,0.5,0.1v-0.9c-0.1,0-0.2,0-0.3,0
		C163,243.1,162.4,243.3,162,243.9"/>
	<polygon style="fill:#231F20;" points="179.3,239.7 179.3,243.3 178.3,243.3 178.3,244.1 179.3,244.1 179.3,248.7 180.2,248.7 
		180.2,244.1 181.2,244.1 181.2,243.3 180.2,243.3 180.2,239.7 	"/>
	<path style="fill:#231F20;" d="M193.4,243.9v-0.6h-1v5.4h1v-3.2c0-0.8,0.7-1.5,1.5-1.5c0.1,0,0.3,0,0.5,0.1v-0.9
		c-0.1,0-0.2,0-0.3,0C194.4,243.1,193.7,243.3,193.4,243.9"/>
	<path style="fill:#231F20;" d="M174.3,247.8c-1.1,0-2-0.9-2-2.1s0.9-2.1,2-2.1c1.1,0,2,0.9,2,2.1S175.4,247.8,174.3,247.8
		 M176.3,243.9c-0.5-0.7-1.2-1.1-2.1-1.1c-1.5,0-2.8,1.3-2.8,2.9s1.3,2.9,2.8,2.9c0.9,0,1.6-0.4,2.1-1.1v0.9h1v-5.4h-1V243.9z"/>
	<path style="fill:#231F20;" d="M188.6,247.8h-2.5v-3.2h2.5c0.9,0,1.5,0.7,1.5,1.6C190,247.1,189.4,247.8,188.6,247.8 M186.1,240.6
		h2.2c0.9,0,1.5,0.7,1.5,1.6c0,0.9-0.6,1.6-1.5,1.6h-2.2V240.6z M189.6,244.1c0.7-0.4,1.2-1.1,1.2-2c0-1.3-1.1-2.4-2.4-2.4h-3.3v8.9
		h3.5c1.3,0,2.4-1.1,2.4-2.4C191,245.3,190.4,244.5,189.6,244.1"/>
	<path style="fill:#231F20;" d="M165.4,245.4c0.2-0.9,1-1.7,2-1.7c1,0,1.8,0.8,2,1.7H165.4z M167.4,242.8c-1.6,0-2.9,1.3-2.9,2.9
		s1.3,2.9,2.9,2.9c1,0,2-0.5,2.5-1.5l-0.8-0.4c-0.4,0.7-1,1.1-1.8,1.1c-1,0-1.8-0.8-2-1.7h4.9c0-0.3,0-0.3,0-0.4
		C170.3,244.1,169,242.8,167.4,242.8"/>
	<polygon style="fill:#231F20;" points="199.4,239.7 199.4,243.3 198.4,243.3 198.4,244.1 199.4,244.1 199.4,248.7 200.3,248.7 
		200.3,244.1 201.3,244.1 201.3,243.3 200.3,243.3 200.3,239.7 	"/>
	<path style="fill:#231F20;" d="M214.7,243.1c-0.7,0-1.3,0.3-1.7,0.9v-0.6h-1v5.4h1v-3.2c0-0.8,0.7-1.5,1.5-1.5
		c0.8,0,1.4,0.6,1.4,1.4v3.4h1v-3.4C216.9,243.9,215.8,243.1,214.7,243.1"/>
	<rect x="209.4" y="243.3" style="fill:#231F20;" width="1" height="5.4"/>
	<rect x="209.4" y="239.7" style="fill:#231F20;" width="1" height="1.4"/>
	<path style="fill:#231F20;" d="M140.1,248.7c-1.6,0-2.9-1.3-2.9-2.9s1.3-2.9,2.9-2.9c1.6,0,2.9,1.3,2.9,2.9
		S141.7,248.7,140.1,248.7z M140.1,243.6c-1.1,0-2,0.9-2,2.1s0.9,2.1,2,2.1c1.1,0,2-0.9,2-2.1S141.2,243.6,140.1,243.6z"/>
	<path style="fill:#231F20;" d="M147,243.9h-1.2v4.6h-1v-4.6h-1V243h1v-2.3c0-0.9,0.7-1.6,1.6-1.6c0.2,0,0.4,0,0.5,0.1v0.9
		c-0.1,0-0.2-0.1-0.5-0.1c-0.4,0-0.7,0.3-0.7,0.7v2.2h1.2V243.9z"/>
	<polygon style="fill:#231F20;" points="338.2,185.5 304.4,221 303.9,221 270.1,185.5 263,185.5 263,186.7 300.8,226.7 300.8,267.9 
		307.4,267.9 307.4,226.7 345.3,186.7 345.3,185.5 	"/>
	<path style="fill:#231F20;" d="M210.1,373.7c-22.2,0-40.3-18.7-40.3-40.9c0-22.2,18.1-40.9,40.3-40.9s40.3,18.7,40.3,40.9
		C250.4,355,232.4,373.7,210.1,373.7 M210.1,285.9c-25.9,0-46.9,21-46.9,46.9c0,25.9,21,46.9,46.9,46.9c25.9,0,46.9-21,46.9-46.9
		C257,307,236,285.9,210.1,285.9"/>
	<path style="fill:#231F20;" d="M209.2,328.5c0-0.4,0-0.8-0.1-1.2h-8.9v2.4h6.2c-0.5,3.1-3.1,5.4-6.1,5.4c-3.5,0-6.2-3-6.2-6.6
		c0-3.6,2.8-6.6,6.2-6.6c1.8,0,3.4,0.8,4.5,2l1.8-1.8c-1.6-1.6-3.9-2.6-6.4-2.6c-4.9,0-9,4-9,9c0,4.9,4,9,9,9
		C205.2,337.5,209.2,333.5,209.2,328.5"/>
	<path style="fill:#231F20;" d="M220,347.5h-4v-4.9h4c1.3,0,2.3,1,2.3,2.4C222.2,346.4,221.3,347.5,220,347.5 M216,335.3h3.5
		c1.4,0,2.3,1.1,2.3,2.5c0,1.4-0.9,2.5-2.3,2.5H216V335.3z M222.6,341.2c1.3-1,1.9-2.2,1.9-3.6c0-2.6-2.2-4.7-4.8-4.7h-6.4v17h6.9
		c2.7,0,4.8-2.1,4.8-4.7C225,343.4,224.1,342,222.6,341.2"/>
	<path style="fill:#231F20;" d="M207.4,155.9L207.4,155.9L207.4,155.9L207.4,155.9z M207.4,86.1v69.3H207l-66-69.3h-2.8v82.3h6.6
		V99.1h0.4l65.8,69.3h3l0-82.3H207.4z"/>
</g>
</svg>
